<svg viewBox="0 0 40 40" xmlns="http://www.w3.org/2000/svg">
<rect x="10.55" y="10.55" width="18.9" height="18.9" fill="none" stroke="#FF8066" stroke-width="1.1"/>
<path d="M20.2173 25C20.5559 25 20.8959 24.9265 21.2375 24.7795C21.579 24.6324 21.8665 24.4342 22.1 24.1849V24.1849L21.7147 23.2836C21.4462 23.5329 21.1966 23.7151 20.966 23.8301C20.7354 23.9452 20.5004 24.0027 20.2611 24.0027C19.9342 24.0027 19.67 23.8893 19.4686 23.6623C19.2672 23.4354 19.1286 23.0886 19.0527 22.6219V22.6219H20.445V21.8548H18.9826C18.9768 21.7781 18.9739 21.6566 18.9739 21.4904L18.9744 21.3783C18.9755 21.2741 18.9783 21.1932 18.9826 21.1356V21.1356H20.445V20.3685H19.0527C19.1286 19.9018 19.2672 19.5566 19.4686 19.3329C19.67 19.1091 19.9342 18.9973 20.2611 18.9973C20.5004 18.9973 20.7354 19.0548 20.966 19.1699C21.1966 19.2849 21.4462 19.4671 21.7147 19.7164V19.7164L22.1 18.8151C21.8606 18.5594 21.5731 18.3596 21.2375 18.2158C20.9018 18.0719 20.5617 18 20.2173 18C19.616 18 19.1184 18.2062 18.7243 18.6185C18.3303 19.0308 18.0661 19.6142 17.9318 20.3685V20.3685H17.1V21.1356H17.853C17.8472 21.2123 17.8443 21.3306 17.8443 21.4904L17.8448 21.6067C17.8459 21.7146 17.8487 21.7973 17.853 21.8548V21.8548H17.1V22.6219H17.9318C18.0661 23.3826 18.3303 23.9692 18.7243 24.3815C19.1184 24.7938 19.616 25 20.2173 25Z" fill="#FF8066"/>
<path d="M19.7764 13.5528L18.5 14.191V10.5H21.5V14.191L20.2236 13.5528L20 13.441L19.7764 13.5528Z" fill="#FF8066" stroke="#FF8066"/>
</svg>
