<svg viewBox="0 0 40 40" fill="none" xmlns="http://www.w3.org/2000/svg">
<path d="M20.5 28.8933C20.5 30.5501 19.1569 31.8933 17.5 31.8933C15.8431 31.8933 14.5 30.5501 14.5 28.8933C14.5 27.2364 15.8431 25.8933 17.5 25.8933C19.1569 25.8933 20.5 27.2364 20.5 28.8933Z" fill="#FF8066"/>
<path fill-rule="evenodd" clip-rule="evenodd" d="M13.9758 8.5H10V9.7L12.9707 9.7L13.8471 14.6196L15.7793 25.5775C16.134 25.3939 16.5221 25.2658 16.9321 25.205L15.0288 14.4107L13.9758 8.5ZM17.1059 26.1904L17.5227 28.5541L20.0767 28.1038C20.1484 28.3469 20.1869 28.6043 20.1869 28.8707C20.1869 29.02 20.1748 29.1664 20.1516 29.3091L16.5493 29.9443L15.9647 26.6289C16.2993 26.4022 16.6873 26.2484 17.1059 26.1904ZM21.1781 29.1281C21.1839 29.0431 21.1869 28.9572 21.1869 28.8707C21.1869 28.5454 21.145 28.2299 21.0663 27.9293L29.5612 26.4314L29.7696 27.6132L21.1781 29.1281Z" fill="#FF8066"/>
<path fill-rule="evenodd" clip-rule="evenodd" d="M16.4486 14.4L26.9731 12.5443L29.2 25.1737L20.4916 26.7092C19.9843 26.0038 19.2351 25.4839 18.3654 25.2709L16.4486 14.4ZM19.347 26.911L18.6755 27.0294L18.5627 26.3896C18.8545 26.517 19.1196 26.6945 19.347 26.911ZM17.6865 15.2669L26.1061 13.7823L27.6526 22.5528L19.233 24.0374L17.6865 15.2669Z" fill="#FF8066"/>
</svg>
