<svg xmlns="http://www.w3.org/2000/svg" width="70.98" height="59.534" viewBox="0 0 70.98 59.534">
  <g id="Group_8859" transform="translate(-690 -281.945)">
    <path id="Path_7745" d="M778.74,190a29.74,29.74,0,1,0,29.74,29.74A29.738,29.738,0,0,0,778.74,190Z" transform="translate(-47.5 91.945)" fill="#4d37d9" fill-rule="evenodd" opacity="0.1"/>
    <path id="Subtraction_231" d="M29.7,59.608A29.747,29.747,0,0,1,18.124,2.466,29.748,29.748,0,0,1,41.278,57.271,29.56,29.56,0,0,1,29.7,59.608Zm.852-20.432a2.349,2.349,0,1,0,2.347,2.35A2.351,2.351,0,0,0,30.553,39.176Zm-.7-19.85a4.56,4.56,0,0,1,3.6,7.407L28.913,32.4a2.1,2.1,0,0,0,.329,2.949,2.1,2.1,0,0,0,2.949-.329l4.536-5.668a8.813,8.813,0,1,0-15.767-5.384v.75a2.1,2.1,0,0,0,4.2,0v-.75A4.675,4.675,0,0,1,29.849,19.326Z" transform="translate(690.039 281.871)" fill="#4d37d9"/>
  </g>
</svg>
