<svg xmlns="http://www.w3.org/2000/svg" width="40.78" height="35.647" viewBox="0 0 40.78 35.647">
  <g stroke="rgba(0,0,0,0)" stroke-miterlimit="10">
    <path d="M.5 10.629a10.13 10.13 0 1 1 10.13 10.13A10.129 10.129 0 0 1 .5 10.629Zm6.917 1.718a2.363 2.363 0 0 0 1.232 1.924 4.188 4.188 0 0 0 1.058.47v.468a.8.8 0 1 0 1.6 0v-.436a3.828 3.828 0 0 0 1.023-.386 2.309 2.309 0 0 0 1.27-2.04 1.993 1.993 0 0 0-.337-1.147 2.133 2.133 0 0 0-.814-.7 4.611 4.611 0 0 0-1.138-.375V8.16a1.245 1.245 0 0 1 .31.21 1.277 1.277 0 0 1 .377.972.8.8 0 0 0 1.6 0 2.877 2.877 0 0 0-.882-2.142 2.974 2.974 0 0 0-1.407-.723v-.428a.8.8 0 0 0-1.6 0v.428A2.96 2.96 0 0 0 8.3 7.2a2.872 2.872 0 0 0-.883 2.141 1.863 1.863 0 0 0 .351 1.124 2.122 2.122 0 0 0 .821.653 4.949 4.949 0 0 0 1.118.343v1.565a1.876 1.876 0 0 1-.2-.114c-.4-.251-.483-.47-.483-.567a.8.8 0 1 0-1.6 0Zm3.893-.57a2.144 2.144 0 0 1 .406.152.575.575 0 0 1 .223.173.4.4 0 0 1 .058.245.72.72 0 0 1-.45.643 1.977 1.977 0 0 1-.237.111ZM9.278 9.671a.556.556 0 0 1-.216-.152.269.269 0 0 1-.043-.178 1.277 1.277 0 0 1 .381-.972 1.218 1.218 0 0 1 .31-.21V9.82a2.456 2.456 0 0 1-.432-.149Zm22.14 12.102h-3.14v2.512h3.14a1.256 1.256 0 0 0 0-2.512Zm0 3.979H28.28v2.51h3.138a1.255 1.255 0 1 0 0-2.51Z"/>
    <path d="M30.151 14.888a10.13 10.13 0 1 0 10.13 10.13 10.13 10.13 0 0 0-10.13-10.13Zm4.052 12.156a2.7 2.7 0 0 1-2.026 2.605v.771a.675.675 0 0 1-1.351 0v-.675h-1.351v.675a.675.675 0 1 1-1.351 0v-.675h-2.025a.675.675 0 0 1 0-1.351h.675v-6.753h-.675a.675.675 0 0 1 0-1.351h2.022v-.675a.675.675 0 0 1 1.351 0v.673h1.349v-.673a.675.675 0 0 1 1.351 0v.773a2.68 2.68 0 0 1 1.093 4.631 2.684 2.684 0 0 1 .937 2.025Z"/>
    <path d="M23.999 4.527a.843.843 0 0 1 .844-.844 8.075 8.075 0 0 1 8.075 8.075.844.844 0 0 1-1.687 0 6.388 6.388 0 0 0-6.388-6.388.844.844 0 0 1-.844-.843Zm-7.957 26.969a.845.845 0 0 1-.844.844 8.075 8.075 0 0 1-8.075-8.075.844.844 0 1 1 1.687 0 6.388 6.388 0 0 0 6.388 6.388.844.844 0 0 1 .844.843Z" fill-rule="evenodd"/>
  </g>
</svg>
