<svg xmlns="http://www.w3.org/2000/svg" width="20.172" height="20.172" viewBox="0 0 20.172 20.172">
  <g transform="translate(-28.666 -13.373)">
    <circle  cx="10.086" cy="10.086" r="10.086" transform="translate(28.666 13.373)" fill="#fff"/>
    <path  d="M38.752 14.373a9.086 9.086 0 1 0 9.086 9.086 9.1 9.1 0 0 0-9.086-9.086m0-1a10.086 10.086 0 1 1-10.086 10.086 10.086 10.086 0 0 1 10.086-10.086Z" fill-opacity="47%"/>
    <path d="M42.26 24.96h-7.016a1.5 1.5 0 0 1-1.5-1.5 1.5 1.5 0 0 1 1.5-1.5h7.016a1.5 1.5 0 0 1 1.5 1.5 1.5 1.5 0 0 1-1.5 1.5Z"/>
  </g>
</svg>
