<svg xmlns="http://www.w3.org/2000/svg" width="38.89" height="38.89" viewBox="0 0 38.89 38.89">
  <path d="M29.168 0H9.723A9.734 9.734 0 0 0 0 9.723v19.445a9.734 9.734 0 0 0 9.723 9.722h19.445a9.734 9.734 0 0 0 9.722-9.722V9.723A9.734 9.734 0 0 0 29.168 0ZM15.959 27.793a1.945 1.945 0 1 1-2.75 2.75L11.667 29l-1.542 1.542a1.945 1.945 0 1 1-2.75-2.75l1.542-1.542-1.542-1.541a1.945 1.945 0 1 1 2.75-2.75l1.542 1.541 1.542-1.542a1.945 1.945 0 1 1 2.75 2.75l-1.542 1.542Zm-.4-14.181h-1.947v1.944a1.944 1.944 0 1 1-3.889 0v-1.944H7.778a1.944 1.944 0 1 1 0-3.889h1.944V7.778a1.944 1.944 0 1 1 3.889 0v1.944h1.944a1.944 1.944 0 1 1 0 3.889Zm15.556 17.5h-7.781a1.944 1.944 0 1 1 0-3.889h7.778a1.944 1.944 0 1 1 0 3.889Zm0-5.834h-7.781a1.944 1.944 0 1 1 0-3.889h7.778a1.944 1.944 0 1 1 0 3.889Zm0-11.667h-7.781a1.944 1.944 0 1 1 0-3.889h7.778a1.944 1.944 0 1 1 0 3.889Z"/>
</svg>
