<svg xmlns="http://www.w3.org/2000/svg" width="70.98" height="59.479" viewBox="0 0 70.98 59.479">
  <g id="Group_8859"  transform="translate(-690 -281.945)">
    <path id="Path_7745" d="M778.74,190a29.74,29.74,0,1,0,29.74,29.74A29.738,29.738,0,0,0,778.74,190Z" transform="translate(-47.5 91.945)" fill="#1cc577" fill-rule="evenodd" opacity="0.1"/>
    <path id="Subtraction_230"  d="M29.739,59.479A29.74,29.74,0,0,1,8.71,8.71,29.74,29.74,0,0,1,50.77,50.769,29.548,29.548,0,0,1,29.739,59.479ZM22.218,29.224a2.306,2.306,0,0,0-1.447.5,2.347,2.347,0,0,0-.386,3.288l.014.014.035.045.126.159.1.12c.1.122.218.273.359.446.392.487.911,1.112,1.424,1.715.415.49,1.032,1.2,1.61,1.791a9.688,9.688,0,0,0,.785.729,3.973,3.973,0,0,0,.529.368,2.621,2.621,0,0,0,1.314.364,2.421,2.421,0,0,0,1.006-.221,2.559,2.559,0,0,0,.391-.22l.01-.007A3.471,3.471,0,0,0,28.478,38c.188-.17.382-.379.566-.577.337-.37.783-.9,1.362-1.608.893-1.1,2.053-2.572,3.651-4.647,1.043-1.358,2.222-2.91,3.505-4.614.475-.63.87-1.155,1.143-1.521l.432-.579a2.34,2.34,0,0,0-3.755-2.794l-.422.57c-.271.364-.663.886-1.134,1.51-.68.9-2.036,2.7-3.48,4.577-1.538,2-2.706,3.485-3.569,4.544l-.217.265-.522-.6L26,32.475c-.478-.563-.934-1.119-1.3-1.565l-.048-.059c-.186-.229-.332-.41-.432-.539l-.12-.151-.029-.037-.012-.01A2.323,2.323,0,0,0,22.218,29.224Z" transform="translate(690 281.945)" fill="#1cc577"/>
  </g>
</svg>
