<svg version="1.1" id="Layer_1" xmlns="http://www.w3.org/2000/svg" xmlns:xlink="http://www.w3.org/1999/xlink" x="0" y="0" viewBox="0 0 170.986 40" style="enable-background:new 0 0 182.1 42.6" xml:space="preserve" width="170.986" height="40">
	<style>
		.st1{fill:#fff}.st2{opacity:.5}.st4{fill:#a4c217}.st6{fill:#ec8300}.st8{fill:#86408e}.st10{fill:#e13914}.st12{fill:#ffe800}.st14{fill:#6ab03c}.st16{fill:#4ba5dc}.st18{fill:#74c3d7}.st20{fill:#e00b6c}
	</style>
  <g id="Logo-Big">
		<path d="M57.84 11.831c1.033.469 1.878 1.127 2.535 2.066.563.939.939 2.066.845 3.286a6.85 6.85 0 0 1-.845 3.286c-.563.939-1.502 1.69-2.535 2.16-1.221.563-2.535.751-3.85.751h-3.85v3.192c0 .939-.751 1.784-1.784 1.784h-1.408V11.174h7.042c1.315-.094 2.63.188 3.85.657zm-.845 7.887a3.353 3.353 0 0 0 1.127-2.535c.094-.939-.376-1.878-1.127-2.535a4.841 4.841 0 0 0-3.192-.845h-3.756v6.854h3.756c1.127.094 2.253-.281 3.192-.939zm18.122 7.794-3.005-4.225h-4.506v3.192a1.783 1.783 0 0 1-1.784 1.784h-1.315V11.174h7.042c1.315 0 2.629.188 3.85.751 1.033.469 1.878 1.127 2.535 2.16.657.939.939 2.066.939 3.286 0 1.221-.282 2.347-.939 3.38-.657.939-1.596 1.69-2.723 2.066l3.944 5.634H76.62c-.564-.094-1.127-.47-1.503-.939zm-.657-12.77a4.728 4.728 0 0 0-3.099-.845h-3.756v6.76h3.756c1.127.094 2.254-.282 3.192-.939a3.353 3.353 0 0 0 1.127-2.535c.001-.939-.375-1.878-1.22-2.441zm11.174 12.676c-1.408-.751-2.535-1.784-3.286-3.192-.845-1.408-1.221-2.911-1.221-4.507 0-1.596.376-3.192 1.221-4.507.751-1.315 1.972-2.441 3.286-3.192a10.544 10.544 0 0 1 9.484 0c1.408.751 2.535 1.784 3.286 3.192.845 1.408 1.221 2.911 1.221 4.507 0 1.596-.376 3.192-1.221 4.507-.751 1.315-1.972 2.441-3.286 3.192-2.911 1.502-6.479 1.502-9.484 0zm7.887-2.441a4.809 4.809 0 0 0 2.16-2.16 6.583 6.583 0 0 0 0-6.197 4.809 4.809 0 0 0-2.16-2.16 6.583 6.583 0 0 0-6.197 0 4.809 4.809 0 0 0-2.16 2.16 6.583 6.583 0 0 0 0 6.197 4.809 4.809 0 0 0 2.16 2.16 6.589 6.589 0 0 0 6.197 0zm19.155 2.535-4.131-5.728-4.038 5.728c-.376.469-.845.751-1.502.751h-2.723l6.385-8.732-6.009-8.451h2.723c.563 0 1.127.282 1.502.751l3.85 5.352 3.85-5.352c.376-.469.845-.751 1.502-.751h2.535l-6.009 8.263 6.479 8.92h-2.723c-.846 0-1.315-.282-1.691-.751zm21.127-16.338v11.925c.188 2.16-.563 4.225-2.066 5.822-1.596 1.408-3.662 2.16-5.728 2.066-1.315 0-2.629-.188-3.944-.657-1.127-.376-2.16-.939-3.005-1.784l.376-.657c.469-.845 1.502-1.221 2.347-.751a8.696 8.696 0 0 0 4.131 1.033c3.099 0 4.695-1.69 4.695-4.883v-1.315a6.154 6.154 0 0 1-5.07 2.254c-1.878.094-3.662-.563-5.07-1.878-1.315-1.502-1.972-3.38-1.784-5.352v-5.728h1.408c1.033 0 1.784.845 1.784 1.784v3.85c-.094 1.221.282 2.441 1.127 3.38.845.845 1.878 1.221 3.005 1.127a4.24 4.24 0 0 0 3.286-1.221c.845-1.033 1.315-2.347 1.221-3.662v-3.474c0-.939.751-1.784 1.784-1.784h1.503zm28.357 1.502c1.221 1.408 1.784 3.192 1.69 5.07v8.826c0 .939-.751 1.784-1.784 1.784h-1.408V17.84a4.16 4.16 0 0 0-1.033-3.099 3.537 3.537 0 0 0-2.817-1.033 4.16 4.16 0 0 0-3.099 1.033c-.845.939-1.221 2.066-1.127 3.286v8.451a1.783 1.783 0 0 1-1.784 1.784h-1.408V17.84a4.16 4.16 0 0 0-1.033-3.099c-.751-.751-1.69-1.033-2.723-1.033-1.127-.094-2.254.376-3.099 1.127-.845.845-1.315 2.066-1.127 3.286v8.451c0 .939-.751 1.784-1.784 1.784h-1.408V11.174h1.315c1.033 0 1.784.845 1.784 1.784v.469c.563-.845 1.221-1.502 2.16-1.878.939-.469 2.066-.657 3.099-.657 1.127 0 2.16.188 3.192.657.845.376 1.596 1.127 2.066 1.972.563-.845 1.408-1.502 2.347-1.972 1.033-.469 2.16-.657 3.286-.657 1.69-.094 3.474.563 4.695 1.784zm7.136-6.197c.469.282.939.751 1.221 1.221.282.563.469 1.221.469 1.784 0 .657-.094 1.221-.469 1.784a2.571 2.571 0 0 1-1.221 1.221c-.563.282-1.127.469-1.784.469s-1.221-.094-1.784-.469c-.563-.282-.939-.751-1.221-1.221-.282-.563-.469-1.221-.469-1.784 0-.657.094-1.221.469-1.784a2.571 2.571 0 0 1 1.221-1.221c.563-.282 1.221-.469 1.784-.469.657.093 1.22.187 1.784.469zm-.188 5.821c.469-.282.845-.657 1.033-1.127.282-.469.376-1.033.376-1.596 0-.563-.094-1.127-.376-1.69a4.013 4.013 0 0 0-1.033-1.127c-.469-.282-1.033-.376-1.596-.376-.563 0-1.127.094-1.596.376-.469.282-.845.657-1.033 1.127-.282.469-.376 1.033-.376 1.69 0 .563.094 1.127.376 1.596.282.469.657.845 1.033 1.127.469.282 1.033.376 1.596.376.563 0 1.127-.188 1.596-.376zm-.188-3.004c-.282.282-.563.376-.939.376l1.221 1.878h-.657l-1.221-1.878h-.657v1.878h-.47V7.23h1.502c.376 0 .845.094 1.127.376.282.282.376.563.376.939.094.281-.094.563-.282.751zm-2.159 0h.939c.657 0 .939-.282.939-.751 0-.188-.094-.469-.188-.563-.188-.188-.469-.188-.751-.188h-.939v1.502z" style="fill:#333"/>
    <path class="st1" d="M12.582 33.333H8.826c-2.629 0-4.789-2.066-4.789-4.695v-3.944c0-2.629 2.16-4.789 4.789-4.789h3.756c2.629 0 4.789 2.16 4.789 4.789v3.85c0 2.724-2.16 4.789-4.789 4.789m18.686 0h-3.756c-2.629 0-4.789-2.16-4.789-4.789v-3.756c0-2.629 2.16-4.789 4.789-4.789h3.756c2.629 0 4.789 2.16 4.789 4.789v3.85c-.001 2.63-2.16 4.695-4.789 4.695"/>
    <path class="st1" d="M31.268 20h-3.756c-2.629 0-4.789-2.16-4.789-4.789v-3.756c0-2.629 2.16-4.789 4.789-4.789h3.756c2.629 0 4.789 2.16 4.789 4.789v3.756C35.962 17.84 33.897 20 31.268 20"/>
    <path class="st1" d="M35.305 26.667h-3.85c-2.629 0-4.789-2.16-4.789-4.789v-3.756c0-2.629 2.16-4.789 4.789-4.789h3.756c2.629 0 4.789 2.16 4.789 4.789v3.756c0 2.629-2.066 4.789-4.695 4.789M21.878 40h-3.756c-2.629 0-4.789-2.16-4.789-4.789v-3.756c0-2.629 2.16-4.789 4.789-4.789h3.756c2.629 0 4.789 2.16 4.789 4.789v3.756c0 2.723-2.066 4.789-4.789 4.789M8.545 26.667H4.789C2.16 26.667 0 24.507 0 21.878v-3.756c0-2.629 2.16-4.789 4.789-4.789h3.85c2.629 0 4.789 2.16 4.789 4.789v3.756c-.095 2.629-2.254 4.789-4.883 4.789m13.427-13.334h-3.85c-2.629 0-4.789-2.16-4.789-4.789V4.789C13.333 2.16 15.493 0 18.122 0h3.756c2.629 0 4.789 2.16 4.789 4.789v3.85c0 2.535-2.066 4.694-4.695 4.694"/>
    <path class="st1" d="M12.582 20H8.826c-2.629 0-4.789-2.066-4.789-4.695v-3.756c0-2.629 2.066-4.789 4.695-4.789h3.85c2.629 0 4.789 2.16 4.789 4.789v3.756c0 2.535-2.16 4.695-4.789 4.695"/>
    <path class="st1" d="M21.972 26.667h-3.85c-2.629 0-4.789-2.16-4.789-4.789v-3.756c0-2.629 2.16-4.789 4.789-4.789h3.756c2.629 0 4.789 2.16 4.789 4.789v3.756c0 2.629-2.066 4.789-4.695 4.789"/>
    <g class="st2">
			<defs>
				<path id="SVGID_1_" d="M4.038 20h13.333v13.333H4.038V20z"/>
			</defs>
      <clipPath id="SVGID_2_">
				<use xlink:href="#SVGID_1_" style="overflow:visible"/>
			</clipPath>
      <path class="st4" d="M12.582 33.333H8.826c-2.629 0-4.789-2.066-4.789-4.695v-3.944c0-2.629 2.16-4.789 4.789-4.789h3.756c2.629 0 4.789 2.16 4.789 4.789v3.85c0 2.724-2.16 4.789-4.789 4.789" style="clip-path:url(#SVGID_2_)"/>
		</g>
    <g class="st2">
			<defs>
				<path id="SVGID_3_" d="M22.629 20h13.333v13.333H22.629V20z"/>
			</defs>
      <clipPath id="SVGID_4_">
				<use xlink:href="#SVGID_3_" style="overflow:visible"/>
			</clipPath>
      <path class="st6" d="M31.268 33.333h-3.756c-2.629 0-4.789-2.16-4.789-4.789v-3.756c0-2.629 2.16-4.789 4.789-4.789h3.756c2.629 0 4.789 2.16 4.789 4.789v3.85c-.001 2.63-2.16 4.695-4.789 4.695" style="clip-path:url(#SVGID_4_)"/>
		</g>
    <g class="st2">
			<defs>
				<path id="SVGID_5_" d="M22.629 6.667h13.333V20H22.629V6.667z"/>
			</defs>
      <clipPath id="SVGID_6_">
				<use xlink:href="#SVGID_5_" style="overflow:visible"/>
			</clipPath>
      <path class="st8" d="M31.268 20h-3.756c-2.629 0-4.789-2.16-4.789-4.789v-3.756c0-2.629 2.16-4.789 4.789-4.789h3.756c2.629 0 4.789 2.16 4.789 4.789v3.756C35.962 17.84 33.897 20 31.268 20" style="clip-path:url(#SVGID_6_)"/>
		</g>
    <g class="st2">
			<defs>
				<path id="SVGID_7_" d="M26.667 13.333H40v13.334H26.667V13.333z"/>
			</defs>
      <clipPath id="SVGID_8_">
				<use xlink:href="#SVGID_7_" style="overflow:visible"/>
			</clipPath>
      <path class="st10" d="M35.305 26.667h-3.85c-2.629 0-4.789-2.16-4.789-4.789v-3.756c0-2.629 2.16-4.789 4.789-4.789h3.756c2.629 0 4.789 2.16 4.789 4.789v3.756c0 2.629-2.066 4.789-4.695 4.789" style="clip-path:url(#SVGID_8_)"/>
		</g>
    <g class="st2">
			<defs>
				<path id="SVGID_9_" d="M13.333 26.667h13.334V40H13.333V26.667z"/>
			</defs>
      <clipPath id="SVGID_10_">
				<use xlink:href="#SVGID_9_" style="overflow:visible"/>
			</clipPath>
      <path class="st12" d="M21.878 40h-3.756c-2.629 0-4.789-2.16-4.789-4.789v-3.756c0-2.629 2.16-4.789 4.789-4.789h3.756c2.629 0 4.789 2.16 4.789 4.789v3.756c0 2.723-2.066 4.789-4.789 4.789" style="clip-path:url(#SVGID_10_)"/>
		</g>
    <g class="st2">
			<defs>
				<path id="SVGID_11_" d="M0 13.333h13.333v13.334H0V13.333z"/>
			</defs>
      <clipPath id="SVGID_12_">
				<use xlink:href="#SVGID_11_" style="overflow:visible"/>
			</clipPath>
      <path class="st14" d="M8.545 26.667H4.789C2.16 26.667 0 24.507 0 21.878v-3.756c0-2.629 2.16-4.789 4.789-4.789h3.85c2.629 0 4.789 2.16 4.789 4.789v3.756c-.095 2.629-2.254 4.789-4.883 4.789" style="clip-path:url(#SVGID_12_)"/>
		</g>
    <g class="st2">
			<defs>
				<path id="SVGID_13_" d="M13.333 0h13.334v13.333H13.333V0z"/>
			</defs>
      <clipPath id="SVGID_14_">
				<use xlink:href="#SVGID_13_" style="overflow:visible"/>
			</clipPath>
      <path class="st16" d="M21.972 13.333h-3.85c-2.629 0-4.789-2.16-4.789-4.789V4.789C13.333 2.16 15.493 0 18.122 0h3.756c2.629 0 4.789 2.16 4.789 4.789v3.85c0 2.535-2.066 4.694-4.695 4.694" style="clip-path:url(#SVGID_14_)"/>
		</g>
    <g class="st2">
			<defs>
				<path id="SVGID_15_" d="M4.038 6.667h13.333V20H4.038V6.667z"/>
			</defs>
      <clipPath id="SVGID_16_">
				<use xlink:href="#SVGID_15_" style="overflow:visible"/>
			</clipPath>
      <path class="st18" d="M12.582 20H8.826c-2.629 0-4.789-2.066-4.789-4.695v-3.756c0-2.629 2.066-4.789 4.695-4.789h3.85c2.629 0 4.789 2.16 4.789 4.789v3.756c0 2.535-2.16 4.695-4.789 4.695" style="clip-path:url(#SVGID_16_)"/>
		</g>
    <g class="st2">
			<defs>
				<path id="SVGID_17_" d="M13.333 13.333h13.334v13.334H13.333V13.333z"/>
			</defs>
      <clipPath id="SVGID_18_">
				<use xlink:href="#SVGID_17_" style="overflow:visible"/>
			</clipPath>
      <path class="st20" d="M21.972 26.667h-3.85c-2.629 0-4.789-2.16-4.789-4.789v-3.756c0-2.629 2.16-4.789 4.789-4.789h3.756c2.629 0 4.789 2.16 4.789 4.789v3.756c0 2.629-2.066 4.789-4.695 4.789" style="clip-path:url(#SVGID_18_)"/>
		</g>
    <g class="st2">
			<defs>
				<path id="SVGID_19_" d="M4.038 20h13.333v13.333H4.038V20z"/>
			</defs>
      <clipPath id="SVGID_20_">
				<use xlink:href="#SVGID_19_" style="overflow:visible"/>
			</clipPath>
      <path class="st4" d="M12.582 33.333H8.826c-2.629 0-4.789-2.066-4.789-4.695v-3.944c0-2.629 2.16-4.789 4.789-4.789h3.756c2.629 0 4.789 2.16 4.789 4.789v3.85c0 2.724-2.16 4.789-4.789 4.789" style="clip-path:url(#SVGID_20_)"/>
		</g>
    <g class="st2">
			<defs>
				<path id="SVGID_21_" d="M22.629 20h13.333v13.333H22.629V20z"/>
			</defs>
      <clipPath id="SVGID_22_">
				<use xlink:href="#SVGID_21_" style="overflow:visible"/>
			</clipPath>
      <path class="st6" d="M31.268 33.333h-3.756c-2.629 0-4.789-2.16-4.789-4.789v-3.756c0-2.629 2.16-4.789 4.789-4.789h3.756c2.629 0 4.789 2.16 4.789 4.789v3.85c-.001 2.63-2.16 4.695-4.789 4.695" style="clip-path:url(#SVGID_22_)"/>
		</g>
    <g class="st2">
			<defs>
				<path id="SVGID_23_" d="M22.629 6.667h13.333V20H22.629V6.667z"/>
			</defs>
      <clipPath id="SVGID_24_">
				<use xlink:href="#SVGID_23_" style="overflow:visible"/>
			</clipPath>
      <path class="st8" d="M31.268 20h-3.756c-2.629 0-4.789-2.16-4.789-4.789v-3.756c0-2.629 2.16-4.789 4.789-4.789h3.756c2.629 0 4.789 2.16 4.789 4.789v3.756C35.962 17.84 33.897 20 31.268 20" style="clip-path:url(#SVGID_24_)"/>
		</g>
    <g class="st2">
			<defs>
				<path id="SVGID_25_" d="M26.667 13.333H40v13.334H26.667V13.333z"/>
			</defs>
      <clipPath id="SVGID_26_">
				<use xlink:href="#SVGID_25_" style="overflow:visible"/>
			</clipPath>
      <path class="st10" d="M35.305 26.667h-3.85c-2.629 0-4.789-2.16-4.789-4.789v-3.756c0-2.629 2.16-4.789 4.789-4.789h3.756c2.629 0 4.789 2.16 4.789 4.789v3.756c0 2.629-2.066 4.789-4.695 4.789" style="clip-path:url(#SVGID_26_)"/>
		</g>
    <g class="st2">
			<defs>
				<path id="SVGID_27_" d="M13.333 26.667h13.334V40H13.333V26.667z"/>
			</defs>
      <clipPath id="SVGID_28_">
				<use xlink:href="#SVGID_27_" style="overflow:visible"/>
			</clipPath>
      <path class="st12" d="M21.878 40h-3.756c-2.629 0-4.789-2.16-4.789-4.789v-3.756c0-2.629 2.16-4.789 4.789-4.789h3.756c2.629 0 4.789 2.16 4.789 4.789v3.756c0 2.723-2.066 4.789-4.789 4.789" style="clip-path:url(#SVGID_28_)"/>
		</g>
    <g class="st2">
			<defs>
				<path id="SVGID_29_" d="M0 13.333h13.333v13.334H0V13.333z"/>
			</defs>
      <clipPath id="SVGID_30_">
				<use xlink:href="#SVGID_29_" style="overflow:visible"/>
			</clipPath>
      <path class="st14" d="M8.545 26.667H4.789C2.16 26.667 0 24.507 0 21.878v-3.756c0-2.629 2.16-4.789 4.789-4.789h3.85c2.629 0 4.789 2.16 4.789 4.789v3.756c-.095 2.629-2.254 4.789-4.883 4.789" style="clip-path:url(#SVGID_30_)"/>
		</g>
    <g class="st2">
			<defs>
				<path id="SVGID_31_" d="M13.333 0h13.334v13.333H13.333V0z"/>
			</defs>
      <clipPath id="SVGID_32_">
				<use xlink:href="#SVGID_31_" style="overflow:visible"/>
			</clipPath>
      <path class="st16" d="M21.972 13.333h-3.85c-2.629 0-4.789-2.16-4.789-4.789V4.789C13.333 2.16 15.493 0 18.122 0h3.756c2.629 0 4.789 2.16 4.789 4.789v3.85c0 2.535-2.066 4.694-4.695 4.694" style="clip-path:url(#SVGID_32_)"/>
		</g>
    <g class="st2">
			<defs>
				<path id="SVGID_33_" d="M4.038 6.667h13.333V20H4.038V6.667z"/>
			</defs>
      <clipPath id="SVGID_34_">
				<use xlink:href="#SVGID_33_" style="overflow:visible"/>
			</clipPath>
      <path class="st18" d="M12.582 20H8.826c-2.629 0-4.789-2.066-4.789-4.695v-3.756c0-2.629 2.066-4.789 4.695-4.789h3.85c2.629 0 4.789 2.16 4.789 4.789v3.756c0 2.535-2.16 4.695-4.789 4.695" style="clip-path:url(#SVGID_34_)"/>
		</g>
    <g class="st2">
			<defs>
				<path id="SVGID_35_" d="M13.333 13.333h13.334v13.334H13.333V13.333z"/>
			</defs>
      <clipPath id="SVGID_36_">
				<use xlink:href="#SVGID_35_" style="overflow:visible"/>
			</clipPath>
      <path class="st20" d="M21.972 26.667h-3.85c-2.629 0-4.789-2.16-4.789-4.789v-3.756c0-2.629 2.16-4.789 4.789-4.789h3.756c2.629 0 4.789 2.16 4.789 4.789v3.756c0 2.629-2.066 4.789-4.695 4.789" style="clip-path:url(#SVGID_36_)"/>
		</g>
	</g>
</svg>
