<svg xmlns="http://www.w3.org/2000/svg" width="30.444" height="33.827" viewBox="0 0 30.444 33.827">
  <defs>
    <style>
      .cls-1 {
        fill: #222628;
        fill-rule: evenodd;
      }
    </style>
  </defs>
  <path id="AddIcon" class="cls-1" d="M911.034,148.023c-.034.714-.034,1.571-.034,2.659v5.967c0,5.074,0,7.611,1.292,9.389a6.755,6.755,0,0,0,1.5,1.5c1.777,1.292,4.315,1.292,9.388,1.292h6.089c5.074,0,7.611,0,9.389-1.292a6.763,6.763,0,0,0,1.5-1.5c1.292-1.778,1.292-4.315,1.292-9.389v-9.471c0-5.074,0-7.611-1.292-9.389a6.763,6.763,0,0,0-1.5-1.5C936.877,135,934.34,135,929.266,135h-1.661c-.578,0-1.067,0-1.493.007v.059h0c0,2.319,0,4.15-.149,5.612a8.057,8.057,0,0,1-1.191,3.812,7.944,7.944,0,0,1-2.194,2.194,8.069,8.069,0,0,1-3.812,1.191c-1.461.149-3.291.149-5.612.149h-2.121Zm12.71-12.727a6.726,6.726,0,0,0-.668.244,14.227,14.227,0,0,0-3.031,2.09h0l-4.426,3.5h0c-2.013,1.595-3.019,2.392-3.654,3.449a6.657,6.657,0,0,0-.522,1.072h1.645c2.4,0,4.112,0,5.439-.137a5.781,5.781,0,0,0,2.737-.8,5.585,5.585,0,0,0,1.539-1.541,5.772,5.772,0,0,0,.8-2.737C923.737,139.166,923.744,137.542,923.744,135.3Zm7.044,21.691a1.183,1.183,0,0,1-1.184,1.184h-2.2v2.2a1.184,1.184,0,1,1-2.368,0v-2.2h-2.2a1.184,1.184,0,0,1,0-2.368h2.2v-2.2a1.184,1.184,0,1,1,2.368,0v2.2h2.2A1.183,1.183,0,0,1,930.788,156.987Z" transform="translate(-911 -135)"/>
</svg>
