<svg xmlns="http://www.w3.org/2000/svg" width="39.389" height="36.593" viewBox="0 0 39.389 36.593">
  <g id="AddPersonIcon" transform="translate(-1884.411 -5627.383)">
    <g id="Group_8559" transform="translate(1884.411 5627.383)">
      <path id="Union_13"  d="M14.182,36.593H6.774c-.618,0-.929,0-1.185-.018A6.1,6.1,0,0,1,0,30.383c.005-.257.039-.567.1-1.18.068-.668.106-1,.145-1.23a5.946,5.946,0,0,1,6.018-5.008c.232,0,.616.033,1.379.093,2.261.179,4.759.323,6.947.323,2.074,0,4.3-.129,6.305-.3.764-.06,1.148-.093,1.359-.1a5.9,5.9,0,0,1,6,4.628c.049.207.1.524.21,1.154s.168.928.189,1.185a6.107,6.107,0,0,1-5.57,6.627c-.251.018-.563.018-1.2.018Zm-.611-22.362a6.1,6.1,0,0,1-6.1-6.1V7.118a7.116,7.116,0,1,1,14.231,0V8.131a6.1,6.1,0,0,1-6.1,6.1ZM32.481,12.2V9.555H29.838a1.422,1.422,0,1,1,0-2.843h2.643V4.068a1.422,1.422,0,1,1,2.844,0V6.712H37.97a1.422,1.422,0,0,1,0,2.843H35.326V12.2a1.422,1.422,0,1,1-2.844,0Z" transform="translate(0 0)" fill=""/>
    </g>
  </g>
</svg>
