<svg xmlns="http://www.w3.org/2000/svg" width="32.349" height="27.651" viewBox="0 0 32.349 27.651">
  <defs>
    <style>
      .cls-1 {
        fill: #222628;
      }
    </style>
  </defs>
  <path id="AlertTriangleIcon" class="cls-1" d="M975.935,249.51c1.844-3.017,2.767-4.526,4.057-4.795a3.044,3.044,0,0,1,1.236,0c1.293.269,2.214,1.778,4.058,4.795l8.834,14.454c1.987,3.252,2.982,4.878,2.576,6.19a3.025,3.025,0,0,1-.626,1.118c-.91,1.03-2.814,1.03-6.625,1.03H971.777c-3.81,0-5.716,0-6.625-1.03a3.036,3.036,0,0,1-.628-1.118c-.4-1.312.589-2.938,2.576-6.19Zm4.676,4.7a1.184,1.184,0,0,1,1.184,1.184v6.765a1.184,1.184,0,0,1-2.368,0v-6.765A1.183,1.183,0,0,1,980.611,254.205Zm0,13.023a1.184,1.184,0,1,0-1.184-1.184A1.184,1.184,0,0,0,980.611,267.228Z" style="fill-rule: evenodd" transform="translate(-964.436 -244.651)"/>
</svg>
