<svg id="AlertSquareIcon" xmlns="http://www.w3.org/2000/svg" width="33.826" height="33.827" viewBox="0 0 33.826 33.827">
  <defs>
    <style>
      .cls-1 {
        fill: #222628;
      }
    </style>
  </defs>
  <path id="Path_6860" data-name="Path 6860" style="fill-rule: evenodd" class="cls-1" d="M694,151.913c0-6.322,0-9.485,1.36-11.839a10.133,10.133,0,0,1,3.714-3.714c2.354-1.36,5.517-1.36,11.839-1.36s9.485,0,11.839,1.36a10.132,10.132,0,0,1,3.714,3.714c1.36,2.354,1.36,5.517,1.36,11.839s0,9.485-1.36,11.839a10.132,10.132,0,0,1-3.714,3.714c-2.354,1.36-5.517,1.36-11.839,1.36s-9.485,0-11.839-1.36a10.133,10.133,0,0,1-3.714-3.714C694,161.4,694,158.236,694,151.913Zm18.238-7.9a1.324,1.324,0,1,1-1.324-1.326A1.324,1.324,0,0,1,712.238,144.011Zm-.141,5.082a1.184,1.184,0,0,0-2.368,0v9.4a1.184,1.184,0,0,0,2.368,0Z" transform="translate(-694 -135)"/>
</svg>
