<svg xmlns="http://www.w3.org/2000/svg" width="32.98" height="32.979" viewBox="0 0 32.98 32.979">
  <path id="ArrowFillRoundIcon" d="M132.98,754.49a16.49,16.49,0,1,0-16.49,16.49A16.489,16.489,0,0,0,132.98,754.49Zm-9.861-.877a1.154,1.154,0,1,0-1.715-1.544h0l0,0-.012.011-.043.048-.163.181c-.143.157-.346.381-.594.649-.493.538-1.154,1.253-1.834,1.969s-1.37,1.422-1.916,1.943c-.129.122-.246.231-.35.325-.1-.094-.221-.2-.35-.325-.546-.521-1.233-1.225-1.916-1.943s-1.341-1.431-1.834-1.969c-.247-.268-.45-.493-.594-.649l-.163-.181-.043-.048-.012-.011,0,0h0a1.154,1.154,0,1,0-1.715,1.544h0v0l0,0,.012.013.045.049.168.185c.143.159.35.386.6.658.5.544,1.171,1.271,1.862,2s1.408,1.464,2,2.025c.292.279.571.531.806.719a3.686,3.686,0,0,0,.376.269,1.809,1.809,0,0,0,.256.13,1.287,1.287,0,0,0,1.006,0,1.807,1.807,0,0,0,.256-.13,3.688,3.688,0,0,0,.376-.269c.236-.188.514-.44.806-.719.59-.561,1.309-1.3,2-2.025s1.364-1.454,1.862-2c.251-.272.457-.5.6-.658l.168-.185.045-.049.012-.013,0,0v0Z" transform="translate(-100 -738)"  fill-rule="evenodd"/>
</svg>
