<svg xmlns="http://www.w3.org/2000/svg" width="39.383" height="39.383" viewBox="0 0 39.383 39.383">
  <g id="ArrowOutlineSquareIcon" transform="translate(38.683 38.683) rotate(180)">
    <path id="Rectangle_21247" data-name="Rectangle 21247" d="M14.341,0h10.7A14.357,14.357,0,0,1,39.383,14.341v10.7A14.357,14.357,0,0,1,25.043,39.383h-10.7A14.357,14.357,0,0,1,0,25.043v-10.7A14.357,14.357,0,0,1,14.341,0Zm10.7,36.387A11.357,11.357,0,0,0,36.387,25.043v-10.7A11.357,11.357,0,0,0,25.043,3h-10.7A11.357,11.357,0,0,0,3,14.341v10.7A11.357,11.357,0,0,0,14.341,36.387Z" transform="translate(-0.7 38.683) rotate(-90)" />
    <path id="Tracé_6324" data-name="Tracé 6324" d="M53.3,748.693a1.5,1.5,0,0,1-1.113-2.5c.015-.016,1.47-1.633,2.986-3.228.9-.946,1.647-1.7,2.222-2.252,1.046-1,1.6-1.413,2.3-1.413s1.256.417,2.3,1.413c.575.548,1.323,1.305,2.222,2.252,1.516,1.6,2.971,3.212,2.986,3.228a1.5,1.5,0,1,1-2.227,2c-1.886-2.095-4.147-4.485-5.283-5.541-1.136,1.056-3.4,3.446-5.283,5.541A1.5,1.5,0,0,1,53.3,748.693Z" transform="translate(-40.621 -726.458)"/>
  </g>
</svg>
