<svg xmlns="http://www.w3.org/2000/svg" width="32.98" height="32.979" viewBox="0 0 32.98 32.979">
  <path id="ArrowFillSquareIcon" d="M74.033,739.326C71.737,738,68.655,738,62.49,738s-9.247,0-11.543,1.326a9.887,9.887,0,0,0-3.622,3.621C46,745.242,46,748.326,46,754.49s0,9.247,1.325,11.543a9.888,9.888,0,0,0,3.622,3.621c2.3,1.326,5.378,1.326,11.543,1.326s9.247,0,11.543-1.326a9.888,9.888,0,0,0,3.622-3.621c1.325-2.3,1.325-5.379,1.325-11.543s0-9.247-1.325-11.543A9.887,9.887,0,0,0,74.033,739.326ZM69.12,753.613a1.154,1.154,0,1,0-1.716-1.544h0l0,0-.011.011-.043.048-.164.181c-.142.157-.346.381-.592.649-.493.538-1.156,1.253-1.835,1.969s-1.369,1.422-1.916,1.943c-.128.122-.245.231-.349.325-.1-.094-.221-.2-.349-.325-.547-.521-1.234-1.225-1.916-1.943s-1.341-1.431-1.835-1.969c-.247-.268-.45-.493-.592-.649l-.164-.181-.043-.048-.011-.011,0,0h0a1.154,1.154,0,1,0-1.716,1.544h0v0l0,0,.012.013.044.049.168.185c.144.159.351.386.6.658.5.544,1.171,1.271,1.863,2s1.408,1.464,2,2.025c.292.279.571.531.807.719a3.656,3.656,0,0,0,.377.269,1.789,1.789,0,0,0,.255.13,1.29,1.29,0,0,0,1.007,0,1.789,1.789,0,0,0,.255-.13,3.66,3.66,0,0,0,.377-.269c.236-.188.514-.44.807-.719.589-.561,1.309-1.3,2-2.025s1.364-1.454,1.863-2c.249-.272.456-.5.6-.658l.168-.185.044-.049.012-.013,0,0v0h0Z" transform="translate(-46 -738)"  fill-rule="evenodd"/>
</svg>
