<svg xmlns="http://www.w3.org/2000/svg" width="25" height="42.083" viewBox="0 0 25 42.083">
	<path id="BookMarkIcon" d="M-9382.205,858.083c-.1,0-.209,0-.314-.013-1.52-.124-3.17-2.2-6.455-6.335l-.01-.011c-.92-1.163-1.381-1.745-1.986-1.9a2.124,2.124,0,0,0-.531-.067,2.078,2.078,0,0,0-.525.067c-.609.16-1.068.742-1.988,1.9-3.293,4.143-4.943,6.222-6.465,6.346-.1.009-.207.013-.311.013a3.607,3.607,0,0,1-2.025-.608c-1.184-.808-1.184-3.308-1.184-8.289V826.5c0-2.789,0-4.189.436-5.32a8.379,8.379,0,0,1,5.736-4.814c1.344-.367,3.012-.367,6.332-.367s4.98,0,6.324.367a8.38,8.38,0,0,1,5.736,4.814c.436,1.13.436,2.53.436,5.32v22.686c0,4.981,0,7.481-1.184,8.289A3.589,3.589,0,0,1-9382.205,858.083Zm-9.3-20.863a1.8,1.8,0,0,1,.654.123l2.027.793a1.789,1.789,0,0,0,.648.124,1.819,1.819,0,0,0,1.314-.569,1.778,1.778,0,0,0,.488-1.339l-.125-2.166a1.805,1.805,0,0,1,.4-1.245l1.377-1.681a1.792,1.792,0,0,0,.316-1.7,1.79,1.79,0,0,0-1.252-1.18l-2.1-.55a1.813,1.813,0,0,1-1.055-.769l-1.176-1.829a1.8,1.8,0,0,0-1.518-.829,1.791,1.791,0,0,0-1.512.829l-1.176,1.829a1.814,1.814,0,0,1-1.055.769l-2.1.55a1.786,1.786,0,0,0-1.254,1.18,1.792,1.792,0,0,0,.316,1.7l1.379,1.681a1.788,1.788,0,0,1,.4,1.245l-.125,2.166a1.79,1.79,0,0,0,.486,1.337,1.823,1.823,0,0,0,1.313.571,1.792,1.792,0,0,0,.65-.123l2.029-.793A1.782,1.782,0,0,1-9391.5,837.219Z" transform="translate(9404 -816)" fill=""/>
</svg>
