<svg xmlns="http://www.w3.org/2000/svg" width="38.243" height="40.976" viewBox="0 0 38.243 40.976">
  <g id="business" transform="translate(0)">
    <path id="Path_3779" data-name="Path 3779" d="M66.146,29.658H56.585V20.1a4.1,4.1,0,0,0-4.1-4.1H36.1A4.1,4.1,0,0,0,32,20.1V55.61a1.366,1.366,0,0,0,1.366,1.366h8.878a.683.683,0,0,0,.683-.683V50.185a1.393,1.393,0,0,1,1.3-1.4,1.366,1.366,0,0,1,1.432,1.364v6.146a.683.683,0,0,0,.683.683H68.878a1.366,1.366,0,0,0,1.366-1.366V33.756A4.1,4.1,0,0,0,66.146,29.658ZM37.641,51.5a1.366,1.366,0,1,1,1.177-1.177A1.366,1.366,0,0,1,37.641,51.5Zm0-6.829a1.366,1.366,0,1,1,1.177-1.177A1.366,1.366,0,0,1,37.641,44.672Zm0-6.829a1.366,1.366,0,1,1,1.177-1.177A1.366,1.366,0,0,1,37.641,37.842Zm0-6.829a1.366,1.366,0,1,1,1.177-1.177A1.366,1.366,0,0,1,37.641,31.013Zm0-6.829a1.366,1.366,0,1,1,1.177-1.177A1.366,1.366,0,0,1,37.641,24.184ZM44.47,44.672a1.366,1.366,0,1,1,1.177-1.177A1.366,1.366,0,0,1,44.47,44.672Zm0-6.829a1.366,1.366,0,1,1,1.177-1.177A1.366,1.366,0,0,1,44.47,37.842Zm0-6.829a1.366,1.366,0,1,1,1.177-1.177A1.366,1.366,0,0,1,44.47,31.013Zm0-6.829a1.366,1.366,0,1,1,1.177-1.177A1.366,1.366,0,0,1,44.47,24.184ZM51.3,51.5a1.366,1.366,0,1,1,1.177-1.177A1.366,1.366,0,0,1,51.3,51.5Zm0-6.829a1.366,1.366,0,1,1,1.177-1.177A1.366,1.366,0,0,1,51.3,44.672Zm0-6.829a1.366,1.366,0,1,1,1.177-1.177A1.366,1.366,0,0,1,51.3,37.842Zm0-6.829a1.366,1.366,0,1,1,1.177-1.177A1.366,1.366,0,0,1,51.3,31.013Zm0-6.829a1.366,1.366,0,1,1,1.177-1.177A1.366,1.366,0,0,1,51.3,24.184ZM67.17,54.244H56.585V32.39h9.561a1.366,1.366,0,0,1,1.366,1.366V53.9A.341.341,0,0,1,67.17,54.244Z" transform="translate(-32 -16)" fill=""/>
    <path id="Path_3780" data-name="Path 3780" d="M385.366,400a1.366,1.366,0,1,0,1.366,1.366A1.366,1.366,0,0,0,385.366,400Z" transform="translate(-353.952 -367.22)" fill=""/>
    <path id="Path_3781" data-name="Path 3781" d="M385.366,320a1.366,1.366,0,1,0,1.366,1.366A1.366,1.366,0,0,0,385.366,320Z" transform="translate(-353.952 -294.049)" fill=""/>
    <path id="Path_3782" data-name="Path 3782" d="M385.366,240a1.366,1.366,0,1,0,1.366,1.366A1.366,1.366,0,0,0,385.366,240Z" transform="translate(-353.952 -220.878)" fill=""/>
    <path id="Path_3783" data-name="Path 3783" d="M321.366,400a1.366,1.366,0,1,0,1.366,1.366A1.366,1.366,0,0,0,321.366,400Z" transform="translate(-295.415 -367.22)" fill=""/>
    <path id="Path_3784" data-name="Path 3784" d="M321.366,320a1.366,1.366,0,1,0,1.366,1.366A1.366,1.366,0,0,0,321.366,320Z" transform="translate(-295.415 -294.049)" fill=""/>
    <path id="Path_3785" data-name="Path 3785" d="M321.366,240a1.366,1.366,0,1,0,1.366,1.366A1.366,1.366,0,0,0,321.366,240Z" transform="translate(-295.415 -220.878)" fill=""/>
  </g>
</svg>
