<svg id="CalendarIcon" xmlns="http://www.w3.org/2000/svg" width="36.813" height="36.813" viewBox="0 0 36.813 36.813">
  <defs>
    <style>
      .cls-1 {
        fill: #2c2c2c;
      }
    </style>
  </defs>
  <path id="Path_6910" style="fill-rule: evenodd" data-name="Path 6910" class="cls-1" d="M100.107,525.492c-.107,1.546-.107,3.484-.107,6.074,0,5.146,0,7.718.841,9.748a11.047,11.047,0,0,0,5.977,5.977c2.03.841,4.6.841,9.748.841h3.681c1.655,0,3.043,0,4.233-.028v-.02h0c0-1.675,0-3,.074-4.068a8.9,8.9,0,0,1,.585-2.877,8.654,8.654,0,0,1,4.681-4.68,8.9,8.9,0,0,1,2.877-.585c1.069-.074,2.393-.074,4.068-.074h.02c.028-1.191.028-2.579.028-4.233,0-2.59,0-4.528-.107-6.074Zm.372-2.577h35.855a8.088,8.088,0,0,0-.363-1.1,11.046,11.046,0,0,0-5.977-5.977c-2.03-.841-4.6-.841-9.748-.841h-3.681c-5.146,0-7.718,0-9.748.841a11.046,11.046,0,0,0-5.977,5.977A8.09,8.09,0,0,0,100.479,522.915Zm29.516,24.376a10.264,10.264,0,0,1-2.938.672c0-1.646,0-2.831.066-3.771a6.486,6.486,0,0,1,.4-2.065,6.083,6.083,0,0,1,3.287-3.287,6.484,6.484,0,0,1,2.065-.4c.941-.062,2.126-.066,3.771-.066a10.255,10.255,0,0,1-.672,2.938A11.046,11.046,0,0,1,129.995,547.291Zm-22.632-17.014a1.289,1.289,0,0,0,0,2.577h.92a1.289,1.289,0,0,0,0-2.577Zm8.835,1.289a1.288,1.288,0,0,1,1.288-1.289h.92a1.289,1.289,0,0,1,0,2.577h-.92A1.288,1.288,0,0,1,116.2,531.566Zm11.412-1.289a1.289,1.289,0,0,0,0,2.577h.92a1.289,1.289,0,0,0,0-2.577Zm-21.535,10.492a1.288,1.288,0,0,1,1.288-1.289h.92a1.289,1.289,0,0,1,0,2.577h-.92A1.287,1.287,0,0,1,106.074,540.769Zm11.412-1.289a1.289,1.289,0,0,0,0,2.577h.92a1.289,1.289,0,0,0,0-2.577Z" transform="translate(-100 -511.319)"/>
  <path id="Path_6911" style="fill-rule: evenodd" data-name="Path 6911" class="cls-1" d="M115.288,513a1.287,1.287,0,0,1,1.288,1.288v4.786a1.288,1.288,0,0,1-2.577,0v-4.786A1.288,1.288,0,0,1,115.288,513Z" transform="translate(-88.231 -513)"/>
  <path id="Path_6912" style="fill-rule: evenodd" data-name="Path 6912" class="cls-1" d="M106.288,513a1.287,1.287,0,0,1,1.288,1.288v4.786a1.288,1.288,0,0,1-2.577,0v-4.786A1.287,1.287,0,0,1,106.288,513Z" transform="translate(-95.795 -513)"/>
</svg>
