<svg id="CalendarSquareIcon" xmlns="http://www.w3.org/2000/svg" width="33.827" height="33.826" viewBox="0 0 33.827 33.826">
  <defs>
    <style>
      .cls-1 {
      }
    </style>
  </defs>
  <path id="Path_6815" style="fill-rule: evenodd"   class="cls-1" d="M46.1,524.641c-.1,1.421-.1,3.2-.1,5.581,0,4.729,0,7.092.772,8.957a10.149,10.149,0,0,0,5.492,5.492c1.865.773,4.229.773,8.957.773H64.6c4.728,0,7.093,0,8.957-.773a10.149,10.149,0,0,0,5.492-5.492c.772-1.866.772-4.228.772-8.957,0-2.38,0-4.161-.1-5.581Zm.342-2.368H79.386a7.333,7.333,0,0,0-.332-1.008,10.149,10.149,0,0,0-5.492-5.492C71.7,515,69.333,515,64.6,515H61.222c-4.728,0-7.093,0-8.957.773a10.149,10.149,0,0,0-5.492,5.492A7.33,7.33,0,0,0,46.44,522.273Zm5.141,7.949a1.183,1.183,0,0,1,1.184-1.184h1.691a1.184,1.184,0,1,1,0,2.368H52.765A1.184,1.184,0,0,1,51.581,530.222Zm19.789-1.184a1.184,1.184,0,1,0,0,2.368h1.691a1.184,1.184,0,0,0,0-2.368Zm-10.486,1.184a1.183,1.183,0,0,1,1.184-1.184h1.691a1.184,1.184,0,1,1,0,2.368H62.068A1.184,1.184,0,0,1,60.884,530.222ZM52.765,535.8a1.184,1.184,0,0,0,0,2.368h1.691a1.184,1.184,0,0,0,0-2.368Zm17.421,1.184A1.184,1.184,0,0,1,71.37,535.8h1.691a1.184,1.184,0,0,1,0,2.368H71.37A1.184,1.184,0,0,1,70.186,536.987ZM62.068,535.8a1.184,1.184,0,0,0,0,2.368h1.691a1.184,1.184,0,0,0,0-2.368Z" transform="translate(-46 -511.617)"/>
  <path id="Path_6816" style="fill-rule: evenodd" class="cls-1" d="M61.184,513a1.184,1.184,0,0,1,1.184,1.184v4.4a1.184,1.184,0,0,1-2.368,0v-4.4A1.184,1.184,0,0,1,61.184,513Z" transform="translate(-36.321 -513)"/>
  <path id="Path_6817" style="fill-rule: evenodd"  class="cls-1" d="M52.184,513a1.184,1.184,0,0,1,1.184,1.184v4.4a1.184,1.184,0,0,1-2.368,0v-4.4A1.184,1.184,0,0,1,52.184,513Z" transform="translate(-42.542 -513)"/>
</svg>
