<svg xmlns="http://www.w3.org/2000/svg" width="37.759" height="37.763" viewBox="0 0 37.759 37.763">
  <defs>
    <style>
      .cls-1 {

      }
    </style>
  </defs>
  <path id="CameraIcon" class="cls-1" d="M10.22,37.763A10.233,10.233,0,0,1,0,27.541V10.225A10.234,10.234,0,0,1,10.22,0h17.32a10.232,10.232,0,0,1,10.22,10.225V27.541a10.23,10.23,0,0,1-10.22,10.223ZM8.557,18.882A10.323,10.323,0,1,0,18.882,8.557,10.338,10.338,0,0,0,8.557,18.882ZM26.4,7.941A3.051,3.051,0,1,0,29.451,4.89,3.055,3.055,0,0,0,26.4,7.941ZM11.442,18.556a7.787,7.787,0,1,1,7.784,7.789A7.793,7.793,0,0,1,11.442,18.556Z"/>
</svg>
