<svg id="noun_Cars_776598" xmlns="http://www.w3.org/2000/svg" width="39.907" height="31.744" viewBox="0 0 39.907 31.744">
  <path id="Path_7576" d="M1,41.145v-1.48a2.059,2.059,0,0,1,2.027-2.033H3.8a3.507,3.507,0,0,1,2.328,1.053,43.235,43.235,0,0,1,3.023-6.393,6.993,6.993,0,0,1,4.813-2.8,40.249,40.249,0,0,1,7-.506h0a40.249,40.249,0,0,1,6.988.453,6.993,6.993,0,0,1,4.813,2.8,43.5,43.5,0,0,1,3.023,6.393A3.507,3.507,0,0,1,38.11,37.58h.769a2.059,2.059,0,0,1,2.027,2.033c0,.437,0,.906,0,1.48A2.143,2.143,0,0,1,38.8,43.2H37.784q.158.211.3.427a8.731,8.731,0,0,1,1.438,5.04v9.953a2.106,2.106,0,0,1-2.106,2.106H34.756a2.106,2.106,0,0,1-2.106-2.106v-1.58H9.236v1.58A2.106,2.106,0,0,1,7.13,60.725H4.46a2.106,2.106,0,0,1-2.106-2.106V48.713a8.731,8.731,0,0,1,1.438-5.04q.142-.216.3-.427H3.106A2.143,2.143,0,0,1,1,41.145Zm26.136,7a1.622,1.622,0,0,0,1.617,1.622H32.6a1.622,1.622,0,0,0,1.58-1.622v-1a1.617,1.617,0,0,0-2.027-1.58l-3.813,1a1.617,1.617,0,0,0-1.19,1.58Zm-19.432,0A1.617,1.617,0,0,0,9.32,49.771h3.813a1.617,1.617,0,0,0,.411-3.16l-3.813-1A1.617,1.617,0,0,0,7.7,47.191Z" transform="translate(-1 -28.981)" />
</svg>
