<svg id="CartIcon" xmlns="http://www.w3.org/2000/svg" width="39.282" height="34.244" viewBox="0 0 39.282 34.244">
  <defs>
    <style>
      .cls-1, .cls-2 {
        fill: #222628;
      }

      .cls-1 {
        fill-rule: evenodd;
      }
    </style>
  </defs>
  <g id="Group_8102" data-name="Group 8102" transform="translate(0 0)">
    <path id="Path_7077" style="fill-rule: evenodd" data-name="Path 7077" class="cls-1" d="M423.5,137.507a1.008,1.008,0,0,1,1.007-1.007h3.9a3.019,3.019,0,0,1,2.591,1.467l2.435,4.059-1.728,1.035L429.267,139a1.01,1.01,0,0,0-.864-.49h-3.9A1.008,1.008,0,0,1,423.5,137.507Z" transform="translate(-423.5 -136.5)"/>
    <path id="Path_7078" data-name="Path 7078" class="cls-2" d="M442.529,153.514a2.015,2.015,0,1,1-2.015-2.014A2.015,2.015,0,0,1,442.529,153.514Z" transform="translate(-408.282 -121.285)"/>
    <path id="Path_7079" data-name="Path 7079" class="cls-2" d="M435.529,153.514a2.015,2.015,0,1,1-2.014-2.014A2.015,2.015,0,0,1,435.529,153.514Z" transform="translate(-415.385 -121.285)"/>
    <path id="Path_7080" style="fill-rule: evenodd" data-name="Path 7080" class="cls-1" d="M447.846,139H427.5l1.587,12.637c.506,4.011.758,6.017,1.92,7.387a6.03,6.03,0,0,0,1.305,1.152c1.5.983,3.528.983,7.568.983h7.965c4.533,0,6.8,0,8.386-1.154a6.016,6.016,0,0,0,1.338-1.338c1.154-1.587,1.154-3.854,1.154-8.386v-.4c0-4.533,0-6.8-1.154-8.386a6.014,6.014,0,0,0-1.338-1.338C454.645,139,452.379,139,447.846,139Zm3.828,10.072a1.007,1.007,0,1,0,0-2.015H445.63a1.007,1.007,0,0,0,0,2.015Z" transform="translate(-419.443 -133.966)"/>
  </g>
</svg>
