<svg xmlns="http://www.w3.org/2000/svg" width="30.444" height="33.827" viewBox="0 0 30.444 33.827">
  <defs>

  </defs>
  <path id="CheckListIcon" style="fill-rule: evenodd" d="M1073,366.222c0-5.529,0-8.294,1.133-10.378a9.4,9.4,0,0,1,3.7-3.706c2.1-1.138,4.854-1.138,10.385-1.138s8.287,0,10.385,1.138a9.4,9.4,0,0,1,3.7,3.706c1.133,2.083,1.133,4.849,1.133,10.378V369.6c0,5.529,0,8.294-1.133,10.378a9.4,9.4,0,0,1-3.7,3.706c-2.1,1.138-4.854,1.138-10.385,1.138s-8.288,0-10.385-1.138a9.4,9.4,0,0,1-3.7-3.706C1073,377.9,1073,375.134,1073,369.6Zm10.977-5.884a1.183,1.183,0,1,1,1.725,1.62l-.863-.81Zm.863.81.863.81h0v0l-.017.007-.017.029-.1.108c-.085.093-.22.227-.372.386l-1.116,1.172c-.406.426-.845.859-1.184,1.189-.169.162-.321.313-.456.428a2.527,2.527,0,0,1-.22.176,1.03,1.03,0,0,1-.186.112v0a1.216,1.216,0,0,1-.575.145,1.317,1.317,0,0,1-.626-.166v0a1.224,1.224,0,0,1-.219-.149,3.6,3.6,0,0,1-.321-.271c-.187-.183-.423-.416-.626-.633s-.406-.438-.541-.6c-.084-.081-.135-.151-.186-.2l-.051-.056v-.015l-.017,0v0h0l.9-.781-.9.781a1.189,1.189,0,0,1,1.793-1.563h0v0l.017.012.034.052a2.063,2.063,0,0,1,.169.186c.135.154.322.359.507.562l.068.069c.271-.272.592-.6.913-.929l1.116-1.154c.153-.157.271-.289.355-.381l.1-.106.017-.029.017-.007v0h0Zm0,11.839.863.81a1.183,1.183,0,1,0-1.725-1.62Zm0,0,.863.81h0v0l-.017.007-.017.029-.1.108c-.085.093-.22.227-.372.386l-1.116,1.172c-.406.426-.845.859-1.184,1.189-.169.162-.321.313-.456.428a2.487,2.487,0,0,1-.22.176,1.033,1.033,0,0,1-.186.112v0a1.218,1.218,0,0,1-.575.145,1.317,1.317,0,0,1-.626-.166v0a1.225,1.225,0,0,1-.219-.149,3.6,3.6,0,0,1-.321-.271c-.187-.183-.423-.416-.626-.633s-.406-.438-.541-.6c-.084-.081-.135-.151-.186-.2l-.051-.056v-.015l-.017,0v0h0l.9-.781-.9.781a1.189,1.189,0,0,1,1.793-1.563h0v.005l.017.012.034.052a2.053,2.053,0,0,1,.169.186c.135.154.322.359.507.562l.068.069c.271-.272.592-.6.913-.929l1.116-1.153c.153-.157.271-.289.355-.381l.1-.106.017-.029.017-.007v0h0Zm13.023,2.537a1.18,1.18,0,0,1-1.184,1.184h-6.766a1.184,1.184,0,0,1,0-2.368h6.766A1.18,1.18,0,0,1,1097.862,375.524Zm-1.184-10.655a1.184,1.184,0,0,0,0-2.368h-6.766a1.184,1.184,0,0,0,0,2.368Z" transform="translate(-1073 -351)"/>
</svg>
