<svg xmlns="http://www.w3.org/2000/svg" width="30.444" height="33.827" viewBox="0 0 30.444 33.827">
  <defs>
    <style>
      .cls-1 {
        fill: #222628;
        fill-rule: evenodd;
      }
    </style>
  </defs>
  <path id="CheckFileIcon" class="cls-1" d="M1019,150.682c0-1.088,0-1.945.034-2.659h2.114c2.334,0,4.161,0,5.615-.149a8.087,8.087,0,0,0,3.822-1.191,7.925,7.925,0,0,0,2.182-2.194,8.029,8.029,0,0,0,1.2-3.812c.152-1.461.152-3.293.152-5.612h0v-.059c.423-.007.914-.007,1.489-.007h1.658c5.074,0,7.611,0,9.387,1.292a6.913,6.913,0,0,1,1.5,1.5c1.286,1.778,1.286,4.315,1.286,9.389v9.471c0,5.074,0,7.611-1.286,9.389a6.913,6.913,0,0,1-1.5,1.5c-1.776,1.292-4.313,1.292-9.387,1.292h-6.089c-5.074,0-7.611,0-9.386-1.292a6.9,6.9,0,0,1-1.505-1.5c-1.285-1.778-1.285-4.315-1.285-9.389Zm12.076-15.143a6.116,6.116,0,0,1,.676-.244c0,2.246-.017,3.87-.152,5.142a5.06,5.06,0,0,1-2.334,4.277,5.81,5.81,0,0,1-2.74.8c-1.319.135-3.044.137-5.429.137h-1.658a8.063,8.063,0,0,1,.525-1.072c.642-1.057,1.641-1.854,3.653-3.449h0l4.432-3.5h0A13.885,13.885,0,0,1,1031.076,135.54Zm8.321,18.772a1.182,1.182,0,1,0-1.894-1.414l-.22.288c-.135.184-.338.448-.575.764-.474.633-1.116,1.475-1.759,2.315s-1.3,1.679-1.81,2.3l-.1.134c-.1-.1-.187-.215-.287-.328-.254-.3-.508-.6-.677-.822-.1-.113-.169-.206-.219-.272l-.068-.076-.017-.019v-.005a1.185,1.185,0,0,0-1.861,1.468v.007l.017.022.068.081c.068.069.135.167.237.286.186.235.44.55.728.868.254.315.558.646.812.907a3.77,3.77,0,0,0,.389.369,2.935,2.935,0,0,0,.271.186,1.336,1.336,0,0,0,.66.184,1.169,1.169,0,0,0,.507-.112.761.761,0,0,0,.2-.115,1.206,1.206,0,0,0,.2-.161,2.477,2.477,0,0,0,.287-.293c.186-.208.423-.492.693-.814.524-.648,1.2-1.5,1.844-2.351.66-.851,1.3-1.7,1.776-2.336.237-.318.44-.584.575-.77Z" transform="translate(-1019 -135)"/>
</svg>
