<svg xmlns="http://www.w3.org/2000/svg" width="34.865" height="31.728" viewBox="0 0 34.865 31.728">
  <defs>
    <style>
      .cls-1 {
        fill: #222628;
      }
    </style>
  </defs>
  <g id="CloudUploadIcon" transform="translate(0)">
    <path id="Path_6861" style="fill-rule: evenodd" data-name="Path 6861" class="cls-1" d="M704.52,373.454a1.22,1.22,0,0,1-1.22-1.22v-5.239h2.441v5.239A1.22,1.22,0,0,1,704.52,373.454Z" transform="translate(-687.089 -341.726)"/>
    <path id="Path_6862" style="fill-rule: evenodd" data-name="Path 6862" class="cls-1" d="M714.319,375.154l-1.667-1.667v4.29h8.166a5.731,5.731,0,0,0,2.088-.338c1.935-.751,5.958-2.871,5.958-7.507,0-4.428-2.754-6.56-4.266-7.73-.57-.443-.964-.748-.964-.987,0-.872-2.151-8.716-12.2-8.716s-12.2,7.845-12.2,8.716c0,.239-.394.544-.964.987-1.511,1.17-4.266,3.3-4.266,7.73,0,4.635,4.023,6.755,5.959,7.507a5.731,5.731,0,0,0,2.089.338h8.165v-4.292l-1.668,1.668a1.22,1.22,0,1,1-1.724-1.726l3.133-3.134a2.1,2.1,0,0,1,2.96,0l3.133,3.134a1.22,1.22,0,1,1-1.726,1.726Z" transform="translate(-694 -352.5)"/>
  </g>
</svg>
