<svg id="CloudDownloadIcon" xmlns="http://www.w3.org/2000/svg" width="34.866" height="33.56" viewBox="0 0 34.866 33.56">
  <defs>
    <style>
      .cls-1 {
        fill: #222628;

      }
    </style>
  </defs>
  <path id="Path_6953" style="fill-rule: evenodd" data-name="Path 6953" class="cls-1" d="M757.3,373.977v-6.982h2.441v6.982Z" transform="translate(-741.086 -341.726)"/>
  <path id="Path_6954" style="fill-rule: evenodd" data-name="Path 6954" class="cls-1" d="M765.433,352.5c10.052,0,12.2,7.845,12.2,8.716,0,.239.394.544.964.987,1.512,1.17,4.266,3.3,4.266,7.73,0,4.635-4.023,6.755-5.958,7.507a5.731,5.731,0,0,1-2.088.338h-8.165v-8.716a1.22,1.22,0,0,0-2.441,0v8.716h-8.165a5.73,5.73,0,0,1-2.088-.338c-1.935-.751-5.959-2.871-5.959-7.507,0-4.428,2.755-6.56,4.266-7.73.57-.443.964-.748.964-.987C753.23,360.345,755.381,352.5,765.433,352.5Z" transform="translate(-748 -352.5)"/>
  <path id="Path_6955" style="fill-rule: evenodd" data-name="Path 6955" class="cls-1" d="M757.707,373.937a1.045,1.045,0,0,1,0-1.48l3.75-3.75a1.046,1.046,0,0,1,1.48,1.478l-3.752,3.751A1.046,1.046,0,0,1,757.707,373.937Z" transform="translate(-741.012 -340.683)"/>
  <path id="Path_6956" style="fill-rule: evenodd" data-name="Path 6956" class="cls-1" d="M760.784,373.937a1.045,1.045,0,0,0,0-1.48l-3.75-3.75a1.046,1.046,0,0,0-1.48,1.478l3.751,3.751A1.046,1.046,0,0,0,760.784,373.937Z" transform="translate(-742.611 -340.683)"/>
</svg>
