<svg xmlns="http://www.w3.org/2000/svg" width="36.641" height="34.406" viewBox="0 0 36.641 34.406">
  <g id="ConvertIcon" transform="translate(0 0)">
    <g id="Group_8181" >
      <path id="Path_6906" d="M104.3,310.458a2.067,2.067,0,0,1,2.067-2.067h29.124a2.067,2.067,0,1,1,0,4.134H106.367A2.065,2.065,0,0,1,104.3,310.458Z" transform="translate(-101.316 -287.422)" fill-rule="evenodd"/>
      <path id="Path_6907" d="M111.533,321.182a2.066,2.066,0,0,0,2.92.083l9.844-9.307a2.067,2.067,0,0,0-2.84-3l-9.844,9.3A2.067,2.067,0,0,0,111.533,321.182Z" transform="translate(-88.301 -287.423)" fill-rule="evenodd"/>
      <path id="Path_6908" d="M138.929,306.367a2.069,2.069,0,0,1-2.067,2.067h-31.5a2.067,2.067,0,1,1,0-4.134h31.5A2.067,2.067,0,0,1,138.929,306.367Z" transform="translate(-103.269 -295.412)"  fill-rule="evenodd"/>
      <path id="Path_6909" d="M103.9,313.706a2.069,2.069,0,0,0,2.923,0l8.887-8.887a2.067,2.067,0,0,0-2.923-2.923l-8.887,8.887A2.064,2.064,0,0,0,103.9,313.706Z" transform="translate(-103.29 -301.289)"  fill-rule="evenodd"/>
    </g>
  </g>
</svg>
