<svg xmlns="http://www.w3.org/2000/svg" width="23.112" height="23.366" viewBox="0 0 23.112 23.366">
  <path id="Union_154" data-name="Union 154" d="M-3199.74-4909.755l-3.15-5.457a.612.612,0,0,1,.224-.834l3.082-1.778a.61.61,0,0,1,.834.223l3.15,5.457a.61.61,0,0,1-.224.833l-3.082,1.78a.608.608,0,0,1-.305.082A.611.611,0,0,1-3199.74-4909.755Zm5.247-3.1-2.681-4.643a4.625,4.625,0,0,1,4-2.443,4.19,4.19,0,0,1,2.5.819,4.144,4.144,0,0,1,.566.5h2.556a.883.883,0,0,1,.889.832.869.869,0,0,1-.868.9h-3.357a.656.656,0,0,0-.656.655.656.656,0,0,0,.656.656h3.139a2.374,2.374,0,0,0,1.27-.364,2.2,2.2,0,0,0,.276-.2l3.837-2.764a.919.919,0,0,1,1.282.208.919.919,0,0,1-.209,1.284s-2.951,2.154-4.394,3.191a11.244,11.244,0,0,1-.958.621,5.642,5.642,0,0,1-2.816.745Zm-.826-13.432a5.54,5.54,0,0,1,5.534-5.534,5.539,5.539,0,0,1,5.533,5.534,5.539,5.539,0,0,1-5.533,5.533A5.54,5.54,0,0,1-3195.319-4926.283Zm3.513,1.571a1.719,1.719,0,0,0,.515,1.22,1.728,1.728,0,0,0,.85.46v.15a.655.655,0,0,0,.656.656.655.655,0,0,0,.655-.656v-.152a1.722,1.722,0,0,0,.871-.478,1.715,1.715,0,0,0,.5-1.227v-.006a1.736,1.736,0,0,0-.7-1.379l-1.324-.98-.546-.4a.42.42,0,0,1-.169-.336.42.42,0,0,1,.42-.42h.588a.42.42,0,0,1,.418.42.655.655,0,0,0,.656.655.655.655,0,0,0,.655-.655,1.732,1.732,0,0,0-1.366-1.691v-.152a.655.655,0,0,0-.655-.655.655.655,0,0,0-.656.655v.151a1.733,1.733,0,0,0-1.37,1.692,1.738,1.738,0,0,0,.7,1.39l1.325.98.545.4a.42.42,0,0,1,.169.334v.006a.418.418,0,0,1-.416.422l-.587,0a.419.419,0,0,1-.422-.417.656.656,0,0,0-.655-.651h0A.655.655,0,0,0-3191.806-4924.712Z" transform="translate(3203.525 4932.316)" fill="" stroke="rgba(0,0,0,0)" stroke-miterlimit="10" stroke-width="1"/>
</svg>
