<svg xmlns="http://www.w3.org/2000/svg" width="34.311" height="38.421" viewBox="0 0 34.311 38.421">
  <g id="Group_8802"  transform="translate(0.001 -0.001)">
    <path id="Path_7027" fill-rule="evenodd" d="M390.892,194.247a1.381,1.381,0,0,1-1.38,1.38h-3.1l-.223-1.1,0,0c0-.01-.006-.03-.014-.059-.018-.059-.045-.154-.087-.27-.087-.237-.314.517-.519.219-.392-.57-.907,0-1.972,0s-1.58-.787-1.972-.219c-.205.3-.432-.237-.519,0-.041.116-.069.211-.087.27-.008.03-.012.049-.014.059l0,0-.223,1.1h-3.1a1.38,1.38,0,1,1,0-2.761h.986a6.46,6.46,0,0,1,.6-1.081,5.267,5.267,0,0,1,8.664,0,6.6,6.6,0,0,1,.6,1.081h.986A1.379,1.379,0,0,1,390.892,194.247Z" transform="translate(-366.44 -189.514)"/>
    <path id="Path_7028"  fill-rule="evenodd" d="M382.055,222.606h8.485a8.18,8.18,0,0,0,7.881-8.168l.655-18.336a1.03,1.03,0,0,0-.986-1.1H374.506a1.03,1.03,0,0,0-.986,1.1l.655,18.336A8.179,8.179,0,0,0,382.055,222.606Zm8.187-16.351a1.437,1.437,0,0,1,1.38,1.487v4.245a1.384,1.384,0,1,1-2.761,0v-4.245A1.435,1.435,0,0,1,390.242,206.255Zm-6.507,1.487a1.384,1.384,0,1,0-2.761,0v4.245a1.384,1.384,0,1,0,2.761,0Z" transform="translate(-369.144 -184.184)"/>
    <path id="Path_7029"  fill-rule="evenodd" d="M405.605,193.913a1.379,1.379,0,0,1-1.495,1.254l-3.4-.3a140.551,140.551,0,0,0-24.51,0l-3.4.3a1.38,1.38,0,1,1-.241-2.749l3.4-.3a143.338,143.338,0,0,1,24.992,0l3.4.3A1.378,1.378,0,0,1,405.605,193.913Z" transform="translate(-371.3 -187.511)"/>
  </g>
</svg>
