<svg xmlns="http://www.w3.org/2000/svg" width="30.444" height="33.827" viewBox="0 0 30.444 33.827">
  <defs>
    <style>
      .cls-1 {
        fill: #222628;

      }
    </style>
  </defs>
  <path id="DownloadIcon" style="fill-rule: evenodd" class="cls-1" d="M1127,150.682c0-1.088,0-1.945.034-2.659h2.115c2.334,0,4.16,0,5.615-.149a8.088,8.088,0,0,0,3.823-1.191,7.927,7.927,0,0,0,2.182-2.194,8.032,8.032,0,0,0,1.2-3.812c.152-1.461.152-3.293.152-5.612h0v-.059c.423-.007.914-.007,1.489-.007h1.658c5.074,0,7.611,0,9.387,1.292a6.906,6.906,0,0,1,1.505,1.5c1.286,1.778,1.286,4.315,1.286,9.389v9.471c0,5.074,0,7.611-1.286,9.389a6.906,6.906,0,0,1-1.505,1.5c-1.776,1.292-4.313,1.292-9.387,1.292h-6.089c-5.074,0-7.611,0-9.386-1.292a6.913,6.913,0,0,1-1.506-1.5c-1.285-1.778-1.285-4.315-1.285-9.389Zm12.076-15.143a6.132,6.132,0,0,1,.676-.244c0,2.246-.017,3.87-.152,5.142a5.062,5.062,0,0,1-2.334,4.277,5.811,5.811,0,0,1-2.74.8c-1.319.135-3.044.137-5.429.137h-1.658a8.076,8.076,0,0,1,.524-1.072c.643-1.057,1.641-1.854,3.654-3.449h0l4.431-3.5h0A13.885,13.885,0,0,1,1139.076,135.54Zm4.329,15.866a1.184,1.184,0,1,0-2.368,0V159.7l-1.742-1.737a1.015,1.015,0,0,0-1.437,0,1.027,1.027,0,0,0,0,1.434l3.653,3.64a.891.891,0,0,0,.321.223,1.037,1.037,0,0,0,.829-.025,1,1,0,0,0,.271-.2l3.653-3.64a1.026,1.026,0,0,0,0-1.434,1.015,1.015,0,0,0-1.437,0l-1.743,1.737Z" transform="translate(-1127 -135)"/>
</svg>
