<svg id="DownArrowIcon" xmlns="http://www.w3.org/2000/svg" width="19.281" height="28.583" viewBox="0 0 19.281 28.583">
  <defs>
    <style>
      .cls-1 {
        fill: #222628;
      }
    </style>
  </defs>
  <path id="Union_152" data-name="Union 152" class="cls-1" d="M9.2,28.5a1.462,1.462,0,0,1-.182-.084,2.116,2.116,0,0,1-.21-.132c-.117-.08-.249-.183-.384-.293-.277-.224-.64-.534-1.049-.894-.823-.724-1.875-1.682-2.909-2.635s-2.062-1.907-2.823-2.622c-.382-.357-.7-.655-.921-.865l-.35-.328.812-.86L2,18.928l.346.323.917.862c.762.712,1.781,1.66,2.81,2.61.835.77,1.674,1.535,2.389,2.171V1.185a1.184,1.184,0,1,1,2.368,0V24.891c.713-.636,1.55-1.4,2.386-2.168,1.03-.95,2.047-1.9,2.809-2.61l.918-.862.345-.323.813.86.812.86-.348.328c-.224.21-.541.508-.923.865-.764.715-1.787,1.667-2.823,2.622s-2.087,1.911-2.909,2.635c-.409.359-.77.669-1.047.894-.138.11-.27.213-.384.293-.057.038-.13.088-.211.132a1.589,1.589,0,0,1-.184.084,1.233,1.233,0,0,1-.439.082A1.255,1.255,0,0,1,9.2,28.5Zm8.9-8.713-.813-.86a1.184,1.184,0,1,1,1.625,1.721ZM.322,18.977A1.18,1.18,0,0,1,2,18.928l-.812.86-.812.86A1.182,1.182,0,0,1,.322,18.977Z" transform="translate(0)"/>
</svg>
