<svg xmlns="http://www.w3.org/2000/svg" width="35.681" height="35.946" viewBox="0 0 35.681 35.946">
  <g id="EditIcon" transform="translate(0)">
    <path id="Path_6631" data-name="Path 6631" d="M665.3,297.822a3.481,3.481,0,0,0-4.433.816l-2.876,3.423a1.311,1.311,0,0,1,.326.28h0l0,0,.006.007.024.027c.02.026.053.064.1.113.086.1.21.245.368.424.318.36.765.858,1.286,1.4a22.691,22.691,0,0,0,3.464,3.076c1.217.8,2.578,1.652,3.641,2.307.531.328.984.6,1.306.8l.375.227.1.059.026.016.006,0h0c.033.02.062.04.091.06l2.631-3.129a3.462,3.462,0,0,0,.051-4.479,26.951,26.951,0,0,0-2.909-3.012A28.52,28.52,0,0,0,665.3,297.822Zm2.141,15.028c-.073-.046-.161-.1-.262-.159-.326-.2-.785-.477-1.321-.809-1.072-.66-2.459-1.528-3.707-2.349a25.177,25.177,0,0,1-3.906-3.443c-.551-.578-1.023-1.1-1.358-1.484-.168-.19-.3-.344-.393-.454-.046-.053-.082-.1-.106-.124l-.026-.029-14.609,17.389a5.287,5.287,0,0,0-1.257,3.374c-.009,2.726.088,7.478.854,8.122s5.465-.079,8.149-.558a5.284,5.284,0,0,0,3.107-1.819Zm-10.989-8.958c.115-.1.362-.3.88-.732l-.88.732Z" transform="translate(-640.498 -297.353)" fill="" fill-rule="evenodd"/>
    <path id="Path_6632" data-name="Path 6632" d="M652,316.881a1.28,1.28,0,0,1,1.281-1.281h12.075a1.281,1.281,0,0,1,0,2.561H653.281A1.281,1.281,0,0,1,652,316.881Z" transform="translate(-630.955 -282.215)" fill="" fill-rule="evenodd"/>
  </g>
</svg>
