<svg xmlns="http://www.w3.org/2000/svg" width="30.444" height="33.827" viewBox="0 0 30.444 33.827">
  <defs>
    <style>
      .cls-1 {
        fill: #222628;
      }
    </style>
  </defs>
  <path id="ErroeFileIcon" style="fill-rule: evenodd" class="cls-1" d="M1073.034,148.023c-.034.714-.034,1.571-.034,2.659v5.967c0,5.074,0,7.611,1.286,9.389a6.9,6.9,0,0,0,1.505,1.5c1.776,1.292,4.313,1.292,9.387,1.292h6.089c5.074,0,7.611,0,9.387-1.292a6.913,6.913,0,0,0,1.505-1.5c1.285-1.778,1.285-4.315,1.285-9.389v-9.471c0-5.074,0-7.611-1.285-9.389a6.914,6.914,0,0,0-1.505-1.5c-1.776-1.292-4.313-1.292-9.387-1.292h-1.657c-.575,0-1.065,0-1.489.007v.059h0c0,2.319,0,4.15-.152,5.612a8.021,8.021,0,0,1-1.2,3.812,7.918,7.918,0,0,1-2.182,2.194,8.086,8.086,0,0,1-3.822,1.191c-1.454.149-3.281.149-5.615.149h-2.114Zm12.719-12.727a6.165,6.165,0,0,0-.677.244,13.888,13.888,0,0,0-3.027,2.09h0l-4.432,3.5h0c-2.012,1.595-3.01,2.392-3.653,3.449a8.09,8.09,0,0,0-.524,1.072h1.658c2.385,0,4.11,0,5.429-.137a5.81,5.81,0,0,0,2.74-.8,5.06,5.06,0,0,0,2.334-4.277C1085.736,139.166,1085.752,137.542,1085.752,135.3Zm6.393,19.163a1.165,1.165,0,0,1,0,1.674l-1.556,1.554,1.556,1.554a1.165,1.165,0,0,1,0,1.674,1.182,1.182,0,0,1-1.675,0l-1.556-1.554-1.556,1.554a1.178,1.178,0,0,1-1.657-1.674l1.539-1.554-1.539-1.554a1.178,1.178,0,0,1,1.657-1.674l1.556,1.554,1.556-1.554A1.185,1.185,0,0,1,1092.146,154.459Z" transform="translate(-1073 -135)"/>
</svg>
