<svg id="Group_8607" data-name="Group 8607" xmlns="http://www.w3.org/2000/svg" width="41.523" height="32.815" viewBox="0 0 41.523 32.815">
  <path id="Path_6845" data-name="Path 6845" d="M262,260.906C267.324,252.388,273.712,246,282.23,246a21.244,21.244,0,0,1,11.712,4.259l-5.14,5.013a7.879,7.879,0,0,0-11.275,11l-5.943,5.794C267.977,269.382,264.839,265.446,262,260.906Zm23.168-4.525q.188.08.37.172l-3.3,3.3-3.3,3.3q-.093-.182-.173-.371a4.9,4.9,0,0,1,6.4-6.4Z" transform="translate(-262 -244.487)"  fill-rule="evenodd"/>
  <path id="Path_6846" data-name="Path 6846" d="M296.669,245.727a1.492,1.492,0,0,1,0,2.108l-29.834,29.834a1.491,1.491,0,1,1-2.108-2.108l29.834-29.834A1.488,1.488,0,0,1,296.669,245.727Z" transform="translate(-259.415 -245.289)" fill-rule="evenodd"/>
  <path id="Path_6847" data-name="Path 6847" d="M295.618,256.953c-5.324,8.518-14.906,14.906-26.618,13.841l6.727-7.081a8.851,8.851,0,0,0,1.6.021,6.181,6.181,0,0,0,5.888-5.888,9.06,9.06,0,0,0-.064-1.953l6.075-6.395A33.815,33.815,0,0,1,295.618,256.953Z" transform="translate(-254.095 -240.533)"  fill-rule="evenodd"/>
</svg>
