<svg id="Group_8610" data-name="Group 8610" xmlns="http://www.w3.org/2000/svg" width="40.46" height="29.813" viewBox="0 0 40.46 29.813">
  <g id="Group_8100" data-name="Group 8100">
    <path id="Path_7064" data-name="Path 7064" d="M228.73,246c-8.518,0-14.906,6.388-20.23,14.906,5.324,8.518,11.712,14.906,20.23,14.906s14.906-6.388,20.23-14.906C243.636,252.388,237.248,246,228.73,246Zm-7.879,14.906a7.879,7.879,0,1,1,7.879,7.879A7.88,7.88,0,0,1,220.851,260.906Z" transform="translate(-208.5 -246)"  fill-rule="evenodd"/>
    <path id="Path_7065" data-name="Path 7065" d="M220.824,261.147a5.323,5.323,0,0,0,5.324-5.324q0-.141-.006-.281a2.13,2.13,0,1,1-1.9-3.8,5.323,5.323,0,1,0-3.414,9.408Z" transform="translate(-200.592 -240.917)" fill-rule="evenodd"/>
  </g>
</svg>
