<svg xmlns="http://www.w3.org/2000/svg" width="34.543" height="31.188" viewBox="0 0 34.543 31.188">
  <defs>
    <style>
      .cls-1 {
        fill: #2c2c2c;
        stroke: rgba(0,0,0,0);
        stroke-miterlimit: 10;
      }
    </style>
  </defs>
  <path id="FileIcon" style="fill-rule: evenodd" class="cls-1" d="M478.506,354.833c-.506,1.041-.506,2.393-.506,5.1v10.184c0,5.031,0,7.547,1.281,9.31a6.7,6.7,0,0,0,1.484,1.484c1.763,1.281,4.278,1.281,9.31,1.281h9.392c5.031,0,7.547,0,9.31-1.281a6.7,6.7,0,0,0,1.484-1.484c1.281-1.763,1.281-4.278,1.281-9.31v-1.845c0-5.031,0-7.547-1.281-9.31a6.7,6.7,0,0,0-1.484-1.484c-1.763-1.281-4.278-1.281-9.31-1.281h-3.688c-.262,0-.391,0-.515-.007a5.026,5.026,0,0,1-3.52-1.692c-.082-.092-.164-.194-.327-.4h0c-.163-.2-.245-.305-.327-.4a5.026,5.026,0,0,0-3.52-1.692c-.124-.007-.253-.007-.515-.007h-1.125c-2.7,0-4.055,0-5.1.507A5.029,5.029,0,0,0,478.506,354.833ZM499.3,374.809a1.174,1.174,0,1,0,0,2.348h6.038a1.174,1.174,0,0,0,0-2.348Z" transform="translate(-477.5 -351.5)"/>
</svg>
