<svg xmlns="http://www.w3.org/2000/svg" width="32.256" height="25.128" viewBox="0 0 32.256 25.128">
  <defs>
    <style>
      .cls-1 {
        fill: #2c2c2c;
      }
    </style>
  </defs>
  <g id="HamburgerMenuIcon" transform="translate(-711.008 -184.229)">
    <path id="Path_4657" data-name="Path 4657" class="cls-1" d="M727.116,187.851H713.61a7.679,7.679,0,0,1-.92-.021,1.8,1.8,0,0,1,.041-3.591,4.508,4.508,0,0,1,.46-.01q13.889,0,27.779,0a4.109,4.109,0,0,1,.912.079,1.766,1.766,0,0,1,.033,3.44,4.263,4.263,0,0,1-.987.09q-6.906.008-13.813,0Z" transform="translate(0 0)"/>
    <path id="Path_4658" data-name="Path 4658" class="cls-1" d="M756.612,257.835q-4.334,0-8.669,0a1.86,1.86,0,0,1-1.786-.972,1.69,1.69,0,0,1,.082-1.82,2.006,2.006,0,0,1,1.868-.832q6.521.009,13.042,0c1.406,0,2.813-.006,4.219,0a1.847,1.847,0,0,1,2.077,1.774c.021,1.1-.8,1.835-2.088,1.839-2.915.009-5.83,0-8.745,0Z" transform="translate(-29.557 -59.232)"/>
    <path id="Path_4659" data-name="Path 4659" class="cls-1" d="M776.5,324.22c1.688,0,3.376-.007,5.064,0A1.856,1.856,0,0,1,783.64,326a1.837,1.837,0,0,1-2.027,1.831c-3.427.015-6.854.01-10.28.011a1.881,1.881,0,0,1-1.8-.947,1.7,1.7,0,0,1,.05-1.821,1.905,1.905,0,0,1,1.777-.854Q773.928,324.224,776.5,324.22Z" transform="translate(-49.329 -118.484)"/>
  </g>
</svg>
