<svg xmlns="http://www.w3.org/2000/svg" width="39.934" height="38.195" viewBox="0 0 39.934 38.195">
  <g id="HandTabletScreenIcon" transform="translate(0)">
    <g id="Group_6908" data-name="Group 6908" transform="translate(0 0)">
      <path id="Path_5616" data-name="Path 5616" d="M39.224,4.854H4.71A2.767,2.767,0,0,0,2,7.671V33.02a2.767,2.767,0,0,0,2.71,2.817H16.818c-.591-1.075-1.315-2.46-2.217-4.225H6.065V9.078h31.8V31.611H36.081v3.04a8.79,8.79,0,0,1-.111,1.183h3.254a2.767,2.767,0,0,0,2.71-2.817V7.671A2.767,2.767,0,0,0,39.224,4.854Zm.664,16.9a1.409,1.409,0,1,1,1.354-1.408A1.38,1.38,0,0,1,39.888,21.754Z" transform="translate(-2 -4.854)" fill=""/>
      <path id="Path_5617" data-name="Path 5617" d="M37.207,21.595h-.16a1.69,1.69,0,0,0-1.69,1.686v1.508H35.15V23.281a1.69,1.69,0,0,0-1.688-1.686H33.3a1.689,1.689,0,0,0-1.686,1.686v1.508H31.4V23.281a1.689,1.689,0,0,0-1.686-1.686h-.167a1.689,1.689,0,0,0-1.686,1.686v1.508h-.11V15.155a1.7,1.7,0,0,0-1.7-1.7h-.165a1.7,1.7,0,0,0-1.694,1.7v14.74c-.453-.511-.851-1.032-1.216-1.5-.811-1.049-1.449-1.881-2.169-2.046A1.7,1.7,0,0,0,18.919,27a2.162,2.162,0,0,0,.139,2.122c.924,1.767,5.363,9.529,5.365,9.529.351.849,1.9,3.625,7.114,3.625v-.186l.005.186c3.792,0,5.588-1.79,6.427-3.29a7.42,7.42,0,0,0,.92-3.286V23.281A1.685,1.685,0,0,0,37.207,21.595Z" transform="translate(-5.978 -4.08)" fill=""/>
    </g>
  </g>
</svg>
