<svg xmlns="http://www.w3.org/2000/svg" width="34.762" height="33.171" viewBox="0 0 34.762 33.171">
  <defs>
    <style>
      .cls-1 {
        fill: #2c2c2c;

      }
    </style>
  </defs>
  <path id="HomeIcon" style="fill-rule: evenodd" class="cls-1" d="M47.244,148.9c-.744,1.731-.744,3.688-.744,7.6v2.556c0,5.174,0,7.761,1.608,9.369,1.569,1.57,4.072,1.606,9,1.608H70.651c4.932,0,7.435-.038,9-1.608,1.608-1.608,1.608-4.2,1.608-9.369v-2.556c0-3.915,0-5.873-.744-7.6q-.163-.379-.36-.741c-.9-1.658-2.434-2.871-5.507-5.3-4.886-3.857-7.328-5.785-10.159-5.975a9.084,9.084,0,0,0-1.222,0c-2.831.19-5.274,2.119-10.159,5.975-3.073,2.426-4.61,3.639-5.507,5.3Q47.407,148.525,47.244,148.9Zm23.407,21.137a6.769,6.769,0,1,0-13.539,0h2.561a4.208,4.208,0,0,1,8.416,0Z" transform="translate(-46.5 -136.87)"/>
</svg>
