<svg id="Group_8602" data-name="Group 8602" xmlns="http://www.w3.org/2000/svg" width="42.499" height="41.04" viewBox="0 0 42.499 41.04">
  <g id="Group_8598" data-name="Group 8598" transform="translate(7.422 9.907)">
    <path id="Path_7594" data-name="Path 7594" d="M1,36.223a4.567,4.567,0,0,1,2.762-2.8A15.527,15.527,0,0,1,9.2,32.053a21.635,21.635,0,0,1,4.539.061l.255.034v9.877c-.405.04-.809.094-1.214.118a18.894,18.894,0,0,1-8.709-1.265,8.894,8.894,0,0,1-1.118-.586A3.928,3.928,0,0,1,1,37.933Z" transform="translate(-1 -24.147)" fill=""/>
    <path id="Path_7595" data-name="Path 7595" d="M1,52.056l.2-.563a7.2,7.2,0,0,0,4.454,2.876,20.6,20.6,0,0,0,8.352.572,5.963,5.963,0,0,0,.411,2.854c-.74.066-1.4.147-2.069.18a19.056,19.056,0,0,1-7.538-.99,11.628,11.628,0,0,1-1.64-.754A4.1,4.1,0,0,1,1,53.768Z" transform="translate(-1 -29.645)" fill=""/>
    <path id="Path_7596" data-name="Path 7596" d="M1,44.838l.209-.507a7.046,7.046,0,0,0,4.3,2.822,20.211,20.211,0,0,0,8.158.647c.1-.011.2-.014.327-.022v2.9c-.662.047-1.326.116-1.993.138A18.21,18.21,0,0,1,4.04,49.5a9.071,9.071,0,0,1-1.03-.533A4.121,4.121,0,0,1,1,46.618Z" transform="translate(-1 -27.629)" fill=""/>
    <path id="Path_7597" data-name="Path 7597" d="M31.621,21.084a17.735,17.735,0,0,1,7.264,1.391,6.624,6.624,0,0,1,2.034,1.362,3.179,3.179,0,0,1,.886,2.114,3.486,3.486,0,0,1-1.886,3.413,12.489,12.489,0,0,1-4.708,1.654,20.675,20.675,0,0,1-9.178-.457,11.218,11.218,0,0,1-3.255-1.545,3.554,3.554,0,0,1,.012-5.646,12.161,12.161,0,0,1,4.151-1.775A19.952,19.952,0,0,1,31.621,21.084Z" transform="translate(-6.74 -21.084)" fill=""/>
    <path id="Path_7598" data-name="Path 7598" d="M41.573,40.609a.728.728,0,0,1,.093.167c.262,1.331.305,2.61-.793,3.65a8.6,8.6,0,0,1-3.523,1.888,20.176,20.176,0,0,1-7.75.711,15.573,15.573,0,0,1-5.466-1.4A5.805,5.805,0,0,1,22,44.014a2.5,2.5,0,0,1-.563-1.613c.006-.388,0-.776.029-1.162a4.512,4.512,0,0,1,.147-.654c1.258,1.909,3.188,2.6,5.2,3.078a20.171,20.171,0,0,0,10.9-.363,9.511,9.511,0,0,0,1.112-.435A5.627,5.627,0,0,0,41.573,40.609Z" transform="translate(-6.753 -26.574)" fill=""/>
    <path id="Path_7599" data-name="Path 7599" d="M41.593,33.405a2.883,2.883,0,0,1,.126.448c.183,1.827.152,2.712-1.513,3.931a10.023,10.023,0,0,1-3.814,1.609,20.115,20.115,0,0,1-11.218-.5,11.65,11.65,0,0,1-1.814-.864,3.5,3.5,0,0,1-1.93-3.842c.018-.124.025-.25.053-.371s.076-.237.124-.382c.2.267.375.53.585.758a7.6,7.6,0,0,0,3.168,1.886,16.679,16.679,0,0,0,4.134.872,20.19,20.19,0,0,0,7.913-.731,13.266,13.266,0,0,0,1.711-.68A5.445,5.445,0,0,0,41.593,33.405Z" transform="translate(-6.737 -24.553)" fill=""/>
    <path id="Path_7600" data-name="Path 7600" d="M41.569,55.358c.039.06.076.094.084.134.277,1.341.323,2.63-.782,3.682a8.184,8.184,0,0,1-3.13,1.762,19.88,19.88,0,0,1-7.9.857,15.171,15.171,0,0,1-5.357-1.265A10.6,10.6,0,0,1,22.5,59.287a2.649,2.649,0,0,1-1.068-2.363,15.1,15.1,0,0,1,.156-1.558A6.332,6.332,0,0,0,25.1,57.886a19.6,19.6,0,0,0,3.268.833,20.133,20.133,0,0,0,8.341-.374,14.656,14.656,0,0,0,2.093-.726A5.46,5.46,0,0,0,41.569,55.358Z" transform="translate(-6.749 -30.733)" fill=""/>
    <path id="Path_7601" data-name="Path 7601" d="M21.64,48.162a6.372,6.372,0,0,0,3.623,2.613,19.175,19.175,0,0,0,7.54.98,17.59,17.59,0,0,0,5.085-.95,6.522,6.522,0,0,0,3.693-2.631.88.88,0,0,1,.084.175c.3,1.554.24,2.772-.971,3.812a8.548,8.548,0,0,1-2.829,1.551,19.575,19.575,0,0,1-7.617.93,16.617,16.617,0,0,1-5.74-1.27A7.066,7.066,0,0,1,22.362,52a2.8,2.8,0,0,1-.935-2.224A3.809,3.809,0,0,1,21.64,48.162Z" transform="translate(-6.75 -28.707)" fill=""/>
  </g>
  <g id="Groupe_8572" data-name="Groupe 8572">
    <path id="Tracé_7005" data-name="Tracé 7005" d="M23.546,19.183A2.048,2.048,0,0,1,21.5,21.232H5.508a2.048,2.048,0,0,1,0-4.1h4.4c-.065.056,6.439-.047,6.585,0H21.5A2.048,2.048,0,0,1,23.546,19.183Z" transform="translate(-3.46 -17.123)" fill="" fill-rule="evenodd"/>
  </g>
</svg>
