<svg xmlns="http://www.w3.org/2000/svg" width="44.205" height="52.471" viewBox="0 0 44.205 52.471">

  <path d="M9.165 33.434a4.562 4.562 0 0 1 2.759-2.793 15.511 15.511 0 0 1 5.428-1.372 21.613 21.613 0 0 1 4.534.061l.255.034v9.866c-.4.04-.808.094-1.213.118a18.874 18.874 0 0 1-8.7-1.263 8.885 8.885 0 0 1-1.117-.585 3.924 3.924 0 0 1-1.946-2.357Zm0 10.325.2-.563a7.187 7.187 0 0 0 4.449 2.873 20.58 20.58 0 0 0 8.343.571 5.957 5.957 0 0 0 .411 2.851c-.739.066-1.4.146-2.067.18a19.036 19.036 0 0 1-7.53-.989 11.613 11.613 0 0 1-1.639-.754 4.092 4.092 0 0 1-2.167-2.46Zm0-5.196.209-.507a7.038 7.038 0 0 0 4.291 2.819 20.19 20.19 0 0 0 8.15.647c.1-.011.2-.014.327-.022v2.9c-.661.047-1.325.116-1.991.138a18.191 18.191 0 0 1-7.949-1.313 9.063 9.063 0 0 1-1.029-.533 4.116 4.116 0 0 1-2.008-2.352ZM34.02 21.371a17.716 17.716 0 0 1 7.256 1.389 6.617 6.617 0 0 1 2.032 1.36 3.175 3.175 0 0 1 .885 2.112 3.482 3.482 0 0 1-1.884 3.41 12.476 12.476 0 0 1-4.7 1.652 20.653 20.653 0 0 1-9.169-.456 11.207 11.207 0 0 1-3.251-1.543 3.55 3.55 0 0 1 .012-5.64 12.148 12.148 0 0 1 4.146-1.773 19.93 19.93 0 0 1 4.673-.511Zm9.928 14.02a.727.727 0 0 1 .093.167c.262 1.329.305 2.607-.792 3.646a8.588 8.588 0 0 1-3.519 1.886 20.154 20.154 0 0 1-7.742.71 15.557 15.557 0 0 1-5.46-1.395 5.8 5.8 0 0 1-2.131-1.612 2.5 2.5 0 0 1-.562-1.611c.006-.388 0-.775.029-1.161a4.509 4.509 0 0 1 .147-.653c1.257 1.907 3.184 2.6 5.2 3.075a20.149 20.149 0 0 0 10.886-.361 9.5 9.5 0 0 0 1.111-.434 5.621 5.621 0 0 0 2.74-2.257Z"/>
  <path d="M43.984 30.214a2.881 2.881 0 0 1 .126.448c.183 1.825.152 2.709-1.511 3.927a10.012 10.012 0 0 1-3.81 1.608 20.094 20.094 0 0 1-11.206-.5 11.636 11.636 0 0 1-1.812-.863 3.5 3.5 0 0 1-1.928-3.838c.018-.123.025-.25.053-.371s.076-.237.124-.381c.2.266.375.53.584.757a7.6 7.6 0 0 0 3.165 1.884 16.661 16.661 0 0 0 4.13.871 20.168 20.168 0 0 0 7.9-.731 13.254 13.254 0 0 0 1.709-.68 5.439 5.439 0 0 0 2.476-2.131Zm-.037 15.756c.039.06.076.094.084.133.276 1.339.322 2.628-.781 3.678a8.175 8.175 0 0 1-3.127 1.761 19.859 19.859 0 0 1-7.89.856 15.155 15.155 0 0 1-5.351-1.263 10.587 10.587 0 0 1-1.982-1.241 2.646 2.646 0 0 1-1.067-2.361 15.084 15.084 0 0 1 .156-1.557 6.326 6.326 0 0 0 3.509 2.518 19.579 19.579 0 0 0 3.264.832 20.112 20.112 0 0 0 8.333-.374 14.64 14.64 0 0 0 2.091-.725 5.454 5.454 0 0 0 2.761-2.257Z"/>
  <path d="M24.04 40.805a6.365 6.365 0 0 0 3.619 2.61 19.155 19.155 0 0 0 7.532.979 17.571 17.571 0 0 0 5.08-.949 6.515 6.515 0 0 0 3.689-2.628.878.878 0 0 1 .084.174c.3 1.552.24 2.769-.97 3.808a8.539 8.539 0 0 1-2.826 1.55 19.554 19.554 0 0 1-7.609.929 16.6 16.6 0 0 1-5.739-1.267 7.058 7.058 0 0 1-2.143-1.374 2.792 2.792 0 0 1-.934-2.222 3.8 3.8 0 0 1 .217-1.61Z"/>
  <path d="M23.567 11.783a2.046 2.046 0 0 1-2.046 2.048H13.83v7.69a2.046 2.046 0 1 1-4.091 0v-7.69H2.045a2.046 2.046 0 0 1 0-4.092H9.74V2.045a2.046 2.046 0 0 1 4.091 0v7.692h7.692a2.046 2.046 0 0 1 2.044 2.046Z" fill-rule="evenodd" />
</svg>
