<svg xmlns="http://www.w3.org/2000/svg" width="47.168" height="36.956" viewBox="0 0 47.168 36.956">
  <g id="Group_8562" data-name="Group 8562" transform="translate(0)">
    <path id="Path_6918" data-name="Path 6918" d="M551.146,461.5h8.9c3.584,0,6.373,0,8.58.238a10.112,10.112,0,0,1,9.828,9.828c.239,2.208.239,5,.239,8.58v3.064c0,1.763,0,3.185-.124,4.323a5.653,5.653,0,0,1-5.451,5.451c-1.138.124-2.56.124-4.323.124H542.4c-1.763,0-3.185,0-4.323-.124a5.653,5.653,0,0,1-5.451-5.451c-.124-1.138-.124-2.56-.124-4.323v-3.064c0-3.584,0-6.373.238-8.58a10.112,10.112,0,0,1,9.828-9.828C544.773,461.5,547.562,461.5,551.146,461.5Zm-8.317,2.657a8.722,8.722,0,0,0-4.389,1.4,8.543,8.543,0,0,0-1.884,1.884,8.72,8.72,0,0,0-1.4,4.389c-.224,2.062-.226,4.719-.226,8.393v2.918c0,1.85,0,3.141.109,4.131a3.809,3.809,0,0,0,.586,1.9,3.751,3.751,0,0,0,.807.807,3.811,3.811,0,0,0,1.9.586c.989.107,2.281.11,4.13.11h26.259c1.85,0,3.141,0,4.131-.11a3.807,3.807,0,0,0,1.9-.586,3.738,3.738,0,0,0,.807-.807,3.808,3.808,0,0,0,.586-1.9c.107-.99.109-2.281.109-4.131v-2.918c0-3.674,0-6.331-.226-8.393a8.718,8.718,0,0,0-1.4-4.389,8.556,8.556,0,0,0-1.884-1.884,8.719,8.719,0,0,0-4.388-1.4c-2.062-.224-4.719-.226-8.393-.226h-8.752C547.547,463.931,544.89,463.934,542.828,464.157Z" transform="translate(-532.012 -461.5)"  fill-rule="evenodd"/>
    <path id="Path_6919" data-name="Path 6919" d="M534.046,474.3a1.745,1.745,0,0,0-1.746,1.746,4.089,4.089,0,0,0,4.087,4.089h38.994a4.088,4.088,0,0,0,4.087-4.087,1.749,1.749,0,0,0-1.748-1.748Zm20.623.729a1.7,1.7,0,1,0,0,3.4H557.1a1.7,1.7,0,0,0,0-3.4Z" transform="translate(-532.3 -443.179)"  fill-rule="evenodd"/>
  </g>
</svg>
