<svg id="LeftArrowIcon" xmlns="http://www.w3.org/2000/svg" width="28.583" height="19.281" viewBox="0 0 28.583 19.281">
  <path id="Union_150"   d="M18.977,18.959a1.182,1.182,0,0,1-.049-1.673l.862.812.86.813a1.185,1.185,0,0,1-1.673.048Zm.813-.862-.862-.812.325-.347c.208-.221.5-.538.86-.917.712-.762,1.661-1.78,2.61-2.811.771-.834,1.536-1.673,2.172-2.386H1.183a1.184,1.184,0,0,1,0-2.368H24.895c-.637-.714-1.4-1.553-2.172-2.386-.949-1.03-1.9-2.05-2.61-2.811-.356-.381-.652-.7-.86-.917L18.928,2l.862-.812.86-.812.328.349c.21.222.509.539.865.921.716.763,1.669,1.788,2.622,2.823S26.377,6.553,27.1,7.374c.359.41.67.772.9,1.049.11.135.212.27.292.384.038.056.087.131.131.211A1.46,1.46,0,0,1,28.5,9.2a1.273,1.273,0,0,1,.081.442,1.251,1.251,0,0,1-.081.438,1.312,1.312,0,0,1-.085.183,2.178,2.178,0,0,1-.131.211c-.081.116-.183.247-.292.386-.225.277-.536.638-.9,1.047-.722.821-1.681,1.875-2.635,2.907s-1.906,2.061-2.622,2.825c-.356.384-.655.7-.865.923l-.328.349ZM18.977.324A1.181,1.181,0,0,1,20.65.373l-.86.812L18.928,2A1.18,1.18,0,0,1,18.977.324Z"/>
</svg>
