<svg xmlns="http://www.w3.org/2000/svg" width="40.926" height="32.742" viewBox="0 0 40.926 32.742">
  <path id="Path_7669"  d="M317.115,142.587C316,144.776,316,147.641,316,153.371s0,8.595,1.115,10.784a10.218,10.218,0,0,0,4.471,4.471c2.189,1.115,5.054,1.115,10.784,1.115h8.185c5.73,0,8.595,0,10.784-1.115a10.219,10.219,0,0,0,4.471-4.471c1.115-2.19,1.115-5.054,1.115-10.784s0-8.595-1.115-10.784a10.22,10.22,0,0,0-4.471-4.471C349.15,137,346.285,137,340.556,137H332.37c-5.73,0-8.595,0-10.784,1.115A10.219,10.219,0,0,0,317.115,142.587Zm11.828,5.914a1.023,1.023,0,0,0-1.33,1.555l.082.07.231.2c.2.17.485.411.831.7.69.579,1.625,1.351,2.591,2.124s1.975,1.555,2.816,2.149c.418.295.812.557,1.148.747a4.062,4.062,0,0,0,.5.252,1.7,1.7,0,0,0,.651.147,1.718,1.718,0,0,0,.653-.147,4.4,4.4,0,0,0,.5-.252c.334-.19.728-.452,1.146-.747.841-.593,1.852-1.377,2.816-2.149s1.9-1.545,2.591-2.124c.346-.289.632-.53.831-.7l.231-.2.082-.07a1.023,1.023,0,0,0-1.33-1.555l-.08.068-.227.194c-.2.166-.479.405-.821.69-.683.573-1.6,1.336-2.556,2.1s-1.926,1.514-2.715,2.073c-.4.28-.73.5-.984.643-.051.031-.1.055-.137.076-.039-.02-.086-.045-.137-.076-.254-.145-.587-.362-.984-.643-.79-.559-1.762-1.31-2.716-2.073s-1.872-1.524-2.556-2.1c-.342-.284-.624-.524-.821-.69l-.227-.194Z" transform="translate(-316 -137)" fill="" fill-rule="evenodd"/>
</svg>
