<svg id="ListFileIcon" xmlns="http://www.w3.org/2000/svg" width="29.598" height="33.827" viewBox="0 0 29.598 33.827">
  <g id="Group_8116"  transform="translate(0 0)">
    <path id="Path_7132"  style="fill-rule: evenodd"  d="M857.029,148.023c-.029.692-.029,1.517-.029,2.557v6.068c0,5.074,0,7.611,1.292,9.389a6.756,6.756,0,0,0,1.5,1.5c1.778,1.292,4.315,1.292,9.389,1.292h5.243c5.074,0,7.611,0,9.389-1.292a6.756,6.756,0,0,0,1.5-1.5c1.292-1.778,1.292-4.315,1.292-9.389v-9.471c0-5.074,0-7.611-1.292-9.389a6.756,6.756,0,0,0-1.5-1.5C882.031,135,879.495,135,874.42,135h-1.066c-.467,0-.876,0-1.243,0v.063h0c0,2.319,0,4.15-.149,5.612a8.059,8.059,0,0,1-1.191,3.812,7.943,7.943,0,0,1-2.194,2.194,8.07,8.07,0,0,1-3.812,1.191c-1.461.149-3.291.149-5.612.149h-2.126Zm12.715-12.808c-.047.01-.093.024-.14.037a6.759,6.759,0,0,0-.871.31,14.243,14.243,0,0,0-3.066,2.173l-4.178,3.4c-1.959,1.593-2.936,2.39-3.552,3.435a6.72,6.72,0,0,0-.514,1.082h1.666c2.4,0,4.112,0,5.439-.137a5.78,5.78,0,0,0,2.737-.8,5.584,5.584,0,0,0,1.539-1.541,5.778,5.778,0,0,0,.8-2.737C869.739,139.151,869.744,137.5,869.744,135.215Zm10.935,26.339a1.183,1.183,0,0,1-1.184,1.184H864.949a1.184,1.184,0,1,1,0-2.368h14.545A1.183,1.183,0,0,1,880.679,161.554Zm-6.258-5.581a1.184,1.184,0,1,0,0-2.368h-9.471a1.184,1.184,0,1,0,0,2.368Z" transform="translate(-857 -135)"/>
  </g>
</svg>
