<svg id="LockIcon" xmlns="http://www.w3.org/2000/svg" width="33.989" height="33.151" viewBox="0 0 33.989 33.151">
  <path id="Path_7069"  style="fill-rule: evenodd" d="M215.579,201.627v0l0-.05c0-.05,0-.129.012-.232.016-.207.048-.512.109-.883a9.652,9.652,0,0,1,.856-2.678,6.483,6.483,0,0,1,2.184-2.539,8.834,8.834,0,0,1,8.756,0,6.442,6.442,0,0,1,2.174,2.535,9.633,9.633,0,0,1,.85,2.68c.061.369.091.675.105.881.008.105.012.183.014.232v.055h0s0,0,1.39,0h-1.39v0a1.39,1.39,0,0,0,2.779,0h-1.328c1.328,0,1.328,0,1.328,0v-.048c0-.024,0-.058,0-.1,0-.081-.008-.2-.018-.335-.02-.282-.06-.675-.137-1.141a12.39,12.39,0,0,0-1.1-3.464,9.223,9.223,0,0,0-3.115-3.6,11.576,11.576,0,0,0-11.845,0,9.236,9.236,0,0,0-3.125,3.6,12.408,12.408,0,0,0-1.112,3.462c-.079.467-.119.86-.141,1.142-.01.139-.016.254-.018.335,0,.04,0,.074,0,.1v.048s0,0,1.33.006l-1.33,0a1.39,1.39,0,0,0,2.779.01v0h0Z" transform="translate(-206.126 -191.3)"/>
  <path id="Path_7070" style="fill-rule: evenodd"  d="M209.463,205.11a25.449,25.449,0,0,0,.181,3.79,23.974,23.974,0,0,0,.383,3.277,9.922,9.922,0,0,0,8.189,7.536,24.4,24.4,0,0,0,3.3.109h9.842a24.4,24.4,0,0,0,3.3-.109,9.922,9.922,0,0,0,8.189-7.536,24,24,0,0,0,.383-3.277h0a25.415,25.415,0,0,0,.181-3.79,9.927,9.927,0,0,0-8.258-8.975,25.73,25.73,0,0,0-3.792-.135h-9.842a25.73,25.73,0,0,0-3.792.135A9.927,9.927,0,0,0,209.463,205.11Zm15.581,6.771a1.39,1.39,0,0,0,2.779,0v-3.97a1.39,1.39,0,1,0-2.779,0Z" transform="translate(-209.439 -186.67)"/>
</svg>
