<svg id="LogoutIcon" xmlns="http://www.w3.org/2000/svg" width="31.656" height="36.293" viewBox="0 0 31.656 36.293">
  <path id="Path_6540" data-name="Path 6540" d="M156.15,307.861a1.412,1.412,0,0,1,1.411-1.411h16.13v2.823h-16.13A1.41,1.41,0,0,1,156.15,307.861Z" transform="translate(-156.15 -289.715)"  fill-rule="evenodd"/>
  <path id="Path_6541" data-name="Path 6541" d="M166.366,298.15h6.406a5.916,5.916,0,0,1,5.926,5.325c.365,3.8.774,8.912.774,12.822s-.409,9.021-.774,12.824a5.916,5.916,0,0,1-5.926,5.323h-6.406a2.016,2.016,0,0,1-2.016-2.016v-8.614a1.207,1.207,0,0,0,1.192-.306l6.353-6.353a1.209,1.209,0,0,0,0-1.712l-6.353-6.353a1.213,1.213,0,0,0-1.192-.309v-8.614A2.017,2.017,0,0,1,166.366,298.15Zm1.553,19.558H164.35v3.569Zm-3.569-6.39,3.569,3.567H164.35Z" transform="translate(-147.817 -298.15)"  fill-rule="evenodd"/>
</svg>
