<svg xmlns="http://www.w3.org/2000/svg" width="34.762" height="38.625" viewBox="0 0 34.762 38.625">
  <defs>
    <style>
      .cls-1 {
        fill: #2c2c2c;

      }
    </style>
  </defs>
  <path id="MenuIcon" style="fill-rule: evenodd" class="cls-1" d="M750.3,140.531c-1.3,2.379-1.3,5.537-1.3,11.85v3.862c0,6.313,0,9.471,1.3,11.85a10.621,10.621,0,0,0,4.231,4.231c2.379,1.3,5.537,1.3,11.85,1.3s9.471,0,11.85-1.3a10.62,10.62,0,0,0,4.231-4.231c1.3-2.379,1.3-5.537,1.3-11.85v-3.862c0-6.313,0-9.471-1.3-11.85a10.62,10.62,0,0,0-4.231-4.231c-2.379-1.3-5.537-1.3-11.85-1.3s-9.471,0-11.85,1.3A10.621,10.621,0,0,0,750.3,140.531Zm22.454,24.21a1.352,1.352,0,1,0,0-2.7H758.077a1.352,1.352,0,0,0,0,2.7Zm1.352-9.077a1.351,1.351,0,0,1-1.352,1.352H758.077a1.352,1.352,0,0,1,0-2.7h14.677A1.351,1.351,0,0,1,774.106,155.664Zm-9.077-6.373a1.352,1.352,0,0,0,0-2.7h-6.953a1.352,1.352,0,0,0,0,2.7Z" transform="translate(-749 -135)"/>
</svg>
