<svg id="MoneyBalanceIcon" xmlns="http://www.w3.org/2000/svg" width="35.905" height="39.876" viewBox="0 0 35.905 39.876">
  <rect id="Rectangle_21523" width="17.635" height="5.507" rx="2.753" transform="translate(18.271 27.411)"/>
  <rect id="Rectangle_21524"  width="17.635" height="5.507" rx="2.753" transform="translate(18.271 34.369)"/>
  <path id="Path_5606" d="M2.939,0A2.939,2.939,0,0,1,5.878,2.939V36.352a2.939,2.939,0,0,1-5.878,0V2.939A2.939,2.939,0,0,1,2.939,0Z" transform="translate(7.813)"/>
  <g id="dollar-symbol" transform="translate(18.271 8.327)">
    <path id="Path_5597"  d="M8.817,0a8.817,8.817,0,1,0,8.817,8.817A8.817,8.817,0,0,0,8.817,0Zm.534,12.745v1.021a.273.273,0,0,1-.284.275h-.68a.277.277,0,0,1-.288-.275v-.931a5.841,5.841,0,0,1-1.736-.344.545.545,0,0,1-.335-.644l.111-.432a.546.546,0,0,1,.725-.373,4.378,4.378,0,0,0,1.568.3c.731,0,1.232-.282,1.232-.8,0-.488-.411-.8-1.361-1.117C6.931,8.971,5.99,8.33,5.99,7.085A2.375,2.375,0,0,1,8.156,4.8V3.869a.306.306,0,0,1,.3-.3h.68a.29.29,0,0,1,.277.3V4.71a5.067,5.067,0,0,1,1.389.232.547.547,0,0,1,.362.653l-.1.387a.544.544,0,0,1-.7.38,3.929,3.929,0,0,0-1.3-.214c-.834,0-1.1.36-1.1.719,0,.424.449.693,1.54,1.1,1.527.539,2.141,1.245,2.141,2.4A2.459,2.459,0,0,1,9.351,12.745Z"/>
  </g>
  <g id="down-filled-triangular-arrow" transform="translate(0 23.512) rotate(-90)">
    <path id="Path_5596" d="M7.361,0H.373A.372.372,0,0,0,.111.636L3.605,4.131a.373.373,0,0,0,.524,0L7.623.636A.372.372,0,0,0,7.361,0Z" transform="translate(0)"/>
  </g>
</svg>
