<svg xmlns="http://www.w3.org/2000/svg" width="33.826" height="33.827" viewBox="0 0 33.826 33.827">
  <defs>
    <style>
      .cls-1 {
        fill: #222628;

      }
    </style>
  </defs>
  <path id="MoneyCircleIcon" style="fill-rule: evenodd" class="cls-1" d="M532,367.913a16.913,16.913,0,1,1,16.913,16.913A16.913,16.913,0,0,1,532,367.913Zm18.1-6.133v-.633a1.184,1.184,0,1,0-2.368,0v.633a4.38,4.38,0,0,0-2.079,1.067,4.248,4.248,0,0,0-1.3,3.163,2.756,2.756,0,0,0,.519,1.663,3.151,3.151,0,0,0,1.213.964,7.249,7.249,0,0,0,1.651.507v2.312c-.1-.051-.2-.107-.3-.169-.587-.37-.715-.693-.715-.837a1.184,1.184,0,1,0-2.368,0,3.489,3.489,0,0,0,1.822,2.842,6.168,6.168,0,0,0,1.561.7v.692a1.184,1.184,0,0,0,2.368,0v-.646a5.586,5.586,0,0,0,1.511-.568,3.412,3.412,0,0,0,1.872-3.014,2.945,2.945,0,0,0-.5-1.695,3.185,3.185,0,0,0-1.2-1.027,6.83,6.83,0,0,0-1.683-.555v-2.909a1.823,1.823,0,0,1,.458.31,1.889,1.889,0,0,1,.556,1.436,1.184,1.184,0,1,0,2.368,0,4.249,4.249,0,0,0-1.3-3.163A4.381,4.381,0,0,0,550.1,361.78Zm-2.368,2.485a1.824,1.824,0,0,0-.458.31,1.889,1.889,0,0,0-.556,1.436.41.41,0,0,0,.063.264.833.833,0,0,0,.32.225,3.659,3.659,0,0,0,.632.218Zm2.368,5.345v1.955a2.86,2.86,0,0,0,.35-.164,1.064,1.064,0,0,0,.665-.951.6.6,0,0,0-.085-.36.861.861,0,0,0-.33-.255A3.227,3.227,0,0,0,550.1,369.61Z" transform="translate(-532 -351)"/>
</svg>
