<svg xmlns="http://www.w3.org/2000/svg" width="33.827" height="35.011" viewBox="0 0 33.827 35.011">
  <defs>
    <style>
      .cls-1{
        fill: #222628;
      }
    </style>
  </defs>
  <g id="MonitorIcon" transform="translate(0)">
    <path id="Path_6801" data-name="Path 6801" class="cls-1" d="M46,256.531c0-4.736,0-7.1.922-8.913a8.45,8.45,0,0,1,3.7-3.7C52.426,243,54.794,243,59.531,243H66.3c4.736,0,7.1,0,8.913.922a8.45,8.45,0,0,1,3.7,3.7c.922,1.81.922,4.177.922,8.913s0,7.1-.922,8.913a8.45,8.45,0,0,1-3.7,3.7c-1.809.922-4.177.922-8.913.922H59.531c-4.736,0-7.1,0-8.913-.922a8.45,8.45,0,0,1-3.7-3.7C46,263.634,46,261.266,46,256.531Z" transform="translate(-46 -243)"/>
    <path id="Path_6802" style="fill-rule: evenodd" data-name="Path 6802" class="cls-1" d="M59.249,258.3a1.184,1.184,0,0,1,1.184,1.184v3.408l6,2.248a1.184,1.184,0,0,1-.416,2.293H52.484a1.184,1.184,0,0,1-.416-2.293l6-2.248v-3.408A1.184,1.184,0,0,1,59.249,258.3Z" transform="translate(-42.335 -232.422)"/>
  </g>
</svg>
