<svg id="NetworkIcon" xmlns="http://www.w3.org/2000/svg" width="35.246" height="35.246" viewBox="0 0 35.246 35.246">
  <path id="Path_3741" d="M278.456,185.979a4.13,4.13,0,0,1-3.635-3.072H271v10.064h7.076A28.59,28.59,0,0,0,278.456,185.979Z" transform="translate(-252.344 -170.316)"/>
  <path id="Path_3742" d="M356.656,138.037a2.056,2.056,0,1,0,2.056,2.056A2.059,2.059,0,0,0,356.656,138.037Z" transform="translate(-330.189 -128.535)"/>
  <ellipse id="Ellipse_456"  cx="3.105" cy="3.105" rx="3.105" ry="3.105" transform="translate(5.575 20.65)"/>
  <path id="Path_3743"  d="M151.53,0a17,17,0,0,0-5.6,7.513,23.343,23.343,0,0,0-1.018,3.013h6.614Z" transform="translate(-134.94 0)"/>
  <path id="Path_3744"  d="M131.759,188.918a5.18,5.18,0,0,1,4.646,4.053h2.859V182.907H132.19A28.548,28.548,0,0,0,131.759,188.918Z" transform="translate(-122.673 -170.316)"/>
  <path id="Path_3745"  d="M168.263,369.619V359.093h-2.831a5.185,5.185,0,0,1-2.546,3.54A16.042,16.042,0,0,0,168.263,369.619Z" transform="translate(-151.673 -334.373)"/>
  <path id="Path_3746"  d="M271,369.619a17.154,17.154,0,0,0,5.778-7.959,23.651,23.651,0,0,0,.839-2.567H271Z" transform="translate(-252.344 -334.373)"/>
  <path id="Path_3747"  d="M327.337,362.416a19.961,19.961,0,0,1-4.1,6.588,17.663,17.663,0,0,0,11.506-9.911h-6.355A25.971,25.971,0,0,1,327.337,362.416Z" transform="translate(-300.982 -334.374)"/>
  <path id="Path_3748"  d="M28.817,363.3a5.178,5.178,0,0,1-5.079-4.206H21.626a17.664,17.664,0,0,0,11.446,9.895,18.758,18.758,0,0,1-3.7-5.719A5.185,5.185,0,0,1,28.817,363.3Z" transform="translate(-20.137 -334.373)"/>
  <path id="Path_3749"  d="M404.553,185.632a30.755,30.755,0,0,1-.331,7.339h6.689a17.7,17.7,0,0,0,0-10.064h-4.058A4.139,4.139,0,0,1,404.553,185.632Z" transform="translate(-376.395 -170.316)"/>
  <path id="Path_3750"  d="M7.028,189.173a30.713,30.713,0,0,1,.394-6.266H.73a17.7,17.7,0,0,0,0,10.064h2.9a5.188,5.188,0,0,1,3.4-3.8Z" transform="translate(0 -170.316)"/>
  <path id="Path_3751"  d="M327.407,15.758h.021a4.129,4.129,0,0,1,3.99,3.089h3.3a17.663,17.663,0,0,0-11.508-9.911,17.285,17.285,0,0,1,1.142,1.317A21.026,21.026,0,0,1,327.407,15.758Z" transform="translate(-300.961 -8.32)"/>
  <path id="Path_3752"  d="M271,0V10.526h3.821a4.138,4.138,0,0,1,1.962-2.553C275.764,5.371,274,2.05,271,0Z" transform="translate(-252.344 0)"/>
  <path id="Path_3753"  d="M29.225,15.033a19.736,19.736,0,0,1,3.908-6.1,17.664,17.664,0,0,0-11.508,9.911h6.357A25.659,25.659,0,0,1,29.225,15.033Z" transform="translate(-20.136 -8.317)"/>
</svg>
