<svg id="NotificationIcon" xmlns="http://www.w3.org/2000/svg" width="30.444" height="36.702" viewBox="0 0 30.444 36.702">
  <defs>
    <style>
      .cls-1, .cls-2 {
        fill: #222628;
      }


    </style>
  </defs>
  <path id="Path_6903" style="fill-rule: evenodd" data-name="Path 6903" class="cls-1" d="M116.222,433.753c9.089,0,15.222-1.855,15.222-6.493s-1.691-4.638-3.044-5.564c0-5.534-2.03-16.7-12.178-16.7s-12.178,11.161-12.178,16.7A5.921,5.921,0,0,0,101,427.26C101,432.826,107.134,433.753,116.222,433.753Z" transform="translate(-101 -402.125)"/>
  <path id="Path_6904" data-name="Path 6904" class="cls-2" d="M111.755,426.383a5.252,5.252,0,0,0,3.98-1.536c.761-.8.029-1.847-1.072-1.847h-5.815c-1.1,0-1.833,1.052-1.072,1.847A5.252,5.252,0,0,0,111.755,426.383Z" transform="translate(-96.533 -389.681)"/>
  <path id="Path_6905" style="fill-rule: evenodd" data-name="Path 6905" class="cls-1" d="M110.484,403.3a1.183,1.183,0,0,1,1.184,1.184v1.691a1.184,1.184,0,0,1-2.368,0v-1.691A1.184,1.184,0,0,1,110.484,403.3Z" transform="translate(-95.261 -403.3)"/>
</svg>
