<svg xmlns="http://www.w3.org/2000/svg" width="31.115" height="36.592" viewBox="0 0 31.115 36.592">
  <g id="Person" transform="translate(0 0)">
    <path id="Path_7658"  d="M802.434,316.063c.073-.721.11-1.081.156-1.332a6.454,6.454,0,0,1,6.525-5.435c.256,0,.67.035,1.5.1,2.453.194,5.164.351,7.538.351,2.254,0,4.67-.141,6.84-.322.828-.071,1.242-.1,1.476-.108a6.4,6.4,0,0,1,6.507,5.02c.055.227.115.569.234,1.251s.178,1.01.2,1.286a6.619,6.619,0,0,1-6.042,7.189c-.273.022-.616.022-1.3.022h-16.4c-.673,0-1.008,0-1.284-.022a6.618,6.618,0,0,1-6.064-6.721C802.33,317.066,802.365,316.731,802.434,316.063Z" transform="translate(-802.325 -287.493)"/>
    <path id="Path_7659"  d="M806,305.72a7.72,7.72,0,0,1,15.441,0v1.1a6.617,6.617,0,0,1-6.617,6.617h-2.206A6.617,6.617,0,0,1,806,306.823Z" transform="translate(-797.896 -298)"/>
  </g>
</svg>
