<svg xmlns="http://www.w3.org/2000/svg" width="27.148" height="41.634" viewBox="0 0 27.148 41.634">
  <path id="Subtraction_7"  d="M13.572,41.634c-5.439,0-8.17,0-10.124-1.4a8.046,8.046,0,0,1-2.142-2.3C0,35.832,0,32.9,0,27.063V14.571C0,8.731,0,5.8,1.307,3.7A7.992,7.992,0,0,1,3.449,1.4C5.4,0,8.133,0,13.572,0S21.742,0,23.7,1.4a7.96,7.96,0,0,1,2.139,2.3c1.31,2.1,1.31,5.029,1.31,10.868V27.063c0,5.838,0,8.769-1.31,10.868a7.987,7.987,0,0,1-2.139,2.3C21.742,41.634,19.012,41.634,13.572,41.634Zm-.58-7.077a1.46,1.46,0,0,0,0,2.913h1.163a1.46,1.46,0,0,0,0-2.913Zm.58-32.129c-4.8,0-7.215,0-8.944,1.014A6.508,6.508,0,0,0,2.737,5.1C1.582,6.619,1.582,8.736,1.582,12.953v9.022c0,4.217,0,6.334,1.155,7.85a6.457,6.457,0,0,0,1.891,1.66C6.358,32.5,8.769,32.5,13.572,32.5s7.218,0,8.946-1.014a6.457,6.457,0,0,0,1.891-1.66c1.155-1.516,1.155-3.633,1.155-7.85V12.953c0-4.217,0-6.334-1.155-7.852a6.508,6.508,0,0,0-1.891-1.66C20.791,2.428,18.378,2.428,13.572,2.428Z" />
</svg>
