<svg xmlns="http://www.w3.org/2000/svg" width="31.827" height="32.563" viewBox="0 0 31.827 32.563">
  <g id="PhoneIcon" transform="translate(0)">
    <path id="Path_6957" d="M761.02,251.861c-.884,1.339-2.945,3.264-2.945,4.824,0,1.807,1.925,5.446,4.425,7.916s4.618,3.864,6.448,3.864c1.245,0,1.872-3,5.2-3,2.5,0,5.674,2.718,6.58,5.723.518,1.723-1.515,3.278-3.8,4.36a11.008,11.008,0,0,1-5.767.966c-3.6-.348-8.733-1.771-14.9-7.615-7.071-7.678-7.428-12.709-7.249-17.62s4.53-7.274,6-7.274c1.365,0,5.641,3.693,6.252,6.609A1.648,1.648,0,0,1,761.02,251.861Z" transform="translate(-748.982 -244)"/>
  </g>
</svg>
