<svg xmlns="http://www.w3.org/2000/svg" width="53.485" height="48.442" viewBox="0 0 53.485 48.442">
  <path id="Union_11" data-name="Union 11" d="M15.174,46.81a9.271,9.271,0,0,1-2.448-2.675,12.214,12.214,0,0,1-1.392-5.854H7.786l2.82,2.933L7.365,44.32.626,37.31a2.239,2.239,0,0,1,.066-3.172L7.431,27.69l3.109,3.238-3,2.867h3.691c0-.723,0-1.489,0-2.305V16.954c0-6.795,0-10.2,1.493-12.645a9.2,9.2,0,0,1,2.448-2.676C17.407,0,20.525,0,26.742,0s9.336,0,11.573,1.632a9.207,9.207,0,0,1,2.444,2.676c1.015,1.655,1.342,3.755,1.447,7.055H45.7L42.881,8.431l3.241-3.106,6.739,7.01a2.242,2.242,0,0,1-.066,3.172l-6.74,6.45-3.107-3.24,3-2.867H42.256q0,.537,0,1.1V31.49c0,6.793,0,10.2-1.5,12.645a9.246,9.246,0,0,1-2.444,2.675c-2.237,1.632-5.357,1.632-11.573,1.632S17.407,48.442,15.174,46.81ZM24.526,41.9a1.632,1.632,0,0,0,1.553,1.7h1.329a1.7,1.7,0,0,0,0-3.391H26.08A1.631,1.631,0,0,0,24.526,41.9Zm-8.005-37.9a7.467,7.467,0,0,0-2.161,1.93c-1.319,1.766-1.319,4.23-1.319,9.136v10.5c0,4.906,0,7.37,1.319,9.134a7.419,7.419,0,0,0,2.161,1.932c1.976,1.18,4.73,1.18,10.221,1.18s8.249,0,10.223-1.18A7.467,7.467,0,0,0,39.127,34.7c1.319-1.764,1.319-4.228,1.319-9.134v-10.5c0-4.906,0-7.37-1.319-9.136a7.516,7.516,0,0,0-2.161-1.93c-1.974-1.18-4.732-1.18-10.223-1.18S18.5,2.825,16.521,4.005Zm8.228,26.589V28.6h-3.99V24.618h6.982a1,1,0,1,0,0-1.992h-2a4.98,4.98,0,0,1-1-9.861v-2.09h3.99v1.992h3.988v3.983H25.746a1,1,0,1,0,0,1.992h2a4.98,4.98,0,0,1,1,9.861v2.092Z" fill=""/>
</svg>
