<svg id="PieChartIcon" xmlns="http://www.w3.org/2000/svg" width="32.036" height="32.038" viewBox="0 0 32.036 32.038">
  <path id="Path_7022" d="M375,368.336c-1.274,0-1.91,0-2.386.413a1.88,1.88,0,0,0-.375.465c-.3.553-.189,1.082.039,2.145a14.377,14.377,0,1,0,17.077-17.077c-1.06-.228-1.592-.342-2.145-.039a1.888,1.888,0,0,0-.465.376c-.413.477-.413,1.113-.413,2.386v5.243c0,2.537,0,3.805-.646,4.693a3.376,3.376,0,0,1-.748.749c-.89.646-2.158.646-4.7.646Z" transform="translate(-368.676 -350.674)"/>
  <path id="Path_7023"  d="M373,365.491c-1.265,0-1.9,0-2.368-.392a1.8,1.8,0,0,1-.377-.446c-.31-.528-.217-1.082-.031-2.19a12.133,12.133,0,0,1,10.233-10.232c1.108-.186,1.662-.279,2.19.03a1.8,1.8,0,0,1,.447.377c.392.47.392,1.1.392,2.368v4.4c0,2.537,0,3.806-.646,4.7a3.406,3.406,0,0,1-.748.748c-.89.646-2.158.646-4.7.646Z" transform="translate(-370.058 -352.058)"/>
</svg>
