<svg id="PlusSquareIcon" xmlns="http://www.w3.org/2000/svg" width="36.244" height="36.244" viewBox="0 0 36.244 36.244">
  <defs>
    <style>
      .cls-1 {
        fill: #222628;
      }
    </style>
  </defs>
  <path id="Path_7005" style="fill-rule: evenodd" data-name="Path 7005" class="cls-1" d="M586,153.122c0-6.774,0-10.163,1.457-12.685a10.858,10.858,0,0,1,3.98-3.98C593.959,135,597.348,135,604.122,135s10.163,0,12.685,1.457a10.857,10.857,0,0,1,3.98,3.98c1.457,2.523,1.457,5.911,1.457,12.685s0,10.163-1.457,12.685a10.857,10.857,0,0,1-3.98,3.98c-2.522,1.457-5.912,1.457-12.685,1.457s-10.163,0-12.685-1.457a10.858,10.858,0,0,1-3.98-3.98C586,163.285,586,159.9,586,153.122Zm25.431,0a1.268,1.268,0,0,1-1.269,1.269H605.39v4.771a1.269,1.269,0,1,1-2.537,0v-4.771h-4.772a1.269,1.269,0,1,1,0-2.537h4.772v-4.771a1.269,1.269,0,1,1,2.537,0v4.771h4.771A1.268,1.268,0,0,1,611.431,153.122Z" transform="translate(-586 -135)"/>
</svg>
