<svg xmlns="http://www.w3.org/2000/svg" width="33.827" height="33.827" viewBox="0 0 33.827 33.827">

  <path id="PlusIcon" style="fill-rule: evenodd" d="M964,205.913c0-6.322,0-9.485,1.36-11.839a10.134,10.134,0,0,1,3.714-3.714c2.354-1.36,5.517-1.36,11.839-1.36s9.485,0,11.84,1.36a10.134,10.134,0,0,1,3.714,3.714c1.36,2.354,1.36,5.517,1.36,11.839s0,9.485-1.36,11.839a10.134,10.134,0,0,1-3.714,3.714c-2.355,1.36-5.518,1.36-11.84,1.36s-9.485,0-11.839-1.36a10.134,10.134,0,0,1-3.714-3.714C964,215.4,964,212.236,964,205.913Zm24.017,0a1.183,1.183,0,0,1-1.184,1.184H982.1v4.736a1.184,1.184,0,0,1-2.368,0V207.1h-4.735a1.184,1.184,0,0,1,0-2.368h4.735v-4.736a1.184,1.184,0,0,1,2.368,0v4.736h4.736A1.183,1.183,0,0,1,988.017,205.913Z" transform="translate(-964 -189)"/>
</svg>
