<svg xmlns="http://www.w3.org/2000/svg" width="36.288" height="38.942" viewBox="0 0 36.288 38.942">
  <g id="PowerIcon" transform="translate(-1677.667 -5385.864)">
    <g id="power-on_1_" data-name="power-on (1)" transform="translate(1677.667 5385.864)">
      <path id="Path_4070" data-name="Path 4070" d="M37.765,120.811A18.143,18.143,0,1,0,57.659,91.264c-.307-.131-.617-.249-.932-.364v6.276a12.4,12.4,0,1,1-12.265,0V90.9c-.311.114-.621.233-.932.364a18.137,18.137,0,0,0-5.765,29.547Z" transform="translate(-32.45 -87.184)" fill=""/>
      <path id="Path_4071" data-name="Path 4071" d="M409.112,20.924a2.86,2.86,0,0,0,2.862-2.862V2.862a2.862,2.862,0,0,0-5.724,0v15.2A2.859,2.859,0,0,0,409.112,20.924Z" transform="translate(-390.968 0)" fill=""/>
    </g>
  </g>
</svg>
