<svg id="PrinterIcon" xmlns="http://www.w3.org/2000/svg" width="38.245" height="38.244" viewBox="0 0 38.245 38.244">
  <path id="Path_2649" data-name="Path 2649" d="M230.889,58.343h5.139a1.5,1.5,0,1,0,0-3h-5.139a1.5,1.5,0,0,0,0,3Z" transform="translate(-212.213 -50.896)" />
  <path id="Path_2650" data-name="Path 2650" d="M241.07,115.487H230.889a1.5,1.5,0,0,0,0,3H241.07a1.5,1.5,0,0,0,0-3Z" transform="translate(-212.213 -106.64)" />
  <path id="Path_2651" data-name="Path 2651" d="M29.527,9.073V-3.071A2.432,2.432,0,0,0,27.1-5.5H9.433A2.432,2.432,0,0,0,7-3.071V9.073a4.422,4.422,0,0,0-1.719.941A4.412,4.412,0,0,0,2.361,8.906H-1.076A4.429,4.429,0,0,0-5.5,13.33V28.32a4.429,4.429,0,0,0,4.424,4.424H2.361a4.412,4.412,0,0,0,2.925-1.109,4.412,4.412,0,0,0,2.925,1.109h20.11a4.429,4.429,0,0,0,4.424-4.424V13.33A4.427,4.427,0,0,0,29.527,9.073ZM10,8.906V-2.5H26.529V8.906ZM-2.5,13.33A1.428,1.428,0,0,1-1.076,11.9H2.361A1.428,1.428,0,0,1,3.787,13.33V28.32a1.428,1.428,0,0,1-1.426,1.426H-1.076A1.428,1.428,0,0,1-2.5,28.32Z" transform="translate(5.5 5.5)" />
</svg>
