<svg xmlns="http://www.w3.org/2000/svg" width="38.172" height="38.172" viewBox="0 0 38.172 38.172">
  <defs>
    <style>
      .cls-1 {
        fill: #2c2c2c;
      }
    </style>
  </defs>
  <path id="QuestionIcon" style="fill-rule: evenodd" class="cls-1" d="M154,532.086c0-7.134,0-10.7,1.534-13.36a11.437,11.437,0,0,1,4.191-4.191C162.382,513,165.951,513,173.086,513s10.7,0,13.36,1.534a11.437,11.437,0,0,1,4.191,4.191c1.535,2.657,1.535,6.226,1.535,13.36s0,10.7-1.535,13.36a11.435,11.435,0,0,1-4.191,4.191c-2.657,1.535-6.226,1.535-13.36,1.535s-10.7,0-13.36-1.535a11.435,11.435,0,0,1-4.191-4.191C154,542.789,154,539.22,154,532.086Zm12.978-3.34a5.63,5.63,0,0,1,11.261-.055,5.581,5.581,0,0,1-1.221,3.483l-2.888,3.609a1.336,1.336,0,1,1-2.088-1.668l2.89-3.611a2.9,2.9,0,0,0-2.294-4.716,2.983,2.983,0,0,0-2.987,2.958v.477a1.336,1.336,0,1,1-2.672,0Zm6.107,9.68a1.5,1.5,0,1,0,1.494,1.5A1.495,1.495,0,0,0,173.086,538.426Z" transform="translate(-154 -513)"/>
</svg>
