<svg xmlns="http://www.w3.org/2000/svg" width="43.548" height="43.49" viewBox="0 0 43.548 43.49">
  <path id="RechargeIcon" d="M-.008,21.653A21.469,21.469,0,0,1,8.639,4.709c5.615-4.047,13.7-5.29,23.922-.8-.192-.569-.39-1.136-.546-1.552-.073-.224-.142-.4-.187-.528l-.053-.144-.018-.043A.877.877,0,1,1,33.4,1.028l.018.055.055.151c.043.126.114.3.2.528.16.446.363,1.035.569,1.652.206.6.411,1.232.546,1.75a6.956,6.956,0,0,1,.16.715,1.871,1.871,0,0,1,.027.331,1.011,1.011,0,0,1-.126.562,1.231,1.231,0,0,1-.409.4c-.1.053-.206.107-.295.151a6.52,6.52,0,0,1-.7.233c-.511.151-1.153.313-1.776.455s-1.242.286-1.706.375c-.221.055-.42.089-.555.117l-.151.037L29.2,8.55a.878.878,0,0,1-1.025-.688.891.891,0,0,1,.7-1.037l.043-.009.151-.027c.135-.025.322-.062.546-.114.425-.085.984-.208,1.55-.338-9.343-4.015-16.269-2.692-20.883.633a18.669,18.669,0,0,0-7.5,14.684,18.489,18.489,0,1,0,36.979,0,1.392,1.392,0,1,1,2.783,0,21.274,21.274,0,1,1-42.548,0Zm7.729.916A13.541,13.541,0,1,1,21.257,36.125,13.555,13.555,0,0,1,7.721,22.57Zm7.092,0A1.123,1.123,0,0,0,15.932,23.7H20.14V27.91a1.122,1.122,0,0,0,2.245,0V23.7H26.6a1.122,1.122,0,0,0,0-2.244h-4.21V17.238a1.122,1.122,0,0,0-2.245,0v4.214H15.932A1.118,1.118,0,0,0,14.813,22.57Z" transform="translate(0.508 0.05)"  stroke="rgba(0,0,0,0)" stroke-miterlimit="10" stroke-width="1"/>
</svg>
