<svg xmlns="http://www.w3.org/2000/svg" width="33.827" height="33.827" viewBox="0 0 33.827 33.827">
  <defs>
    <style>
      .cls-1 {
        fill-rule: evenodd;
      }
    </style>
  </defs>
  <path id="RightArrowSquare" class="cls-1" d="M371.36,635.074c-1.36,2.354-1.36,5.517-1.36,11.839s0,9.485,1.36,11.839a10.134,10.134,0,0,0,3.714,3.714c2.354,1.36,5.517,1.36,11.839,1.36s9.485,0,11.839-1.36a10.134,10.134,0,0,0,3.714-3.714c1.36-2.354,1.36-5.517,1.36-11.839s0-9.485-1.36-11.839a10.136,10.136,0,0,0-3.714-3.714C396.4,630,393.235,630,386.913,630s-9.485,0-11.839,1.36A10.136,10.136,0,0,0,371.36,635.074Zm20.088,5.906a1.183,1.183,0,0,0-1.627,1.718h0v0l0,0,.008.01.039.035.149.142c.127.122.311.3.531.511.44.426,1.025,1,1.61,1.588.247.248.492.5.724.741H378.457a1.184,1.184,0,0,0,0,2.368h14.429c-.232.242-.477.492-.724.741-.585.59-1.17,1.162-1.61,1.588-.22.213-.4.389-.531.511l-.149.142-.039.036-.008.01,0,0v0h0a1.183,1.183,0,1,0,1.627,1.718h0l0,0,.012-.01.041-.037.152-.146c.13-.125.318-.3.541-.521.448-.433,1.047-1.018,1.646-1.624s1.208-1.236,1.676-1.767c.23-.262.445-.519.607-.744a3.4,3.4,0,0,0,.237-.37h0a1.41,1.41,0,0,0,0-1.418v0a3.407,3.407,0,0,0-.237-.37c-.162-.225-.377-.482-.607-.744-.469-.531-1.079-1.165-1.676-1.768s-1.2-1.19-1.646-1.623c-.223-.216-.411-.4-.541-.521l-.152-.146-.041-.037-.012-.01,0,0Z" transform="translate(-370 -630)"/>
</svg>
