<svg xmlns="http://www.w3.org/2000/svg" width="28.583" height="19.281" viewBox="0 0 28.583 19.281">
  <defs>
    <style>
      .cls-1 {
        fill: #222628;
      }
    </style>
  </defs>
  <g id="RightArrowIcon" transform="translate(0)">
    <path id="Union_151" data-name="Union 151" class="cls-1" d="M7.934,18.908l-.328-.348c-.209-.221-.507-.539-.864-.921-.716-.764-1.669-1.789-2.623-2.823s-1.912-2.088-2.634-2.909c-.36-.41-.669-.771-.9-1.05-.109-.136-.213-.269-.292-.383a2.162,2.162,0,0,1-.131-.211,1.436,1.436,0,0,1-.085-.181A1.263,1.263,0,0,1,0,9.64,1.244,1.244,0,0,1,.082,9.2a1.408,1.408,0,0,1,.085-.183A2.162,2.162,0,0,1,.3,8.807c.079-.116.183-.248.292-.385.226-.277.535-.639.9-1.048C2.207,6.553,3.167,5.5,4.119,4.466S6.026,2.406,6.742,1.643c.357-.384.655-.7.864-.923L7.934.372l.861.812.861.812-.325.348c-.207.221-.5.537-.861.918-.711.76-1.66,1.779-2.609,2.809-.77.836-1.535,1.675-2.172,2.388H27.4a1.184,1.184,0,0,1,0,2.368H3.691c.636.714,1.4,1.552,2.17,2.385.949,1.03,1.9,2.05,2.609,2.812l.861.917.325.346a1.183,1.183,0,1,1-1.722,1.623ZM9.656,1.995l-.861-.812L7.934.372A1.183,1.183,0,1,1,9.656,1.995Z" transform="translate(0)"/>
  </g>
</svg>
