<svg id="RightShakingPersonIcon" xmlns="http://www.w3.org/2000/svg" width="35.925" height="34.776" viewBox="0 0 35.925 34.776">
  <defs>
    <style>
      .cls-1 {
        fill-rule: evenodd;
      }
    </style>
  </defs>
  <path id="Path_6925"  class="cls-1" d="M545.006,299.934a1.381,1.381,0,0,1,1.273-1.478l.1,1.376c-.1-1.376-.1-1.376-.1-1.376h.014l.022,0,.063,0c.049,0,.114,0,.193,0,.16,0,.375.01.633.038a6.378,6.378,0,0,1,1.94.534,6.057,6.057,0,0,1,3.425,5.117,5.807,5.807,0,0,1-2.129,5.723,6.147,6.147,0,0,1-1.782.911c-.246.079-.456.128-.611.162-.077.016-.142.028-.189.035-.026,0-.046.006-.064.01l-.021,0-.008,0h-.006s0,0-.169-1.37l.167,1.37a1.38,1.38,0,0,1-.349-2.738h0l0,0,0,0h.006l.075-.014c.071-.016.185-.043.325-.087a3.42,3.42,0,0,0,.976-.495c.585-.436,1.273-1.279,1.039-3.175a3.325,3.325,0,0,0-1.837-2.946,3.579,3.579,0,0,0-1.1-.3,2.9,2.9,0,0,0-.341-.022h-.077l-.008,0a.027.027,0,0,1,.012,0m-1.478-1.273a1.381,1.381,0,0,0,1.466,1.275Zm2.412,8.309h0Z" transform="translate(-521.784 -298.448)"/>
  <path id="Path_6926"  d="M533.277,315.615c.045-.648.069-.974.1-1.173a5.691,5.691,0,0,1,5.879-5.091c.2,0,.6.03,1.407.087,1.488.108,3.067.183,4.565.183,1.707,0,3.589-.1,5.355-.229.774-.057,1.163-.085,1.384-.085a5.74,5.74,0,0,1,5.846,5.051c.032.219.055.546.1,1.2.039.554.059.832.057,1.062a5.911,5.911,0,0,1-5.452,5.856c-.231.018-.508.018-1.064.018H539.685c-.507,0-.759,0-.97-.014a5.915,5.915,0,0,1-5.493-5.9C533.222,316.374,533.24,316.122,533.277,315.615Z" transform="translate(-533.222 -287.902)"/>
  <path id="Path_6927"  class="cls-1" d="M548.815,312.029a1.379,1.379,0,0,1-.871-2.617l.436,1.309-.436-1.309h0l0,0,.006,0,.023-.008c.016-.006.04-.012.067-.022.057-.016.136-.04.233-.065.193-.051.463-.116.784-.173a8.176,8.176,0,0,1,2.458-.079,4.693,4.693,0,0,1,2.858,1.4,5.4,5.4,0,0,1,1.293,3.757,9.62,9.62,0,0,1-.643,5.29,5.768,5.768,0,0,1-2.716,2.755,7.345,7.345,0,0,1-2.791.7,7.938,7.938,0,0,1-.928,0c-.117-.006-.211-.014-.28-.022l-.085-.01-.028,0-.01,0h-.006s0,0,.193-1.366l-.2,1.366a1.379,1.379,0,0,1,.384-2.732s0,0,0,0m0,0h0l.029,0c.032,0,.085.008.156.012a5.145,5.145,0,0,0,.609,0,4.6,4.6,0,0,0,1.736-.426,3.009,3.009,0,0,0,1.439-1.464,7.011,7.011,0,0,0,.384-3.857,1.515,1.515,0,0,1-.01-.164,2.746,2.746,0,0,0-.554-1.959,1.945,1.945,0,0,0-1.208-.542,5.339,5.339,0,0,0-1.606.061c-.233.041-.424.087-.556.122-.065.018-.114.032-.144.041l-.029.008h0m0,0,0,0h0A0,0,0,0,1,548.815,312.029Z" transform="translate(-519.844 -288.201)"/>
  <path id="Path_6928"  d="M536,305.9a6.9,6.9,0,0,1,13.8,0v.985a5.913,5.913,0,0,1-5.913,5.913h-1.971A5.912,5.912,0,0,1,536,306.884Z" transform="translate(-530.525 -297.91)"/>
</svg>
