<svg xmlns="http://www.w3.org/2000/svg" width="39.355" height="39.351" viewBox="0 0 39.355 39.351">
  <g id="Group_8561" data-name="Group 8561" transform="translate(0)">
    <g id="Group_8436" data-name="Group 8436" transform="translate(0 0)">
      <g id="Group_6159" data-name="Group 6159">
        <path id="Path_2086" data-name="Path 2086" d="M1083.708,173.935a13.773,13.773,0,1,0,13.772,13.773A13.768,13.768,0,0,0,1083.708,173.935ZM1066,187.708a17.708,17.708,0,1,1,17.708,17.708A17.708,17.708,0,0,1,1066,187.708Z" transform="translate(-1066 -170)" fill="" fill-rule="evenodd"/>
        <path id="Path_2087" data-name="Path 2087" d="M1080.573,184.577a1.979,1.979,0,0,1,2.794,0l7.87,7.87a1.971,1.971,0,1,1-2.794,2.782l-7.87-7.87A1.97,1.97,0,0,1,1080.573,184.577Z" transform="translate(-1052.457 -156.455)" fill="" fill-rule="evenodd"/>
      </g>
    </g>
  </g>
</svg>
