<svg id="Group_9209" data-name="Group 9209" xmlns="http://www.w3.org/2000/svg" width="19.49" height="19.49" viewBox="0 0 19.49 19.49">
  <path id="Path_6910" data-name="Path 6910" d="M100.056,520.555c-.057.818-.057,1.845-.057,3.216,0,2.725,0,4.086.445,5.161a5.849,5.849,0,0,0,3.164,3.164c1.075.445,2.436.445,5.161.445h1.949c.876,0,1.611,0,2.241-.015v-.01h0c0-.887,0-1.588.039-2.154a4.715,4.715,0,0,1,.31-1.523,4.582,4.582,0,0,1,2.478-2.478,4.715,4.715,0,0,1,1.523-.31c.566-.039,1.267-.039,2.154-.039h.011c.015-.63.015-1.365.015-2.241,0-1.371,0-2.4-.057-3.216Zm.2-1.364h18.983a4.266,4.266,0,0,0-.192-.581,5.848,5.848,0,0,0-3.164-3.164c-1.075-.445-2.436-.445-5.161-.445H108.77c-2.725,0-4.086,0-5.161.445a5.848,5.848,0,0,0-3.164,3.164A4.264,4.264,0,0,0,100.253,519.19ZM115.88,532.1a5.435,5.435,0,0,1-1.555.356c0-.871,0-1.5.035-2a3.432,3.432,0,0,1,.209-1.093,3.22,3.22,0,0,1,1.74-1.74,3.434,3.434,0,0,1,1.093-.21c.5-.033,1.125-.035,2-.035a5.43,5.43,0,0,1-.356,1.555A5.848,5.848,0,0,1,115.88,532.1ZM103.9,523.088a.682.682,0,0,0,0,1.364h.487a.682.682,0,0,0,0-1.364Zm4.678.682a.682.682,0,0,1,.682-.682h.487a.682.682,0,0,1,0,1.364h-.487A.682.682,0,0,1,108.575,523.771Zm6.042-.682a.682.682,0,0,0,0,1.364h.487a.682.682,0,0,0,0-1.364Zm-11.4,5.555a.682.682,0,0,1,.682-.682h.487a.682.682,0,1,1,0,1.364H103.9A.682.682,0,0,1,103.216,528.643Zm6.042-.682a.682.682,0,1,0,0,1.364h.487a.682.682,0,1,0,0-1.364Z" transform="translate(-100 -513.051)" fill="" fill-rule="evenodd"/>
  <path id="Path_6911" data-name="Path 6911" d="M114.682,513a.682.682,0,0,1,.682.682v2.534a.682.682,0,0,1-1.364,0v-2.534A.682.682,0,0,1,114.682,513Z" transform="translate(-100.357 -513)" fill="#c7c7d2" fill-rule="evenodd"/>
  <path id="Path_6912" data-name="Path 6912" d="M105.682,513a.682.682,0,0,1,.682.682v2.534a.682.682,0,0,1-1.364,0v-2.534A.682.682,0,0,1,105.682,513Z" transform="translate(-100.127 -513)" fill="#c7c7d2" fill-rule="evenodd"/>
</svg>
