<svg id="SettingFormIcon" xmlns="http://www.w3.org/2000/svg" width="31.097" height="33.827" viewBox="0 0 31.097 33.827">
  <defs>
    <style>
      .cls-1 {
        fill: #222628;
      }
    </style>
  </defs>
  <path id="Path_7086" data-name="Path 7086" style="fill-rule: evenodd" class="cls-1" d="M715.842,193.47c-.257-2.192-1.473-4.47-5.424-4.47-3.643,0-4.961,1.938-5.345,3.958-.2,1.066-2.419,2.309-3.438,1.943-1.859-.665-4.084-.487-5.864,2.556-2.079,3.552-.734,5.707,1.013,6.95a2.676,2.676,0,0,1,.193,3.4,4.927,4.927,0,0,0-1.206,6.559c1.849,3,4.277,2.96,6.226,2.194a2.745,2.745,0,0,1,3,1.793c.257,2.192,1.473,4.47,5.424,4.47s5.167-2.278,5.424-4.47a2.745,2.745,0,0,1,3-1.793c1.948.766,4.377.8,6.226-2.194,1.8-3.425.012-5.717-1.815-7.041a1.987,1.987,0,0,1,0-2.831c1.827-1.324,3.616-3.616,1.815-7.041-1.849-3-4.278-2.96-6.226-2.194A2.745,2.745,0,0,1,715.842,193.47Zm-2.718,12.443a2.706,2.706,0,1,1-2.706-2.706A2.705,2.705,0,0,1,713.124,205.913Zm2.368,0a5.074,5.074,0,1,1-5.074-5.074A5.074,5.074,0,0,1,715.492,205.913Z" transform="translate(-694.716 -189)"/>
</svg>
