<svg xmlns="http://www.w3.org/2000/svg" width="38.171" height="38.171" viewBox="0 0 38.171 38.171">
  <g id="SettingsIcon" transform="translate(0)">
    <g id="Group_7762"  transform="translate(0)">
      <g id="Group_7761" >
        <path id="Path_6751"  d="M33.972,15.841a16.2,16.2,0,0,0-2.1-4.962l1.909-4.008L31.11,4.2,27.1,6.107A14.723,14.723,0,0,0,22.33,4.2L20.994,0H17.177L15.65,4.2a15.185,15.185,0,0,0-4.771,2.1L6.871,4.39,4.2,6.871l1.909,4.008A14.723,14.723,0,0,0,4.2,15.65L0,17.177v3.817l4.2,1.527a17.818,17.818,0,0,0,1.909,4.771L4.2,31.3l2.672,2.672,4.008-1.909a15.184,15.184,0,0,0,4.771,2.1l1.527,4.008h3.817l1.527-4.2c.573-.191,1.336-.382,1.909-.573l-3.054-3.054a11.47,11.47,0,1,1-2.29-22.712A11.287,11.287,0,0,1,30.346,20.613l3.245,3.245a4.492,4.492,0,0,0,.382-1.527l4.2-1.336V17.177Z"/>
      </g>
    </g>
    <g id="Group_7764"  transform="translate(11.516 11.164)">
      <g id="Group_7763" >
        <path id="Path_6752"  d="M180.362,171.79,169.1,160.53a7.644,7.644,0,0,0-8.97-10.5l3.436,3.435a3.779,3.779,0,0,1-5.344,5.344l-3.435-3.245a7.543,7.543,0,0,0,10.115,8.97L176.163,175.8a2.767,2.767,0,0,0,4.008,0A2.942,2.942,0,0,0,180.362,171.79Z" transform="translate(-154.47 -149.745)"/>
      </g>
    </g>
  </g>
</svg>
