<svg id="ShakingPersonIcon" xmlns="http://www.w3.org/2000/svg" width="41.889" height="32.763" viewBox="0 0 41.889 32.763">
  <path id="Path_6834"  d="M481.817,314.855a14.5,14.5,0,0,1,.18-1.8,4.609,4.609,0,0,1,4.346-3.737,17.461,17.461,0,0,1,1.987.105c1.618.128,3.378.224,5.04.224,1.852,0,3.919-.119,5.8-.268a15.663,15.663,0,0,1,1.968-.1,4.653,4.653,0,0,1,4.309,3.7,13.779,13.779,0,0,1,.185,1.821,14.844,14.844,0,0,1,.078,2.106,5.738,5.738,0,0,1-4.807,5.161,14.769,14.769,0,0,1-2.106.073H488.6a14.655,14.655,0,0,1-2.014-.067,5.738,5.738,0,0,1-4.849-5.206A14.761,14.761,0,0,1,481.817,314.855Z" transform="translate(-472.687 -289.38)"/>
  <path id="Path_6835"  d="M484.5,305.695a6.694,6.694,0,1,1,13.389,0v.956a5.738,5.738,0,0,1-5.738,5.738h-1.913a5.738,5.738,0,0,1-5.738-5.738Z" transform="translate(-470.154 -298.752)"/>
  <path id="Path_6836" style="fill-rule: evenodd"  d="M482.478,309.916a1.338,1.338,0,0,0-1.693-.847l.423,1.27c-.423-1.27-.425-1.27-.425-1.27l0,0h0l-.008,0-.017.006a.469.469,0,0,1-.05.017c-.038.015-.088.035-.145.059a4.719,4.719,0,0,0-.448.222,5.8,5.8,0,0,0-1.284.97,7.148,7.148,0,0,0,0,9.545,5.877,5.877,0,0,0,1.284.972,4.638,4.638,0,0,0,.448.22c.057.025.107.044.145.059.019.008.036.013.05.017l.017.008.008,0,0,0h0s0,0,.425-1.27l-.423,1.27a1.339,1.339,0,0,0,.863-2.534s-.017-.006-.036-.015c-.04-.017-.111-.05-.2-.1a3.132,3.132,0,0,1-.691-.524,4.5,4.5,0,0,1,0-5.757,3.132,3.132,0,0,1,.691-.524c.09-.05.161-.082.2-.1l.036-.015A1.337,1.337,0,0,0,482.478,309.916Z" transform="translate(-477 -289.626)"/>
  <path id="Path_6837" style="fill-rule: evenodd"  d="M496.069,309.916a1.34,1.34,0,0,1,1.695-.847l-.424,1.27.424-1.27,0,0h0l.008,0,.019.006a.43.43,0,0,0,.048.017c.038.015.088.035.145.059a4.966,4.966,0,0,1,.449.222,5.839,5.839,0,0,1,1.281.97,7.147,7.147,0,0,1,0,9.545,5.918,5.918,0,0,1-1.281.972,4.876,4.876,0,0,1-.449.22c-.057.025-.107.044-.145.059l-.048.017-.019.008-.008,0,0,0h0l-.424-1.27.424,1.27a1.339,1.339,0,0,1-.864-2.534.259.259,0,0,0,.036-.015c.04-.017.111-.05.2-.1a3.173,3.173,0,0,0,.689-.524,4.5,4.5,0,0,0,0-5.757,3.172,3.172,0,0,0-.689-.524c-.092-.05-.163-.082-.2-.1l-.036-.015A1.338,1.338,0,0,1,496.069,309.916Z" transform="translate(-459.658 -289.626)"/>
  <path id="Path_6838" style="fill-rule: evenodd"  d="M493.018,300.157a1.338,1.338,0,0,1,1.45-1.217l-.115,1.333c.115-1.333.115-1.333.117-1.333h.012l.019,0,.056.008c.044,0,.1.012.174.023.141.023.335.059.564.117a7.113,7.113,0,0,1,1.719.681,6.247,6.247,0,0,1,1.167,9.87,7.007,7.007,0,0,1-1.513,1.061c-.21.111-.39.191-.522.245-.067.029-.121.05-.162.065l-.054.019-.017.006-.008,0,0,0h0s0,0-.425-1.27l.423,1.27a1.339,1.339,0,0,1-.857-2.536l.01,0,.071-.027c.067-.029.174-.076.3-.144a4.329,4.329,0,0,0,.933-.654,3.568,3.568,0,0,0-.658-5.57,4.367,4.367,0,0,0-1.06-.419c-.143-.036-.258-.057-.331-.069a.653.653,0,0,0-.074-.01l-.01,0A1.34,1.34,0,0,1,493.018,300.157Z" transform="translate(-462.384 -298.811)"/>
  <path id="Path_6839"  d="M484.693,298.877c.736-.075,1.09.434,1.029,1.389a1.515,1.515,0,0,1-.886,1.283,3.157,3.157,0,0,0-.317.073,3.95,3.95,0,0,0-1.01.438,3.692,3.692,0,0,0-.359,5.692,3.883,3.883,0,0,0,.947.56c.13.055.237.092.3.113.034.012.057.017.069.021l.008,0a1.339,1.339,0,0,1-.618,2.605l-.088-.023c-.042-.012-.1-.027-.17-.05-.138-.042-.323-.107-.543-.2a6.614,6.614,0,0,1-1.591-.947,6.358,6.358,0,0,1,.637-10.055,6.638,6.638,0,0,1,1.7-.738c.229-.063.423-.1.564-.13l.262-.038Z" transform="translate(-474.905 -298.87)"/>
</svg>
