<svg xmlns="http://www.w3.org/2000/svg" width="46.928" height="30.025" viewBox="0 0 46.928 30.025">
  <path id="Union_81" data-name="Union 81" d="M0,14.906A15.124,15.124,0,0,1,15.314,0,14.947,14.947,0,0,1,25.335,4.115a1,1,0,0,1,0,1.458L22.637,8.111a1,1,0,0,1-1.37,0,9.313,9.313,0,1,0,2.528,9.993H16.467A1,1,0,0,1,15.46,17.1V13.417a1,1,0,0,1,1.007-1.007H30.022s-.009,3.345-.019,3.444a15.013,15.013,0,0,1-30-.949Zm38.531,7.12a.885.885,0,0,1-.883-.883v-3.6h-3.6a.886.886,0,0,1-.884-.885V13.63a.886.886,0,0,1,.884-.885h3.6v-3.6a.885.885,0,0,1,.883-.885h3.029a.885.885,0,0,1,.883.885v3.6h3.6a.886.886,0,0,1,.883.885v3.028a.886.886,0,0,1-.883.885h-3.6v3.6a.886.886,0,0,1-.883.883Z" />
</svg>
