<svg xmlns="http://www.w3.org/2000/svg" width="42.064" height="34.177" viewBox="0 0 42.064 34.177">
  <g id="twitter" transform="translate(0)">
    <g id="Group_2318" data-name="Group 2318" transform="translate(0 0)">
      <path id="Path_2403" data-name="Path 2403" d="M42.064,52.046A17.979,17.979,0,0,1,37.1,53.408a8.575,8.575,0,0,0,3.794-4.766,17.233,17.233,0,0,1-5.468,2.087,8.623,8.623,0,0,0-14.917,5.9,8.879,8.879,0,0,0,.2,1.966,24.409,24.409,0,0,1-17.775-9.02A8.626,8.626,0,0,0,5.579,61.1a8.516,8.516,0,0,1-3.9-1.062v.095A8.663,8.663,0,0,0,8.592,68.6a8.608,8.608,0,0,1-2.261.284A7.624,7.624,0,0,1,4.7,68.74a8.706,8.706,0,0,0,8.058,6.007A17.328,17.328,0,0,1,2.064,78.425,16.154,16.154,0,0,1,0,78.307a24.278,24.278,0,0,0,13.229,3.87c15.869,0,24.544-13.145,24.544-24.539,0-.381-.013-.749-.032-1.115A17.2,17.2,0,0,0,42.064,52.046Z" transform="translate(0 -48)" fill=""/>
    </g>
  </g>
</svg>
