<svg id="UnlockIcon" xmlns="http://www.w3.org/2000/svg" width="33.989" height="35.095" viewBox="0 0 33.989 35.095">
  <defs>
    <style>
      .cls-1, .cls-2 {
        fill: #222628;
      }

    </style>
  </defs>
  <path id="Path_6938" data-name="Path 6938" class="cls-1" d="M325.127,255.232a1.389,1.389,0,0,1-2.68.734v0l0,0,0-.01-.006-.024c0-.018-.01-.042-.018-.072-.014-.058-.032-.137-.052-.236-.038-.195-.083-.469-.117-.8a9.92,9.92,0,0,1,.087-2.644,9.61,9.61,0,0,1,4.689-6.694,1.188,1.188,0,0,1,.109-.06,9.1,9.1,0,0,1,8.439-.125,10.69,10.69,0,0,1,2.325,1.59c.268.242.476.455.621.611.074.079.129.143.171.193a.767.767,0,0,1,.05.06l.016.018.006.008,0,0,0,0a1.388,1.388,0,0,1-.218,1.951,1.418,1.418,0,0,1-1.969-.234q-.03-.036-.1-.113c-.1-.1-.242-.256-.441-.433a7.8,7.8,0,0,0-1.707-1.171,6.324,6.324,0,0,0-5.9.1,6.823,6.823,0,0,0-3.357,4.756,7.244,7.244,0,0,0-.061,1.9c.024.238.055.425.079.544.012.06.022.1.028.127Z" transform="translate(-312.748 -244.321)"/>
  <path id="Path_6939" style="fill-rule: evenodd" data-name="Path 6939" class="cls-2" d="M317.463,259.11a25.428,25.428,0,0,0,.181,3.79,23.986,23.986,0,0,0,.383,3.277,9.923,9.923,0,0,0,8.189,7.536,24.435,24.435,0,0,0,3.3.109h9.842a24.43,24.43,0,0,0,3.3-.109,9.922,9.922,0,0,0,8.189-7.536,23.975,23.975,0,0,0,.383-3.277,25.433,25.433,0,0,0,.181-3.79,9.928,9.928,0,0,0-8.258-8.975,25.739,25.739,0,0,0-3.792-.135h-9.842a25.739,25.739,0,0,0-3.792.135A9.927,9.927,0,0,0,317.463,259.11Zm15.581,6.771a1.39,1.39,0,0,0,2.779,0v-3.97a1.39,1.39,0,0,0-2.779,0Z" transform="translate(-317.439 -238.726)"/>
</svg>
