<svg xmlns="http://www.w3.org/2000/svg" width="19.281" height="28.583" viewBox="0 0 19.281 28.583">
  <g id="UpArrowIcon" transform="translate(0)">
    <path id="Union_153" d="M8.457,27.4V3.689c-.713.637-1.552,1.4-2.387,2.173C5.04,6.81,4.022,7.759,3.26,8.47l-.917.862L2,9.656A1.184,1.184,0,0,1,.371,7.934l.35-.328c.223-.21.539-.507.921-.864.765-.715,1.788-1.669,2.826-2.624S6.554,2.208,7.374,1.485c.409-.359.77-.669,1.048-.894C8.559.48,8.691.378,8.806.3A1.957,1.957,0,0,1,9.017.167,1.6,1.6,0,0,1,9.2.083a1.218,1.218,0,0,1,.881,0,1.484,1.484,0,0,1,.181.084A1.822,1.822,0,0,1,10.474.3c.116.08.248.182.383.293.278.224.641.534,1.05.894.822.722,1.873,1.681,2.909,2.633s2.059,1.909,2.823,2.624c.381.356.7.654.922.864l.348.328L18.1,8.8l-.811.86-.347-.324c-.22-.208-.536-.5-.918-.862-.76-.711-1.781-1.661-2.808-2.608-.835-.769-1.673-1.535-2.387-2.171V27.4a1.184,1.184,0,0,1-2.368,0ZM17.285,9.656,18.1,8.8l.813-.862a1.183,1.183,0,1,1-1.624,1.722Z"/>
  </g>
</svg>
