<svg xmlns="http://www.w3.org/2000/svg" width="30.444" height="33.827" viewBox="0 0 30.444 33.827">
  <defs>
    <style>
      .cls-1 {
        fill: #222628;
      }
    </style>
  </defs>
  <path id="UploadIcon" style="fill-rule: evenodd" class="cls-1" d="M101,204.682c0-1.088,0-1.945.034-2.659h2.121c2.32,0,4.151,0,5.612-.149a8.07,8.07,0,0,0,3.812-1.191,7.942,7.942,0,0,0,2.194-2.194,8.056,8.056,0,0,0,1.191-3.812c.149-1.461.149-3.293.149-5.612v-.059c.426-.007.915-.007,1.493-.007h1.661c5.074,0,7.611,0,9.389,1.292a6.756,6.756,0,0,1,1.5,1.5c1.292,1.778,1.292,4.315,1.292,9.389v9.472c0,5.074,0,7.611-1.292,9.389a6.756,6.756,0,0,1-1.5,1.5c-1.778,1.292-4.315,1.292-9.389,1.292h-6.089c-5.074,0-7.611,0-9.389-1.292a6.756,6.756,0,0,1-1.5-1.5C101,218.26,101,215.723,101,210.649Zm12.076-15.142a6.709,6.709,0,0,1,.668-.244c0,2.246-.007,3.87-.135,5.142a5.773,5.773,0,0,1-.805,2.737,5.583,5.583,0,0,1-1.539,1.541,5.781,5.781,0,0,1-2.737.8c-1.328.135-3.039.137-5.439.137h-1.646a6.684,6.684,0,0,1,.523-1.072c.634-1.057,1.641-1.854,3.653-3.449l4.426-3.5A14.231,14.231,0,0,1,113.076,189.54Zm1.962,27.029a1.184,1.184,0,0,0,2.368,0v-8.293l1.737,1.737a1.015,1.015,0,1,0,1.436-1.434l-3.64-3.64a1.01,1.01,0,0,0-.523-.279,1.053,1.053,0,0,0-.392,0,1,1,0,0,0-.519.277l-3.64,3.64a1.015,1.015,0,0,0,1.436,1.434l1.737-1.737Z" transform="translate(-101 -189)"/>
</svg>
