<svg xmlns="http://www.w3.org/2000/svg" width="36.592" height="32.933" viewBox="0 0 36.592 32.933">
  <defs>
    <style>
      .cls-1 {
        fill: #2c2c2c;
      }
    </style>
  </defs>
  <path id="WalletIcon" style="fill-rule: evenodd" class="cls-1" d="M424,368.466c0-6.861,0-10.291,1.747-12.7a9.152,9.152,0,0,1,2.024-2.024c2.4-1.747,5.835-1.747,12.7-1.747h3.659c6.861,0,10.291,0,12.7,1.747a9.153,9.153,0,0,1,2.024,2.024c1.045,1.438,1.465,3.242,1.634,5.926h-4.461a5.855,5.855,0,1,0,0,11.71h4.537c-.1,3.732-.445,6.014-1.711,7.756a9.151,9.151,0,0,1-2.024,2.024c-2.4,1.747-5.835,1.747-12.7,1.747h-3.659c-6.861,0-10.291,0-12.7-1.747a9.151,9.151,0,0,1-2.024-2.024C424,378.758,424,375.327,424,368.466Zm32.018-4.208h4.552c.022,1.242.022,2.635.022,4.208,0,.843,0,1.634,0,2.378h-4.57a3.293,3.293,0,1,1,0-6.586ZM432.6,375.053a1.281,1.281,0,1,0,0,2.561h4.757a1.281,1.281,0,0,0,0-2.561Z" transform="translate(-424 -352)"/>
</svg>
