<svg xmlns="http://www.w3.org/2000/svg" width="42.669" height="34.135" viewBox="0 0 42.669 34.135">
  <path id="WindowIcon" style="fill-rule: evenodd" class="cls-1" d="M154,422.361q0-.893,0-1.707h42.664q0,.813,0,1.707v3.413c0,6.4,0,9.6-1.63,11.843a8.521,8.521,0,0,1-1.888,1.888c-2.242,1.63-5.442,1.63-11.843,1.63H169.361c-6.4,0-9.6,0-11.843-1.63a8.522,8.522,0,0,1-1.888-1.888c-1.63-2.242-1.63-5.442-1.63-11.843Zm42.632-4.694h-42.6c.094-3.433.422-5.538,1.594-7.149a8.522,8.522,0,0,1,1.888-1.888C159.76,407,162.96,407,169.361,407h11.947c6.4,0,9.6,0,11.843,1.63a8.521,8.521,0,0,1,1.888,1.888C196.21,412.129,196.538,414.234,196.632,417.667Zm-5.724,17.921a1.493,1.493,0,0,0,0-2.987h-5.547a1.493,1.493,0,0,0,0,2.987Z" transform="translate(-154 -407)"/>
</svg>
