<svg viewBox="0 0 85 85" fill="none" xmlns="http://www.w3.org/2000/svg">
<path fill-rule="evenodd" clip-rule="evenodd" d="M18.8911 0H66.1089C76.544 0 85 8.45602 85 18.8911V66.1089C85 76.544 76.544 85 66.1089 85H18.8911C8.45602 85 0 76.544 0 66.1089V18.8911C0 8.45602 8.45602 0 18.8911 0Z" fill="#FFF1E7"/>
<path d="M60.07 31.57C59.63 31.57 59.22 31.77 58.95 32.11L58.93 32.14L58.91 32.11C58.64 31.77 58.23 31.57 57.79 31.57C57.01 31.57 56.38 32.18 56.38 32.94C56.38 33.75 56.87 34.47 57.71 35.13C57.92 35.3 58.15 35.46 58.39 35.61C58.53 35.7 58.88 35.91 58.88 35.91C58.92 35.93 58.97 35.93 59.01 35.91C59 35.91 59.36 35.69 59.5 35.59C59.75 35.42 59.97 35.26 60.19 35.09C61.02 34.41 61.52 33.7 61.52 32.95C61.52 32.2 60.89 31.58 60.11 31.58L60.07 31.57ZM22.02 23.32C21.98 22.89 21.59 22.57 21.16 22.61L17.66 22.95C17.23 22.99 16.91 23.38 16.95 23.81C16.99 24.22 17.33 24.52 17.73 24.52C17.76 24.52 17.78 24.52 17.81 24.52L21.31 24.18C21.74 24.14 22.06 23.75 22.02 23.32ZM35.32 22.08C35.36 22.49 35.7 22.79 36.1 22.79C36.13 22.79 36.15 22.79 36.18 22.79L39.68 22.45C40.11 22.41 40.43 22.02 40.39 21.59C40.35 21.16 39.96 20.84 39.53 20.88L36.03 21.22C35.6 21.26 35.28 21.65 35.32 22.08ZM32.45 18.86C32.6 18.98 32.77 19.04 32.95 19.04C33.18 19.04 33.4 18.94 33.56 18.75L35.79 16.04C36.07 15.7 36.02 15.21 35.68 14.93C35.34 14.65 34.85 14.7 34.57 15.04L32.34 17.75C32.06 18.09 32.11 18.58 32.45 18.86ZM19.92 18.2L22.98 19.93C23.1 20 23.24 20.03 23.37 20.03C23.64 20.03 23.91 19.89 24.06 19.63C24.27 19.25 24.14 18.77 23.76 18.56L20.7 16.83C20.32 16.62 19.84 16.75 19.63 17.13C19.42 17.51 19.55 17.99 19.93 18.2H19.92ZM27.38 17.32C27.42 17.73 27.76 18.03 28.16 18.03C28.19 18.03 28.21 18.03 28.24 18.03C28.67 17.99 28.99 17.6 28.95 17.17L28.61 13.68C28.57 13.25 28.18 12.93 27.75 12.97C27.32 13.01 27 13.4 27.04 13.83L27.38 17.32ZM53.69 40.63C54.27 42.01 54.57 43.47 54.57 44.97C54.57 46.47 54.27 47.94 53.69 49.31C53.13 50.64 52.32 51.83 51.3 52.86C50.27 53.88 49.08 54.69 47.75 55.25C46.37 55.83 44.91 56.13 43.4 56.13C41.89 56.13 40.43 55.83 39.05 55.25C37.72 54.69 36.53 53.88 35.5 52.86C34.47 51.84 33.67 50.64 33.11 49.31C32.53 47.93 32.23 46.47 32.23 44.97C32.23 43.47 32.53 42 33.11 40.63C33.67 39.3 34.48 38.11 35.5 37.08C36.52 36.05 37.72 35.25 39.05 34.69C40.43 34.11 41.89 33.81 43.4 33.81C44.91 33.81 46.37 34.11 47.75 34.69C49.08 35.25 50.27 36.06 51.3 37.08C52.33 38.1 53.13 39.3 53.69 40.63ZM52.99 44.97C52.99 42.41 51.99 40 50.18 38.19C48.37 36.38 45.96 35.38 43.4 35.38C40.84 35.38 38.43 36.38 36.62 38.19C34.81 40 33.81 42.41 33.81 44.97C33.81 47.53 34.81 49.94 36.62 51.75C38.43 53.56 40.84 54.56 43.4 54.56C45.96 54.56 48.37 53.56 50.18 51.75C51.99 49.94 52.99 47.53 52.99 44.97ZM43.6 38.34C41.33 38.34 39.47 39.07 38.21 40.46C37.06 41.72 36.46 43.46 36.46 45.48C36.46 45.91 36.81 46.27 37.25 46.27C37.69 46.27 38.04 45.92 38.04 45.48C38.04 43.85 38.5 42.48 39.38 41.51C40.35 40.45 41.77 39.91 43.61 39.91C44.04 39.91 44.4 39.56 44.4 39.12C44.4 38.68 44.05 38.33 43.61 38.33L43.6 38.34ZM68.23 43.66C68.23 44 68.22 52.04 67.2 56.07C66.55 58.66 64.61 60.71 62.14 61.41C61.39 61.62 60.27 61.8 58.7 61.95H58.66L57.62 61.99C57.34 64.04 57.84 65.8 59.15 67.36C59.49 67.77 59.53 68.33 59.26 68.81C59.02 69.22 58.6 69.47 58.14 69.47C58.06 69.47 57.98 69.47 57.91 69.45C55.7 69.05 53.81 68.21 52.14 66.87C50.74 65.75 49.52 64.3 48.43 62.46C45.67 62.52 43.56 62.52 43.29 62.52C42.88 62.52 39.21 62.52 35.1 62.38C29.62 62.2 26.03 61.88 24.42 61.42C21.95 60.72 20.01 58.67 19.36 56.08C18.34 52.06 18.33 44.01 18.33 43.67C18.33 43.33 18.34 35.29 19.36 31.26C20.01 28.67 21.95 26.62 24.42 25.92C24.52 25.89 24.35 25.86 24.35 25.86C24.32 25.4 24.25 24.25 24.35 23.54C24.45 22.84 24.87 22.26 25.44 22.02C26.09 21.75 28.06 21.62 28.67 21.58C29.28 21.53 31.25 21.39 31.93 21.57C32.53 21.73 33.03 22.25 33.22 22.92C33.43 23.65 33.52 24.78 33.53 25C33.53 25 34.34 24.98 35.09 24.96C39.2 24.83 42.87 24.82 43.28 24.82C43.69 24.82 47.36 24.82 51.47 24.96C56.95 25.14 60.54 25.46 62.15 25.92C64.62 26.62 66.56 28.67 67.21 31.26C68.23 35.28 68.24 43.33 68.24 43.67L68.23 43.66ZM25.89 25.61C27.31 25.39 29.33 25.22 31.95 25.08C31.92 24.67 31.83 23.82 31.7 23.34C31.65 23.16 31.55 23.08 31.52 23.08C31.23 23 29.86 23.05 28.78 23.14H28.76C27.67 23.2 26.32 23.35 26.04 23.46C26.01 23.47 25.92 23.56 25.9 23.75C25.84 24.18 25.86 24.99 25.9 25.61H25.89ZM66.66 43.66C66.66 43.33 66.65 35.48 65.68 31.64C65.16 29.59 63.64 27.98 61.71 27.43C58.82 26.61 48.38 26.39 43.27 26.39C38.16 26.39 27.72 26.61 24.83 27.43C22.9 27.98 21.38 29.59 20.86 31.64C19.89 35.48 19.88 43.33 19.88 43.66C19.88 43.99 19.89 51.84 20.86 55.68C21.38 57.73 22.9 59.34 24.83 59.89C27.72 60.71 38.16 60.93 43.27 60.93C43.59 60.93 45.77 60.94 49.32 60.84L49.37 60.94C51.44 64.74 54.02 66.91 57.46 67.74C56.87 66.91 56.46 66.01 56.22 65.08C55.9 63.82 55.96 62.23 56.5 60.53L58.58 60.38C60.02 60.24 61.08 60.07 61.72 59.89C63.65 59.34 65.17 57.73 65.69 55.68C66.66 51.84 66.67 43.99 66.67 43.66H66.66Z" fill="#FF8066"/>
</svg>
