<svg id="Component_16_1" data-name="Component 16 – 1" xmlns="http://www.w3.org/2000/svg"  width="33.584" height="33.583" viewBox="0 0 33.584 33.583">
  <defs>
    <linearGradient id="linear-gradient" x1="0.135" y1="0.88" x2="0.839" y2="0.141" >
      <stop offset="0" stop-color="#2c2c2c"/>
      <stop offset="1" stop-color="#737373"/>
    </linearGradient>
  </defs>
  <path id="Path_4082"  d="M169.542,119.07l-.011.008h0a12.823,12.823,0,0,1-13.787,0h0c-.2.128-.395.267-.588.406-.322.231-.638.472-.937.732q-.2.177-.4.361-.392.369-.754.769-.18.2-.352.408a16.829,16.829,0,0,0,2.962,1.737c.15.069.3.142.449.206a16.765,16.765,0,0,0,12.841.073,16.734,16.734,0,0,0,1.391,15.074q.285.453.6.886a13.083,13.083,0,0,0,2.626-3.126,12.833,12.833,0,0,1,0-13.338A13.084,13.084,0,0,0,169.542,119.07Z" transform="translate(-145.845 -113.143)" fill="#a7a5a5"/>
  <path id="Path_4083" d="M156.463,103.047a13.067,13.067,0,0,0-1.105,1.057,12.985,12.985,0,0,1,1.105-1.057q-.392-.544-.826-1.054a16.906,16.906,0,0,0-1.824-1.838q-.506-.438-1.046-.838a12.893,12.893,0,0,1-1.8,1.784,12.893,12.893,0,0,0,1.8-1.784,16.745,16.745,0,0,0-19.85,0c-.388.285-.762.589-1.124.905a16.957,16.957,0,0,0-1.745,1.771q-.467.549-.885,1.138a16.734,16.734,0,0,0,0,19.439q.392.55.825,1.068a16.9,16.9,0,0,0,1.805,1.84c.34.3.69.585,1.054.855a16.753,16.753,0,0,0,19.991,0c.336-.249.659-.514.975-.787a16.9,16.9,0,0,0,1.884-1.908q.4-.477.765-.984a16.737,16.737,0,0,0,0-19.607Zm-6.655-1.1h0Zm-6.965,23.773a12.787,12.787,0,0,1-7-2.08,12.826,12.826,0,0,1,14,0A12.787,12.787,0,0,1,142.843,125.719Zm-11.049-6.281a12.835,12.835,0,0,1,0-13.173,12.835,12.835,0,0,1,0,13.173Zm23.129-2.154c-.029.079-.059.156-.09.234-.023.059-.046.117-.069.175a12.849,12.849,0,0,1-.95,1.876l-.028-.048a13.083,13.083,0,0,1-2.626,3.126q-.313-.433-.6-.886a16.726,16.726,0,0,1-1.456-2.91,16.751,16.751,0,0,0-12.71.073,16.731,16.731,0,0,0-.065-12.312c-.152-.064-.3-.137-.449-.206q-.393-.18-.776-.379a16.66,16.66,0,0,1-2.186-1.358q.172-.208.352-.408.361-.4.754-.769.2-.185.4-.361c.3-.26.615-.5.937-.732.193-.139.387-.278.588-.406h0a12.823,12.823,0,0,1,13.787,0h0l.011-.008a13.084,13.084,0,0,1,4.038,4.2l.028-.048a12.834,12.834,0,0,1,.951,1.877c.023.056.045.113.067.17.031.079.062.158.091.238a12.852,12.852,0,0,1,0,8.863Z" transform="translate(-126.051 -96.059)" fill="url(#linear-gradient)"/>
</svg>
