<svg xmlns="http://www.w3.org/2000/svg" viewBox="0 0 40 40"><defs><clipPath id="a"><rect x="4.04" y="20" width="13.33" height="13.33" style="fill:none"/></clipPath><clipPath id="b"><rect x="22.63" y="20" width="13.33" height="13.33" style="fill:none"/></clipPath><clipPath id="c"><rect x="22.63" y="6.67" width="13.33" height="13.33" style="fill:none"/></clipPath><clipPath id="d"><rect x="26.67" y="13.33" width="13.33" height="13.33" style="fill:none"/></clipPath><clipPath id="e"><rect x="13.33" y="26.67" width="13.33" height="13.33" style="fill:none"/></clipPath><clipPath id="f"><rect y="13.33" width="13.33" height="13.33" style="fill:none"/></clipPath><clipPath id="g"><rect x="13.33" width="13.33" height="13.33" style="fill:none"/></clipPath><clipPath id="h"><rect x="4.04" y="6.67" width="13.33" height="13.33" style="fill:none"/></clipPath><clipPath id="i"><rect x="13.33" y="13.33" width="13.33" height="13.33" style="fill:none"/></clipPath></defs><path d="M12.58,33.33H8.83A4.73,4.73,0,0,1,4,28.64V24.69a4.81,4.81,0,0,1,4.79-4.78h3.75a4.81,4.81,0,0,1,4.79,4.78h0v3.85a4.75,4.75,0,0,1-4.79,4.79h0" style="fill:#fff"/><path d="M31.27,33.33H27.51a4.81,4.81,0,0,1-4.79-4.79h0V24.79A4.81,4.81,0,0,1,27.51,20h3.76a4.81,4.81,0,0,1,4.79,4.79h0v3.85a4.73,4.73,0,0,1-4.79,4.69h0" style="fill:#fff"/><path d="M31.27,20H27.51a4.81,4.81,0,0,1-4.79-4.79V11.46a4.81,4.81,0,0,1,4.79-4.79h3.76a4.81,4.81,0,0,1,4.79,4.79h0v3.75A4.88,4.88,0,0,1,31.27,20" style="fill:#fff"/><path d="M35.31,26.67H31.46a4.81,4.81,0,0,1-4.79-4.79h0V18.12a4.81,4.81,0,0,1,4.79-4.79h3.75A4.81,4.81,0,0,1,40,18.12h0v3.76a4.73,4.73,0,0,1-4.69,4.79h0" style="fill:#fff"/><path d="M21.88,40H18.12a4.81,4.81,0,0,1-4.79-4.79h0V31.46a4.81,4.81,0,0,1,4.79-4.79h3.76a4.81,4.81,0,0,1,4.79,4.79h0v3.75A4.7,4.7,0,0,1,21.88,40" style="fill:#fff"/><path d="M8.54,26.67H4.79A4.81,4.81,0,0,1,0,21.88V18.12a4.81,4.81,0,0,1,4.79-4.79H8.64a4.81,4.81,0,0,1,4.79,4.79h0v3.76a5,5,0,0,1-4.89,4.79h0" style="fill:#fff"/><path d="M22,13.33H18.12a4.81,4.81,0,0,1-4.79-4.79h0V4.79A4.81,4.81,0,0,1,18.12,0h3.76a4.81,4.81,0,0,1,4.79,4.79V8.64A4.71,4.71,0,0,1,22,13.33h0" style="fill:#fff"/><path d="M12.58,20H8.83A4.73,4.73,0,0,1,4,15.31H4V11.55A4.73,4.73,0,0,1,8.73,6.76h3.85a4.81,4.81,0,0,1,4.79,4.79h0v3.76A4.79,4.79,0,0,1,12.58,20" style="fill:#fff"/><path d="M22,26.67H18.12a4.81,4.81,0,0,1-4.79-4.79h0V18.12a4.81,4.81,0,0,1,4.79-4.79h3.76a4.81,4.81,0,0,1,4.79,4.79v3.76A4.73,4.73,0,0,1,22,26.67" style="fill:#fff"/><g style="opacity:0.5"><g style="clip-path:url(#a)"><path d="M12.58,33.33H8.83A4.73,4.73,0,0,1,4,28.64V24.69a4.81,4.81,0,0,1,4.79-4.78h3.75a4.81,4.81,0,0,1,4.79,4.78h0v3.85a4.75,4.75,0,0,1-4.79,4.79h0" style="fill:#a4c217"/></g></g><g style="opacity:0.5"><g style="clip-path:url(#b)"><path d="M31.27,33.33H27.51a4.81,4.81,0,0,1-4.79-4.79h0V24.79A4.81,4.81,0,0,1,27.51,20h3.76a4.81,4.81,0,0,1,4.79,4.79h0v3.85a4.73,4.73,0,0,1-4.79,4.69h0" style="fill:#ec8300"/></g></g><g style="opacity:0.5"><g style="clip-path:url(#c)"><path d="M31.27,20H27.51a4.81,4.81,0,0,1-4.79-4.79V11.46a4.81,4.81,0,0,1,4.79-4.79h3.76a4.81,4.81,0,0,1,4.79,4.79h0v3.75A4.88,4.88,0,0,1,31.27,20" style="fill:#86408e"/></g></g><g style="opacity:0.5"><g style="clip-path:url(#d)"><path d="M35.31,26.67H31.46a4.81,4.81,0,0,1-4.79-4.79h0V18.12a4.81,4.81,0,0,1,4.79-4.79h3.75A4.81,4.81,0,0,1,40,18.12h0v3.76a4.73,4.73,0,0,1-4.69,4.79h0" style="fill:#e13914"/></g></g><g style="opacity:0.5"><g style="clip-path:url(#e)"><path d="M21.88,40H18.12a4.81,4.81,0,0,1-4.79-4.79h0V31.46a4.81,4.81,0,0,1,4.79-4.79h3.76a4.81,4.81,0,0,1,4.79,4.79h0v3.75A4.7,4.7,0,0,1,21.88,40" style="fill:#ffe800"/></g></g><g style="opacity:0.5"><g style="clip-path:url(#f)"><path d="M8.54,26.67H4.79A4.81,4.81,0,0,1,0,21.88V18.12a4.81,4.81,0,0,1,4.79-4.79H8.64a4.81,4.81,0,0,1,4.79,4.79h0v3.76a5,5,0,0,1-4.89,4.79h0" style="fill:#6ab03c"/></g></g><g style="opacity:0.5"><g style="clip-path:url(#g)"><path d="M22,13.33H18.12a4.81,4.81,0,0,1-4.79-4.79h0V4.79A4.81,4.81,0,0,1,18.12,0h3.76a4.81,4.81,0,0,1,4.79,4.79V8.64A4.71,4.71,0,0,1,22,13.33h0" style="fill:#4ba5dc"/></g></g><g style="opacity:0.5"><g style="clip-path:url(#h)"><path d="M12.58,20H8.83A4.73,4.73,0,0,1,4,15.31H4V11.55A4.73,4.73,0,0,1,8.73,6.76h3.85a4.81,4.81,0,0,1,4.79,4.79h0v3.76A4.79,4.79,0,0,1,12.58,20" style="fill:#74c3d7"/></g></g><g style="opacity:0.5"><g style="clip-path:url(#i)"><path d="M22,26.67H18.12a4.81,4.81,0,0,1-4.79-4.79h0V18.12a4.81,4.81,0,0,1,4.79-4.79h3.76a4.81,4.81,0,0,1,4.79,4.79v3.76A4.73,4.73,0,0,1,22,26.67" style="fill:#e00b6c"/></g></g><g style="opacity:0.5"><g style="clip-path:url(#a)"><path d="M12.58,33.33H8.83A4.73,4.73,0,0,1,4,28.64V24.69a4.81,4.81,0,0,1,4.79-4.78h3.75a4.81,4.81,0,0,1,4.79,4.78h0v3.85a4.75,4.75,0,0,1-4.79,4.79h0" style="fill:#a4c217"/></g></g><g style="opacity:0.5"><g style="clip-path:url(#b)"><path d="M31.27,33.33H27.51a4.81,4.81,0,0,1-4.79-4.79h0V24.79A4.81,4.81,0,0,1,27.51,20h3.76a4.81,4.81,0,0,1,4.79,4.79h0v3.85a4.73,4.73,0,0,1-4.79,4.69h0" style="fill:#ec8300"/></g></g><g style="opacity:0.5"><g style="clip-path:url(#c)"><path d="M31.27,20H27.51a4.81,4.81,0,0,1-4.79-4.79V11.46a4.81,4.81,0,0,1,4.79-4.79h3.76a4.81,4.81,0,0,1,4.79,4.79h0v3.75A4.88,4.88,0,0,1,31.27,20" style="fill:#86408e"/></g></g><g style="opacity:0.5"><g style="clip-path:url(#d)"><path d="M35.31,26.67H31.46a4.81,4.81,0,0,1-4.79-4.79h0V18.12a4.81,4.81,0,0,1,4.79-4.79h3.75A4.81,4.81,0,0,1,40,18.12v3.76a4.73,4.73,0,0,1-4.69,4.79h0" style="fill:#e13914"/></g></g><g style="opacity:0.5"><g style="clip-path:url(#e)"><path d="M21.88,40H18.12a4.81,4.81,0,0,1-4.79-4.79h0V31.46a4.81,4.81,0,0,1,4.79-4.79h3.76a4.81,4.81,0,0,1,4.79,4.79h0v3.75A4.7,4.7,0,0,1,21.88,40" style="fill:#ffe800"/></g></g><g style="opacity:0.5"><g style="clip-path:url(#f)"><path d="M8.54,26.67H4.79A4.81,4.81,0,0,1,0,21.88V18.12a4.81,4.81,0,0,1,4.79-4.79H8.64a4.81,4.81,0,0,1,4.79,4.79h0v3.76a5,5,0,0,1-4.89,4.79h0" style="fill:#6ab03c"/></g></g><g style="opacity:0.5"><g style="clip-path:url(#g)"><path d="M22,13.33H18.12a4.81,4.81,0,0,1-4.79-4.79h0V4.79A4.81,4.81,0,0,1,18.12,0h3.76a4.81,4.81,0,0,1,4.79,4.79V8.64A4.71,4.71,0,0,1,22,13.33h0" style="fill:#4ba5dc"/></g></g><g style="opacity:0.5"><g style="clip-path:url(#h)"><path d="M12.58,20H8.83A4.73,4.73,0,0,1,4,15.31H4V11.55A4.73,4.73,0,0,1,8.73,6.76h3.85a4.81,4.81,0,0,1,4.79,4.79h0v3.76A4.79,4.79,0,0,1,12.58,20" style="fill:#74c3d7"/></g></g><g style="opacity:0.5"><g style="clip-path:url(#i)"><path d="M22,26.67H18.12a4.81,4.81,0,0,1-4.79-4.79h0V18.12a4.81,4.81,0,0,1,4.79-4.79h3.76a4.81,4.81,0,0,1,4.79,4.79v3.76A4.73,4.73,0,0,1,22,26.67" style="fill:#e00b6c"/></g></g></svg>
