<?xml version="1.0" encoding="utf-8"?>
<!-- Generator: Adobe Illustrator 25.2.0, SVG Export Plug-In . SVG Version: 6.00 Build 0)  -->
<svg version="1.1" id="Layer_1" xmlns="http://www.w3.org/2000/svg" xmlns:xlink="http://www.w3.org/1999/xlink" x="0px" y="0px"
	 viewBox="0 0 182.1 42.6" style="enable-background:new 0 0 182.1 42.6;" xml:space="preserve">
<style type="text/css">
	.st0{fill:#333333;}
	.st1{fill:#FFFFFF;}
	.st2{opacity:0.5;}
	.st3{clip-path:url(#SVGID_2_);}
	.st4{fill:#A4C217;}
	.st5{clip-path:url(#SVGID_4_);}
	.st6{fill:#EC8300;}
	.st7{clip-path:url(#SVGID_6_);}
	.st8{fill:#86408E;}
	.st9{clip-path:url(#SVGID_8_);}
	.st10{fill:#E13914;}
	.st11{clip-path:url(#SVGID_10_);}
	.st12{fill:#FFE800;}
	.st13{clip-path:url(#SVGID_12_);}
	.st14{fill:#6AB03C;}
	.st15{clip-path:url(#SVGID_14_);}
	.st16{fill:#4BA5DC;}
	.st17{clip-path:url(#SVGID_16_);}
	.st18{fill:#74C3D7;}
	.st19{clip-path:url(#SVGID_18_);}
	.st20{fill:#E00B6C;}
	.st21{clip-path:url(#SVGID_20_);}
	.st22{clip-path:url(#SVGID_22_);}
	.st23{clip-path:url(#SVGID_24_);}
	.st24{clip-path:url(#SVGID_26_);}
	.st25{clip-path:url(#SVGID_28_);}
	.st26{clip-path:url(#SVGID_30_);}
	.st27{clip-path:url(#SVGID_32_);}
	.st28{clip-path:url(#SVGID_34_);}
	.st29{clip-path:url(#SVGID_36_);}
</style>
<g id="Logo-Big">
	<path class="st0" d="M61.6,12.6c1.1,0.5,2,1.2,2.7,2.2c0.6,1,1,2.2,0.9,3.5c0,1.2-0.3,2.4-0.9,3.5c-0.6,1-1.6,1.8-2.7,2.3
		c-1.3,0.6-2.7,0.8-4.1,0.8h-4.1v3.4c0,1-0.8,1.9-1.9,1.9c0,0,0,0,0,0h-1.5V11.9h7.5C58.9,11.8,60.3,12.1,61.6,12.6z M60.7,21
		c0.8-0.7,1.2-1.7,1.2-2.7c0.1-1-0.4-2-1.2-2.7c-1-0.7-2.2-1-3.4-0.9h-4V22h4C58.5,22.1,59.7,21.7,60.7,21z"/>
	<path class="st0" d="M80,29.3l-3.2-4.5c-0.2,0-0.5,0-0.7,0H72v3.4c0,1.1-0.9,1.9-1.9,1.9c0,0,0,0,0,0h-1.4V11.9h7.5
		c1.4,0,2.8,0.2,4.1,0.8c1.1,0.5,2,1.2,2.7,2.3c0.7,1,1,2.2,1,3.5c0,1.3-0.3,2.5-1,3.6c-0.7,1-1.7,1.8-2.9,2.2l4.2,6h-2.7
		C81,30.2,80.4,29.8,80,29.3z M79.3,15.7c-1-0.7-2.2-1-3.3-0.9h-4V22h4c1.2,0.1,2.4-0.3,3.4-1c0.8-0.7,1.2-1.7,1.2-2.7
		C80.6,17.3,80.2,16.3,79.3,15.7L79.3,15.7z"/>
	<path class="st0" d="M91.2,29.2c-1.5-0.8-2.7-1.9-3.5-3.4c-0.9-1.5-1.3-3.1-1.3-4.8c0-1.7,0.4-3.4,1.3-4.8c0.8-1.4,2.1-2.6,3.5-3.4
		c3.2-1.6,6.9-1.6,10.1,0c1.5,0.8,2.7,1.9,3.5,3.4c0.9,1.5,1.3,3.1,1.3,4.8c0,1.7-0.4,3.4-1.3,4.8c-0.8,1.4-2.1,2.6-3.5,3.4
		C98.2,30.8,94.4,30.8,91.2,29.2z M99.6,26.6c1-0.5,1.8-1.3,2.3-2.3c1.1-2.1,1.1-4.5,0-6.6c-0.5-1-1.3-1.8-2.3-2.3
		c-2.1-1.1-4.5-1.1-6.6,0c-1,0.5-1.8,1.3-2.3,2.3c-1.1,2.1-1.1,4.5,0,6.6c0.5,1,1.3,1.8,2.3,2.3C95.1,27.7,97.5,27.7,99.6,26.6
		L99.6,26.6z"/>
	<path class="st0" d="M120,29.3l-4.4-6.1l-4.3,6.1c-0.4,0.5-0.9,0.8-1.6,0.8h-2.9l6.8-9.3l-6.4-9h2.9c0.6,0,1.2,0.3,1.6,0.8l4.1,5.7
		l4.1-5.7c0.4-0.5,0.9-0.8,1.6-0.8h2.7l-6.4,8.8l6.9,9.5h-2.9C120.9,30.1,120.4,29.8,120,29.3z"/>
	<path class="st0" d="M142.5,11.9v12.7c0.2,2.3-0.6,4.5-2.2,6.2c-1.7,1.5-3.9,2.3-6.1,2.2c-1.4,0-2.8-0.2-4.2-0.7
		c-1.2-0.4-2.3-1-3.2-1.9l0.4-0.7c0.5-0.9,1.6-1.3,2.5-0.8c0,0,0,0,0,0c1.3,0.7,2.8,1.1,4.4,1.1c3.3,0,5-1.8,5-5.2v-1.4
		c-1.3,1.6-3.3,2.5-5.4,2.4c-2,0.1-3.9-0.6-5.4-2c-1.4-1.6-2.1-3.6-1.9-5.7v-6.1h1.5c1.1,0,1.9,0.9,1.9,1.9v4.1
		c-0.1,1.3,0.3,2.6,1.2,3.6c0.9,0.9,2,1.3,3.2,1.2c1.3,0.1,2.6-0.4,3.5-1.3c0.9-1.1,1.4-2.5,1.3-3.9v-3.7c0-1,0.8-1.9,1.9-1.9H142.5
		z"/>
	<path class="st0" d="M172.7,13.5c1.3,1.5,1.9,3.4,1.8,5.4v9.4c0,1-0.8,1.9-1.9,1.9c0,0,0,0,0,0h-1.5V19c0.1-1.2-0.3-2.4-1.1-3.3
		c-0.8-0.8-1.9-1.2-3-1.1c-1.2-0.1-2.4,0.3-3.3,1.1c-0.9,1-1.3,2.2-1.2,3.5v9c0,1.1-0.9,1.9-1.9,1.9c0,0,0,0,0,0h-1.5V19
		c0.1-1.2-0.3-2.4-1.1-3.3c-0.8-0.8-1.8-1.1-2.9-1.1c-1.2-0.1-2.4,0.4-3.3,1.2c-0.9,0.9-1.4,2.2-1.2,3.5v9c0,1-0.8,1.9-1.9,1.9
		c0,0,0,0,0,0h-1.5V11.9h1.4c1.1,0,1.9,0.9,1.9,1.9v0.5c0.6-0.9,1.3-1.6,2.3-2c1-0.5,2.2-0.7,3.3-0.7c1.2,0,2.3,0.2,3.4,0.7
		c0.9,0.4,1.7,1.2,2.2,2.1c0.6-0.9,1.5-1.6,2.5-2.1c1.1-0.5,2.3-0.7,3.5-0.7C169.5,11.5,171.4,12.2,172.7,13.5z"/>
	<path class="st0" d="M180.3,6.9c0.5,0.3,1,0.8,1.3,1.3c0.3,0.6,0.5,1.3,0.5,1.9c0,0.7-0.1,1.3-0.5,1.9c-0.3,0.6-0.7,1-1.3,1.3
		c-0.6,0.3-1.2,0.5-1.9,0.5c-0.7,0-1.3-0.1-1.9-0.5c-0.6-0.3-1-0.8-1.3-1.3c-0.3-0.6-0.5-1.3-0.5-1.9c0-0.7,0.1-1.3,0.5-1.9
		c0.3-0.6,0.7-1,1.3-1.3c0.6-0.3,1.3-0.5,1.9-0.5C179.1,6.5,179.7,6.6,180.3,6.9z M180.1,13.1c0.5-0.3,0.9-0.7,1.1-1.2
		c0.3-0.5,0.4-1.1,0.4-1.7c0-0.6-0.1-1.2-0.4-1.8c-0.3-0.5-0.7-0.9-1.1-1.2c-0.5-0.3-1.1-0.4-1.7-0.4c-0.6,0-1.2,0.1-1.7,0.4
		c-0.5,0.3-0.9,0.7-1.1,1.2c-0.3,0.5-0.4,1.1-0.4,1.8c0,0.6,0.1,1.2,0.4,1.7c0.3,0.5,0.7,0.9,1.1,1.2c0.5,0.3,1.1,0.4,1.7,0.4
		C179,13.5,179.6,13.3,180.1,13.1z M179.9,9.9c-0.3,0.3-0.6,0.4-1,0.4l1.3,2h-0.7l-1.3-2h-0.7v2H177V7.7h1.6c0.4,0,0.9,0.1,1.2,0.4
		c0.3,0.3,0.4,0.6,0.4,1C180.3,9.4,180.1,9.7,179.9,9.9L179.9,9.9z M177.6,9.9h1c0.7,0,1-0.3,1-0.8c0-0.2-0.1-0.5-0.2-0.6
		c-0.2-0.2-0.5-0.2-0.8-0.2h-1L177.6,9.9z"/>
	<path class="st1" d="M13.4,35.5h-4c-2.8,0-5.1-2.2-5.1-5c0,0,0,0,0-0.1v-4.1c0-2.8,2.3-5.1,5.1-5.1c0,0,0,0,0,0h4
		c2.8,0,5.1,2.3,5.1,5.1c0,0,0,0,0,0v4.1C18.5,33.3,16.2,35.5,13.4,35.5C13.4,35.5,13.4,35.5,13.4,35.5"/>
	<path class="st1" d="M33.3,35.5h-4c-2.8,0-5.1-2.3-5.1-5.1c0,0,0,0,0,0v-4c0-2.8,2.3-5.1,5.1-5.1c0,0,0,0,0,0h4
		c2.8,0,5.1,2.3,5.1,5.1c0,0,0,0,0,0v4.1C38.4,33.3,36.1,35.5,33.3,35.5C33.3,35.5,33.3,35.5,33.3,35.5"/>
	<path class="st1" d="M33.3,21.3h-4c-2.8,0-5.1-2.3-5.1-5.1v-4c0-2.8,2.3-5.1,5.1-5.1c0,0,0,0,0,0h4c2.8,0,5.1,2.3,5.1,5.1
		c0,0,0,0,0,0v4C38.3,19,36.1,21.3,33.3,21.3"/>
	<path class="st1" d="M37.6,28.4h-4.1c-2.8,0-5.1-2.3-5.1-5.1c0,0,0,0,0,0v-4c0-2.8,2.3-5.1,5.1-5.1l0,0h4c2.8,0,5.1,2.3,5.1,5.1v0
		v4C42.6,26.1,40.4,28.4,37.6,28.4C37.6,28.4,37.6,28.4,37.6,28.4"/>
	<path class="st1" d="M23.3,42.6h-4c-2.8,0-5.1-2.3-5.1-5.1c0,0,0,0,0,0v-4c0-2.8,2.3-5.1,5.1-5.1c0,0,0,0,0,0h4
		c2.8,0,5.1,2.3,5.1,5.1c0,0,0,0,0,0v4C28.4,40.4,26.2,42.6,23.3,42.6"/>
	<path class="st1" d="M9.1,28.4H5.1c-2.8,0-5.1-2.3-5.1-5.1v-4c0-2.8,2.3-5.1,5.1-5.1h4.1c2.8,0,5.1,2.3,5.1,5.1l0,0v4
		C14.2,26.1,11.9,28.4,9.1,28.4C9.1,28.4,9.1,28.4,9.1,28.4"/>
	<path class="st1" d="M23.4,14.2h-4.1c-2.8,0-5.1-2.3-5.1-5.1c0,0,0,0,0,0V5.1c0-2.8,2.3-5.1,5.1-5.1c0,0,0,0,0,0h4
		c2.8,0,5.1,2.3,5.1,5.1v4.1C28.4,11.9,26.2,14.2,23.4,14.2L23.4,14.2"/>
	<path class="st1" d="M13.4,21.3h-4c-2.8,0-5.1-2.2-5.1-5c0,0,0,0,0,0v-4c0-2.8,2.2-5.1,5-5.1c0,0,0,0,0.1,0h4
		c2.8,0,5.1,2.3,5.1,5.1c0,0,0,0,0,0v4C18.5,19,16.2,21.3,13.4,21.3"/>
	<path class="st1" d="M23.4,28.4h-4.1c-2.8,0-5.1-2.3-5.1-5.1c0,0,0,0,0,0v-4c0-2.8,2.3-5.1,5.1-5.1l0,0h4c2.8,0,5.1,2.3,5.1,5.1v4
		C28.4,26.1,26.2,28.4,23.4,28.4"/>
	<g class="st2">
		<g>
			<defs>
				<rect id="SVGID_1_" x="4.3" y="21.3" width="14.2" height="14.2"/>
			</defs>
			<clipPath id="SVGID_2_">
				<use xlink:href="#SVGID_1_"  style="overflow:visible;"/>
			</clipPath>
			<g class="st3">
				<path class="st4" d="M13.4,35.5h-4c-2.8,0-5.1-2.2-5.1-5c0,0,0,0,0-0.1v-4.1c0-2.8,2.3-5.1,5.1-5.1c0,0,0,0,0,0h4
					c2.8,0,5.1,2.3,5.1,5.1c0,0,0,0,0,0v4.1C18.5,33.3,16.2,35.5,13.4,35.5C13.4,35.5,13.4,35.5,13.4,35.5"/>
			</g>
		</g>
	</g>
	<g class="st2">
		<g>
			<defs>
				<rect id="SVGID_3_" x="24.1" y="21.3" width="14.2" height="14.2"/>
			</defs>
			<clipPath id="SVGID_4_">
				<use xlink:href="#SVGID_3_"  style="overflow:visible;"/>
			</clipPath>
			<g class="st5">
				<path class="st6" d="M33.3,35.5h-4c-2.8,0-5.1-2.3-5.1-5.1c0,0,0,0,0,0v-4c0-2.8,2.3-5.1,5.1-5.1c0,0,0,0,0,0h4
					c2.8,0,5.1,2.3,5.1,5.1c0,0,0,0,0,0v4.1C38.4,33.3,36.1,35.5,33.3,35.5C33.3,35.5,33.3,35.5,33.3,35.5"/>
			</g>
		</g>
	</g>
	<g class="st2">
		<g>
			<defs>
				<rect id="SVGID_5_" x="24.1" y="7.1" width="14.2" height="14.2"/>
			</defs>
			<clipPath id="SVGID_6_">
				<use xlink:href="#SVGID_5_"  style="overflow:visible;"/>
			</clipPath>
			<g class="st7">
				<path class="st8" d="M33.3,21.3h-4c-2.8,0-5.1-2.3-5.1-5.1v-4c0-2.8,2.3-5.1,5.1-5.1c0,0,0,0,0,0h4c2.8,0,5.1,2.3,5.1,5.1
					c0,0,0,0,0,0v4C38.3,19,36.1,21.3,33.3,21.3"/>
			</g>
		</g>
	</g>
	<g class="st2">
		<g>
			<defs>
				<rect id="SVGID_7_" x="28.4" y="14.2" width="14.2" height="14.2"/>
			</defs>
			<clipPath id="SVGID_8_">
				<use xlink:href="#SVGID_7_"  style="overflow:visible;"/>
			</clipPath>
			<g class="st9">
				<path class="st10" d="M37.6,28.4h-4.1c-2.8,0-5.1-2.3-5.1-5.1c0,0,0,0,0,0v-4c0-2.8,2.3-5.1,5.1-5.1l0,0h4
					c2.8,0,5.1,2.3,5.1,5.1v0v4C42.6,26.1,40.4,28.4,37.6,28.4C37.6,28.4,37.6,28.4,37.6,28.4"/>
			</g>
		</g>
	</g>
	<g class="st2">
		<g>
			<defs>
				<rect id="SVGID_9_" x="14.2" y="28.4" width="14.2" height="14.2"/>
			</defs>
			<clipPath id="SVGID_10_">
				<use xlink:href="#SVGID_9_"  style="overflow:visible;"/>
			</clipPath>
			<g class="st11">
				<path class="st12" d="M23.3,42.6h-4c-2.8,0-5.1-2.3-5.1-5.1c0,0,0,0,0,0v-4c0-2.8,2.3-5.1,5.1-5.1c0,0,0,0,0,0h4
					c2.8,0,5.1,2.3,5.1,5.1c0,0,0,0,0,0v4C28.4,40.4,26.2,42.6,23.3,42.6"/>
			</g>
		</g>
	</g>
	<g class="st2">
		<g>
			<defs>
				<rect id="SVGID_11_" y="14.2" width="14.2" height="14.2"/>
			</defs>
			<clipPath id="SVGID_12_">
				<use xlink:href="#SVGID_11_"  style="overflow:visible;"/>
			</clipPath>
			<g class="st13">
				<path class="st14" d="M9.1,28.4H5.1c-2.8,0-5.1-2.3-5.1-5.1v-4c0-2.8,2.3-5.1,5.1-5.1h4.1c2.8,0,5.1,2.3,5.1,5.1l0,0v4
					C14.2,26.1,11.9,28.4,9.1,28.4C9.1,28.4,9.1,28.4,9.1,28.4"/>
			</g>
		</g>
	</g>
	<g class="st2">
		<g>
			<defs>
				<rect id="SVGID_13_" x="14.2" width="14.2" height="14.2"/>
			</defs>
			<clipPath id="SVGID_14_">
				<use xlink:href="#SVGID_13_"  style="overflow:visible;"/>
			</clipPath>
			<g class="st15">
				<path class="st16" d="M23.4,14.2h-4.1c-2.8,0-5.1-2.3-5.1-5.1c0,0,0,0,0,0V5.1c0-2.8,2.3-5.1,5.1-5.1c0,0,0,0,0,0h4
					c2.8,0,5.1,2.3,5.1,5.1v4.1C28.4,11.9,26.2,14.2,23.4,14.2L23.4,14.2"/>
			</g>
		</g>
	</g>
	<g class="st2">
		<g>
			<defs>
				<rect id="SVGID_15_" x="4.3" y="7.1" width="14.2" height="14.2"/>
			</defs>
			<clipPath id="SVGID_16_">
				<use xlink:href="#SVGID_15_"  style="overflow:visible;"/>
			</clipPath>
			<g class="st17">
				<path class="st18" d="M13.4,21.3h-4c-2.8,0-5.1-2.2-5.1-5c0,0,0,0,0,0v-4c0-2.8,2.2-5.1,5-5.1c0,0,0,0,0.1,0h4
					c2.8,0,5.1,2.3,5.1,5.1c0,0,0,0,0,0v4C18.5,19,16.2,21.3,13.4,21.3"/>
			</g>
		</g>
	</g>
	<g class="st2">
		<g>
			<defs>
				<rect id="SVGID_17_" x="14.2" y="14.2" width="14.2" height="14.2"/>
			</defs>
			<clipPath id="SVGID_18_">
				<use xlink:href="#SVGID_17_"  style="overflow:visible;"/>
			</clipPath>
			<g class="st19">
				<path class="st20" d="M23.4,28.4h-4.1c-2.8,0-5.1-2.3-5.1-5.1c0,0,0,0,0,0v-4c0-2.8,2.3-5.1,5.1-5.1l0,0h4
					c2.8,0,5.1,2.3,5.1,5.1v4C28.4,26.1,26.2,28.4,23.4,28.4"/>
			</g>
		</g>
	</g>
	<g class="st2">
		<g>
			<defs>
				<rect id="SVGID_19_" x="4.3" y="21.3" width="14.2" height="14.2"/>
			</defs>
			<clipPath id="SVGID_20_">
				<use xlink:href="#SVGID_19_"  style="overflow:visible;"/>
			</clipPath>
			<g class="st21">
				<path class="st4" d="M13.4,35.5h-4c-2.8,0-5.1-2.2-5.1-5c0,0,0,0,0-0.1v-4.1c0-2.8,2.3-5.1,5.1-5.1c0,0,0,0,0,0h4
					c2.8,0,5.1,2.3,5.1,5.1c0,0,0,0,0,0v4.1C18.5,33.3,16.2,35.5,13.4,35.5C13.4,35.5,13.4,35.5,13.4,35.5"/>
			</g>
		</g>
	</g>
	<g class="st2">
		<g>
			<defs>
				<rect id="SVGID_21_" x="24.1" y="21.3" width="14.2" height="14.2"/>
			</defs>
			<clipPath id="SVGID_22_">
				<use xlink:href="#SVGID_21_"  style="overflow:visible;"/>
			</clipPath>
			<g class="st22">
				<path class="st6" d="M33.3,35.5h-4c-2.8,0-5.1-2.3-5.1-5.1c0,0,0,0,0,0v-4c0-2.8,2.3-5.1,5.1-5.1c0,0,0,0,0,0h4
					c2.8,0,5.1,2.3,5.1,5.1c0,0,0,0,0,0v4.1C38.4,33.3,36.1,35.5,33.3,35.5C33.3,35.5,33.3,35.5,33.3,35.5"/>
			</g>
		</g>
	</g>
	<g class="st2">
		<g>
			<defs>
				<rect id="SVGID_23_" x="24.1" y="7.1" width="14.2" height="14.2"/>
			</defs>
			<clipPath id="SVGID_24_">
				<use xlink:href="#SVGID_23_"  style="overflow:visible;"/>
			</clipPath>
			<g class="st23">
				<path class="st8" d="M33.3,21.3h-4c-2.8,0-5.1-2.3-5.1-5.1v-4c0-2.8,2.3-5.1,5.1-5.1c0,0,0,0,0,0h4c2.8,0,5.1,2.3,5.1,5.1
					c0,0,0,0,0,0v4C38.3,19,36.1,21.3,33.3,21.3"/>
			</g>
		</g>
	</g>
	<g class="st2">
		<g>
			<defs>
				<rect id="SVGID_25_" x="28.4" y="14.2" width="14.2" height="14.2"/>
			</defs>
			<clipPath id="SVGID_26_">
				<use xlink:href="#SVGID_25_"  style="overflow:visible;"/>
			</clipPath>
			<g class="st24">
				<path class="st10" d="M37.6,28.4h-4.1c-2.8,0-5.1-2.3-5.1-5.1c0,0,0,0,0,0v-4c0-2.8,2.3-5.1,5.1-5.1l0,0h4
					c2.8,0,5.1,2.3,5.1,5.1v4C42.6,26.1,40.4,28.4,37.6,28.4C37.6,28.4,37.6,28.4,37.6,28.4"/>
			</g>
		</g>
	</g>
	<g class="st2">
		<g>
			<defs>
				<rect id="SVGID_27_" x="14.2" y="28.4" width="14.2" height="14.2"/>
			</defs>
			<clipPath id="SVGID_28_">
				<use xlink:href="#SVGID_27_"  style="overflow:visible;"/>
			</clipPath>
			<g class="st25">
				<path class="st12" d="M23.3,42.6h-4c-2.8,0-5.1-2.3-5.1-5.1c0,0,0,0,0,0v-4c0-2.8,2.3-5.1,5.1-5.1c0,0,0,0,0,0h4
					c2.8,0,5.1,2.3,5.1,5.1c0,0,0,0,0,0v4C28.4,40.4,26.2,42.6,23.3,42.6"/>
			</g>
		</g>
	</g>
	<g class="st2">
		<g>
			<defs>
				<rect id="SVGID_29_" y="14.2" width="14.2" height="14.2"/>
			</defs>
			<clipPath id="SVGID_30_">
				<use xlink:href="#SVGID_29_"  style="overflow:visible;"/>
			</clipPath>
			<g class="st26">
				<path class="st14" d="M9.1,28.4H5.1c-2.8,0-5.1-2.3-5.1-5.1v-4c0-2.8,2.3-5.1,5.1-5.1h4.1c2.8,0,5.1,2.3,5.1,5.1l0,0v4
					C14.2,26.1,11.9,28.4,9.1,28.4C9.1,28.4,9.1,28.4,9.1,28.4"/>
			</g>
		</g>
	</g>
	<g class="st2">
		<g>
			<defs>
				<rect id="SVGID_31_" x="14.2" width="14.2" height="14.2"/>
			</defs>
			<clipPath id="SVGID_32_">
				<use xlink:href="#SVGID_31_"  style="overflow:visible;"/>
			</clipPath>
			<g class="st27">
				<path class="st16" d="M23.4,14.2h-4.1c-2.8,0-5.1-2.3-5.1-5.1c0,0,0,0,0,0V5.1c0-2.8,2.3-5.1,5.1-5.1c0,0,0,0,0,0h4
					c2.8,0,5.1,2.3,5.1,5.1v4.1C28.4,11.9,26.2,14.2,23.4,14.2L23.4,14.2"/>
			</g>
		</g>
	</g>
	<g class="st2">
		<g>
			<defs>
				<rect id="SVGID_33_" x="4.3" y="7.1" width="14.2" height="14.2"/>
			</defs>
			<clipPath id="SVGID_34_">
				<use xlink:href="#SVGID_33_"  style="overflow:visible;"/>
			</clipPath>
			<g class="st28">
				<path class="st18" d="M13.4,21.3h-4c-2.8,0-5.1-2.2-5.1-5c0,0,0,0,0,0v-4c0-2.8,2.2-5.1,5-5.1c0,0,0,0,0.1,0h4
					c2.8,0,5.1,2.3,5.1,5.1c0,0,0,0,0,0v4C18.5,19,16.2,21.3,13.4,21.3"/>
			</g>
		</g>
	</g>
	<g class="st2">
		<g>
			<defs>
				<rect id="SVGID_35_" x="14.2" y="14.2" width="14.2" height="14.2"/>
			</defs>
			<clipPath id="SVGID_36_">
				<use xlink:href="#SVGID_35_"  style="overflow:visible;"/>
			</clipPath>
			<g class="st29">
				<path class="st20" d="M23.4,28.4h-4.1c-2.8,0-5.1-2.3-5.1-5.1c0,0,0,0,0,0v-4c0-2.8,2.3-5.1,5.1-5.1l0,0h4
					c2.8,0,5.1,2.3,5.1,5.1v4C28.4,26.1,26.2,28.4,23.4,28.4"/>
			</g>
		</g>
	</g>
</g>
</svg>
