<svg xmlns="http://www.w3.org/2000/svg" fill="#333" viewBox="0 0 132.1 26.61">
  <path  d="M11.6 6.2a6.43 6.43 0 0 1 2.7 2.2 5.92 5.92 0 0 1 .9 3.5 7.3 7.3 0 0 1-.9 3.5 6.08 6.08 0 0 1-2.7 2.3 9.68 9.68 0 0 1-4.1.8H3.4v3.4a1.9 1.9 0 0 1-1.9 1.9H0V5.5h7.5a9.59 9.59 0 0 1 4.1.7Zm-.9 8.4a3.57 3.57 0 0 0 1.2-2.7 3.26 3.26 0 0 0-1.2-2.7 5.16 5.16 0 0 0-3.4-.9h-4v7.3h4a5.24 5.24 0 0 0 3.4-1ZM30 22.9l-3.2-4.5H22v3.4a1.9 1.9 0 0 1-1.9 1.9h-1.4V5.5h7.5a9.68 9.68 0 0 1 4.1.8 6.21 6.21 0 0 1 3.7 5.8 6.53 6.53 0 0 1-1 3.6 5.81 5.81 0 0 1-2.9 2.2l4.2 6h-2.7a2.75 2.75 0 0 1-1.6-1Zm-.7-13.6a5 5 0 0 0-3.3-.9h-4v7.2h4a5.24 5.24 0 0 0 3.4-1 3.57 3.57 0 0 0 1.2-2.7 3 3 0 0 0-1.3-2.6ZM41.2 22.8a8.2 8.2 0 0 1-3.5-3.4 9.12 9.12 0 0 1-1.3-4.8 8.88 8.88 0 0 1 1.3-4.8 9.51 9.51 0 0 1 3.5-3.4 11.23 11.23 0 0 1 10.1 0 8.2 8.2 0 0 1 3.5 3.4 9.12 9.12 0 0 1 1.3 4.8 8.88 8.88 0 0 1-1.3 4.8 9.51 9.51 0 0 1-3.5 3.4 11.23 11.23 0 0 1-10.1 0Zm8.4-2.6a5.12 5.12 0 0 0 2.3-2.3 7 7 0 0 0 0-6.6A5.12 5.12 0 0 0 49.6 9 7 7 0 0 0 43 9a5.12 5.12 0 0 0-2.3 2.3 7 7 0 0 0 0 6.6 5.12 5.12 0 0 0 2.3 2.3 7 7 0 0 0 6.6 0ZM70 22.9l-4.4-6.1-4.3 6.1a1.94 1.94 0 0 1-1.6.8h-2.9l6.8-9.3-6.4-9h2.9a2.09 2.09 0 0 1 1.6.8l4.1 5.7 4.1-5.7a1.94 1.94 0 0 1 1.6-.8h2.7l-6.4 8.8 6.9 9.5h-2.9a2.07 2.07 0 0 1-1.8-.8ZM92.5 5.5v12.7a8 8 0 0 1-2.2 6.2 8.68 8.68 0 0 1-6.1 2.2 12.34 12.34 0 0 1-4.2-.7 8 8 0 0 1-3.2-1.9l.4-.7a1.85 1.85 0 0 1 2.5-.8 9.26 9.26 0 0 0 4.4 1.1c3.3 0 5-1.8 5-5.2V17a6.55 6.55 0 0 1-5.4 2.4 7.29 7.29 0 0 1-5.4-2 7.49 7.49 0 0 1-1.9-5.7V5.6h1.5a1.9 1.9 0 0 1 1.9 1.9v4.1a4.8 4.8 0 0 0 1.2 3.6 3.93 3.93 0 0 0 3.2 1.2 4.52 4.52 0 0 0 3.5-1.3 5.59 5.59 0 0 0 1.3-3.9V7.5a1.9 1.9 0 0 1 1.9-1.9h1.6ZM122.7 7.1a7.55 7.55 0 0 1 1.8 5.4v9.4a1.9 1.9 0 0 1-1.9 1.9h-1.5V12.6a4.43 4.43 0 0 0-1.1-3.3 3.77 3.77 0 0 0-3-1.1 4.43 4.43 0 0 0-3.3 1.1 4.57 4.57 0 0 0-1.2 3.5v9a1.9 1.9 0 0 1-1.9 1.9h-1.5V12.6a4.43 4.43 0 0 0-1.1-3.3 3.91 3.91 0 0 0-2.9-1.1 4.51 4.51 0 0 0-3.3 1.2 4.12 4.12 0 0 0-1.2 3.5v9a1.9 1.9 0 0 1-1.9 1.9h-1.5V5.5h1.4a1.9 1.9 0 0 1 1.9 1.9v.5a5 5 0 0 1 2.3-2 7.54 7.54 0 0 1 3.3-.7 8 8 0 0 1 3.4.7 5 5 0 0 1 2.2 2.1 6.41 6.41 0 0 1 2.5-2.1 8.42 8.42 0 0 1 3.5-.7 6.69 6.69 0 0 1 5 1.9ZM130.3.5a4 4 0 0 1 1.3 1.3 4.49 4.49 0 0 1 .5 1.9 3.2 3.2 0 0 1-.5 1.9 2.74 2.74 0 0 1-1.3 1.3 4.14 4.14 0 0 1-1.9.5 3.2 3.2 0 0 1-1.9-.5 3.25 3.25 0 0 1-1.3-1.3 4.49 4.49 0 0 1-.5-1.9 3.2 3.2 0 0 1 .5-1.9 2.74 2.74 0 0 1 1.3-1.3 4.49 4.49 0 0 1 1.9-.5 5.92 5.92 0 0 1 1.9.5Zm-.2 6.2a2.54 2.54 0 0 0 1.1-1.2 3.29 3.29 0 0 0 .4-1.7 3.92 3.92 0 0 0-.4-1.8 4.26 4.26 0 0 0-1.1-1.2 3.81 3.81 0 0 0-3.4 0 2.54 2.54 0 0 0-1.1 1.2 3.42 3.42 0 0 0-.4 1.8 3.29 3.29 0 0 0 .4 1.7 4.26 4.26 0 0 0 1.1 1.2 3.29 3.29 0 0 0 1.7.4 4.71 4.71 0 0 0 1.7-.4Zm-.2-3.2a1.28 1.28 0 0 1-1 .4l1.3 2h-.7l-1.3-2h-.7v2h-.5V1.3h1.6a1.75 1.75 0 0 1 1.2.4 1.28 1.28 0 0 1 .4 1 .83.83 0 0 1-.3.8Zm-2.3 0h1c.7 0 1-.3 1-.8a1.07 1.07 0 0 0-.2-.6 1.08 1.08 0 0 0-.8-.2h-1Z"/>
</svg>
