<svg viewBox="0 0 131 36" xmlns="http://www.w3.org/2000/svg">
<path d="M129.85 28.09C129.43 28.09 129.17 28.46 128.82 29.01C127.85 30.42 125.82 33 122.77 33C120.28 33 118.95 31.86 118.63 30.03C120.6 28.62 125.16 24.08 125.16 19.59C125.16 17.49 124.28 16.28 121.9 16.28C118.6 16.28 114.66 21.48 114.66 27.53C114.66 28.8 114.88 29.92 115.26 30.92C114.36 32 113.29 33 112.24 33C110.49 33 109.2 32.19 109.2 26.34C109.2 21.74 109.46 18.33 109.82 15.73H112.05C114.58 15.73 116.65 15.19 116.65 14.48C116.65 13.77 115.77 12.69 115.2 12.69C114.63 12.69 114.74 13.23 112.04 13.23H110.23L110.69 11.5C111.11 10.04 111.78 8.99998 111.78 8.58998C111.78 7.33998 110.07 6.21999 109.09 6.21999C108.51 6.21999 108.21 6.75999 107.9 8.27999C107.58 9.56999 107.32 11.32 107.06 13.21C106.34 13.15 105.67 13.15 105.25 13.15C104.57 13.15 103.96 14.5 103.96 14.98C103.96 15.46 104.12 15.79 104.9 15.79H106.77C106.31 19.68 105.99 23.97 105.99 26.67C105.99 27.38 106.01 28.04 106.07 28.67C105.99 28.77 105.91 28.88 105.83 29C104.86 30.41 103.6 32.58 101.79 32.58C99.98 32.58 99.78 29.23 99.78 25.49C99.78 20.83 101.75 19.81 101.75 18.56C101.75 17.69 101.33 17 100.46 17C99.11 17 97.97 19.1 97.93 19.23C97.87 19.02 97.31 16.19 94.05 16.19C90.79 16.19 85.89 21.41 85.73 29.5C84.77 30.81 83.44 32.25 81.85 32.25C80.36 32.25 79.78 31.11 79.78 29.92C79.78 26.95 80.81 23.87 80.81 21.6C80.81 19.33 79.16 19.06 77.55 19.06C76.67 19.06 75.9 19.06 75.22 18.96C75.84 17.23 76.31 15.78 76.31 14.9C76.31 13.17 75.02 12.09 73.15 12.09C70.92 12.09 68.81 14.25 68.81 16.96C68.81 19.06 70.04 20.41 71.91 21.12L69.01 28.63C68.07 31.13 66.01 32.08 66.01 33.23C66.01 34.15 66.17 34.85 67.56 34.85C69.21 34.85 70.5 32.08 71.6 28.57C72.28 26.34 73.25 23.91 74.13 21.71C74.81 21.77 75.42 21.81 76.14 21.81C77.11 21.81 77.43 21.98 77.43 22.79C77.43 23.6 76.46 26.58 76.46 30.2C76.46 33.07 78.63 35.07 81.37 35.07C83.32 35.07 84.91 33.82 86.13 32.41C86.67 33.97 87.78 35.24 89.49 35.24C93.01 35.24 96.79 28.85 96.79 28.85C96.79 28.85 96.95 35.24 101.39 35.24C103.66 35.24 105.35 33.33 106.58 31.58C107.46 34.47 109.25 35.45 111.41 35.45C113.57 35.45 115.13 34.22 116.38 32.85C117.73 34.49 119.82 35.39 122.27 35.39C126.61 35.39 129.09 32.31 130.39 30.42C130.75 29.88 130.91 29.61 130.91 29.17C130.91 28.69 130.33 28.11 129.88 28.11L129.85 28.09ZM72.85 18.4C71.97 18.03 71.56 17.53 71.56 16.88C71.56 15.53 71.98 14.82 72.59 14.82C73.2 14.82 73.37 15.26 73.37 16.07C73.37 16.57 73.15 17.38 72.85 18.4ZM90.44 32.57C89.15 32.57 88.83 31.22 88.83 29.49C88.83 22.94 92.55 18.61 94.36 18.61C95.71 18.61 96.07 19.8 96.07 21.69C96.07 22.5 95.45 22.98 95.45 23.79C95.45 24.6 96.17 24.77 96.17 25.41C96.17 26.05 91.99 32.57 90.44 32.57V32.57ZM121.62 18.78C122.08 18.78 122.34 19.05 122.34 19.7C122.34 23.01 119.65 26.09 118.1 27.11C118.12 23.24 120.45 18.79 121.62 18.79V18.78ZM62.18 17.49C61.44 17.47 60.73 17.61 60.09 17.92C61.74 14.29 63.57 9.45999 63.79 5.43999C63.95 2.41999 63.01 0.899989 60.93 0.829989C58.36 0.729989 54.27 5.61999 54.07 20.49C54.07 20.69 54.05 21.4 54.03 22.26C53.99 22.58 53.95 22.89 53.93 23.15C53.63 25.69 53.63 27.74 53.83 29.34C52.76 30.76 50.81 32.89 47.98 32.89C45.47 32.89 44.12 31.77 43.8 29.99C45.79 28.61 50.4 24.19 50.4 19.8C50.4 17.75 49.52 16.57 47.1 16.57C43.76 16.57 39.78 21.64 39.78 27.55C39.78 28.77 39.98 29.86 40.36 30.82C39.52 31.71 38.49 32.46 37.2 32.46C34.16 32.46 32.59 29.09 32.59 26.98C32.59 26.98 38.14 15.58 38.14 7.51998C38.14 4.24998 37.09 2.66999 35 2.66999C32.39 2.66999 29.09 8.30999 29.09 24.14C29.09 25.64 29.25 26.96 29.53 28.14C29.23 28.26 29.01 28.57 28.73 28.99C27.74 30.37 25.69 32.89 22.62 32.89C20.11 32.89 18.76 31.77 18.44 29.99C20.43 28.61 25.04 24.19 25.04 19.8C25.04 17.75 24.16 16.57 21.74 16.57C18.4 16.57 14.42 21.64 14.42 27.55C14.42 27.98 14.44 28.4 14.5 28.79C14.46 28.85 14.42 28.91 14.38 28.97C13.39 30.35 11.5 33.09 8.21001 33.09C5.13001 33.09 3.14001 31.3 3.14001 27.49C3.14001 22.15 5.65001 18.99 7.22001 18.99C8.21001 18.99 8.63001 19.88 8.63001 20.51C8.63001 21.14 8.11001 21.46 8.11001 22.19C8.11001 22.92 8.89001 23.61 9.78001 23.61C10.89 23.61 11.61 22.72 11.61 21.24C11.61 19.19 10.56 16.55 7.27001 16.55C3.19001 16.55 0.0100098 20.87 0.0100098 27.47C0.0100098 32.58 3.99001 35.44 7.65001 35.44C11.31 35.44 13.82 33.13 15.25 31.28C16.48 33.8 19.01 35.18 22.13 35.18C26.51 35.18 29.03 32.18 30.33 30.33C31.82 33.54 34.47 35.04 37.13 35.04C38.98 35.04 40.41 33.98 41.55 32.75C42.92 34.33 45.03 35.2 47.48 35.2C50.76 35.2 52.99 33.52 54.46 31.89C55.32 34.22 56.85 35.08 58.26 35.22C61.94 35.65 66.04 32.05 66.91 26.46C67.65 21.04 65.78 17.61 62.18 17.49V17.49ZM21.48 18.99C21.94 18.99 22.2 19.25 22.2 19.88C22.2 23.11 19.49 26.11 17.92 27.1C17.92 23.33 20.27 18.98 21.48 18.98V18.99ZM31.68 23.15C31.68 12.8 33.81 5.85999 34.92 5.85999C35.34 5.85999 35.54 6.44999 35.54 7.17999C35.54 14.3 31.68 23.15 31.68 23.15V23.15ZM46.82 18.99C47.28 18.99 47.54 19.25 47.54 19.88C47.54 23.11 44.83 26.11 43.26 27.1C43.28 23.33 45.63 18.98 46.82 18.98V18.99ZM56.98 13.69C57.6 7.84999 59.76 3.33999 60.68 3.29999C61.12 3.27999 61.36 3.74999 61.36 4.35999C61.42 7.74999 59.85 12.09 58.73 15.15C57.76 17.81 56.64 19.07 56.64 19.07C56.66 16.11 56.8 15.32 56.98 13.69ZM63.96 26.33C63.36 30.12 60.88 33.01 58.71 32.74C57.38 32.6 56.5 31.04 56.44 27.4C57.63 23.34 59.64 19.87 61.83 19.95C63.72 20.01 64.59 22.43 63.96 26.32V26.33Z" />
</svg>
