<svg xmlns="http://www.w3.org/2000/svg" width="141.4" height="33.584" viewBox="0 0 141.4 33.584">
  <defs>
    <linearGradient id="linear-gradient" x1="0.135" y1="0.88" x2="0.839" y2="0.141" >
      <stop offset="0" stop-color="#4d37d9"/>
      <stop offset="1" stop-color="#49c4e9"/>
    </linearGradient>
  </defs>
  <g id="Group_8198" transform="translate(14600 4501.226)">
    <path id="Path_4082"  d="M169.542,119.07l-.011.008h0a12.823,12.823,0,0,1-13.787,0h0c-.2.128-.395.267-.588.406-.322.231-.638.472-.937.732q-.2.177-.4.361-.392.369-.754.769-.18.2-.352.408a16.829,16.829,0,0,0,2.962,1.737c.15.069.3.142.449.206a16.765,16.765,0,0,0,12.841.073,16.734,16.734,0,0,0,1.391,15.074q.285.453.6.886a13.083,13.083,0,0,0,2.626-3.126,12.833,12.833,0,0,1,0-13.338A13.084,13.084,0,0,0,169.542,119.07Z" transform="translate(-14745.845 -4614.369)" fill="#49c4e9"/>
    <path id="Path_4083" d="M156.463,103.047a13.067,13.067,0,0,0-1.105,1.057,12.985,12.985,0,0,1,1.105-1.057q-.392-.544-.826-1.054a16.906,16.906,0,0,0-1.824-1.838q-.506-.438-1.046-.838a12.893,12.893,0,0,1-1.8,1.784,12.893,12.893,0,0,0,1.8-1.784,16.745,16.745,0,0,0-19.85,0c-.388.285-.762.589-1.124.905a16.957,16.957,0,0,0-1.745,1.771q-.467.549-.885,1.138a16.734,16.734,0,0,0,0,19.439q.392.55.825,1.068a16.9,16.9,0,0,0,1.805,1.84c.34.3.69.585,1.054.855a16.753,16.753,0,0,0,19.991,0c.336-.249.659-.514.975-.787a16.9,16.9,0,0,0,1.884-1.908q.4-.477.765-.984a16.737,16.737,0,0,0,0-19.607Zm-6.655-1.1h0Zm-6.965,23.773a12.787,12.787,0,0,1-7-2.08,12.826,12.826,0,0,1,14,0A12.787,12.787,0,0,1,142.843,125.719Zm-11.049-6.281a12.835,12.835,0,0,1,0-13.173,12.835,12.835,0,0,1,0,13.173Zm23.129-2.154c-.029.079-.059.156-.09.234-.023.059-.046.117-.069.175a12.849,12.849,0,0,1-.95,1.876l-.028-.048a13.083,13.083,0,0,1-2.626,3.126q-.313-.433-.6-.886a16.726,16.726,0,0,1-1.456-2.91,16.751,16.751,0,0,0-12.71.073,16.731,16.731,0,0,0-.065-12.312c-.152-.064-.3-.137-.449-.206q-.393-.18-.776-.379a16.66,16.66,0,0,1-2.186-1.358q.172-.208.352-.408.361-.4.754-.769.2-.185.4-.361c.3-.26.615-.5.937-.732.193-.139.387-.278.588-.406h0a12.823,12.823,0,0,1,13.787,0h0l.011-.008a13.084,13.084,0,0,1,4.038,4.2l.028-.048a12.834,12.834,0,0,1,.951,1.877c.023.056.045.113.067.17.031.079.062.158.091.238a12.852,12.852,0,0,1,0,8.863Z" transform="translate(-14726.051 -4597.285)" fill="url(#linear-gradient)"/>
    <g id="Group_8197" transform="translate(-14559.761 -4499.726)">
      <g id="Group_7181" transform="translate(0 5.487)">
        <path id="Path_4084"  d="M288.545,127.471c2.964,0,4.8,1.349,4.8,3.577a3.133,3.133,0,0,1-2.514,3.189,3.47,3.47,0,0,1,3.066,3.618c0,2.453-1.983,3.925-5.212,3.925h-6.357V127.471Zm-3.8,5.928h3.679c1.533,0,2.453-.715,2.453-1.921s-.92-1.86-2.453-1.86h-3.679Zm0,6.234h3.679c1.88,0,3-.736,3-2.085,0-1.267-1.124-2.023-3-2.023h-3.679Z" transform="translate(-282.331 -126.367)" />
        <path id="Path_4085"  d="M341.732,150.114a4.41,4.41,0,0,1-3.6,1.431c-2.351,0-3.822-1.451-3.822-3.373,0-1.982,1.492-3.25,4.108-3.27h3.291v-.327c0-1.37-.879-2.187-2.6-2.187a5.731,5.731,0,0,0-3.209,1.1l-.961-1.635a7.967,7.967,0,0,1,4.681-1.369c2.8,0,4.374,1.43,4.395,3.822l.02,7.134h-2.31Zm-.021-2.494v-1h-2.943c-1.533,0-2.248.409-2.248,1.451,0,.981.8,1.615,2.105,1.615C340.3,149.685,341.589,148.806,341.711,147.62Z" transform="translate(-320.924 -136.031)" />
        <path id="Path_4086"  d="M394.714,144.677v6.766h-2.351v-6.112a2.422,2.422,0,0,0-2.616-2.637,3.046,3.046,0,0,0-3.086,2.964v5.784H384.31V140.569h2.351v2.085a4.106,4.106,0,0,1,4.006-2.167C393.2,140.487,394.714,142.081,394.714,144.677Z" transform="translate(-358.045 -136.031)" />
        <path id="Path_4087"  d="M439.674,136.259V139.3h-2.35V124.138h2.35V133.3l4.8-4.865h2.7l-4.027,4.21,4.333,6.663H444.7l-3.189-4.988Z" transform="translate(-397.405 -123.893)" />
        <path id="Path_4088"  d="M488.782,146.905h-8.217a3.311,3.311,0,0,0,3.373,2.718A4.227,4.227,0,0,0,487,148.356l1.247,1.328a5.917,5.917,0,0,1-4.5,1.84,5.519,5.519,0,1,1-.061-11.037C487.515,140.487,489.068,142.98,488.782,146.905Zm-2.044-1.717a2.792,2.792,0,0,0-3.025-2.821,3.094,3.094,0,0,0-3.189,2.821Z" transform="translate(-427.748 -136.031)" />
        <path id="Path_4089"  d="M531.178,142.735a3.953,3.953,0,0,1,3.761-2.248v2.248a3.293,3.293,0,0,0-3.761,3.025v5.682h-2.351V140.569h2.351Z" transform="translate(-465.341 -136.031)" />
        <path id="Path_4090"  d="M562.041,124.616a1.371,1.371,0,1,1-1.369-1.43A1.354,1.354,0,0,1,562.041,124.616ZM559.507,138.6V127.724h2.33V138.6Z" transform="translate(-487.967 -123.186)" />
        <path id="Path_4091" d="M585.915,141.51l-.859,1.737a6.393,6.393,0,0,0-3.127-.961c-.92,0-1.594.307-1.594,1.083,0,2,5.785.92,5.764,4.865,0,2.228-1.983,3.229-4.17,3.229a6.725,6.725,0,0,1-4.374-1.513l.838-1.676a5.924,5.924,0,0,0,3.638,1.349c1,0,1.778-.347,1.778-1.165,0-2.228-5.723-.981-5.7-4.906,0-2.207,1.921-3.148,4.006-3.148A6.871,6.871,0,0,1,585.915,141.51Z" transform="translate(-501.518 -135.971)" />
        <path id="Path_4092"  d="M626.552,146.905h-8.217a3.311,3.311,0,0,0,3.373,2.718,4.227,4.227,0,0,0,3.066-1.267l1.247,1.328a5.917,5.917,0,0,1-4.5,1.84,5.519,5.519,0,1,1-.061-11.037C625.285,140.487,626.838,142.98,626.552,146.905Zm-2.044-1.717a2.793,2.793,0,0,0-3.025-2.821,3.094,3.094,0,0,0-3.189,2.821Z" transform="translate(-530.035 -136.031)" />
      </g>
      <path id="Ellipse_851" d="M3.345-.5A3.845,3.845,0,1,1-.5,3.345,3.85,3.85,0,0,1,3.345-.5Zm0,6.69A2.845,2.845,0,1,0,.5,3.345,2.848,2.848,0,0,0,3.345,6.19Z" transform="translate(93.971 0)" />
      <text id="R" transform="translate(95.76 4.5)"  font-size="4" font-family="Lato-Bold, Lato" font-weight="700">R</text>
    </g>
  </g>
</svg>
