<svg viewBox="0 0 24 24" xmlns="http://www.w3.org/2000/svg">
<path fill-rule="evenodd" clip-rule="evenodd" d="M18 12.75C18 12.3358 18.3358 12 18.75 12H23.25C23.6642 12 24 12.3358 24 12.75C24 13.1642 23.6642 13.5 23.25 13.5H18.75C18.3358 13.5 18 13.1642 18 12.75Z" />
<path fill-rule="evenodd" clip-rule="evenodd" d="M21 9.75C21.4142 9.75 21.75 10.0858 21.75 10.5V15C21.75 15.4142 21.4142 15.75 21 15.75C20.5858 15.75 20.25 15.4142 20.25 15V10.5C20.25 10.0858 20.5858 9.75 21 9.75Z" />
<path fill-rule="evenodd" clip-rule="evenodd" d="M10.125 4.5C7.43261 4.5 5.25 6.68261 5.25 9.375C5.25 12.0674 7.43261 14.25 10.125 14.25C12.8174 14.25 15 12.0674 15 9.375C15 6.68261 12.8174 4.5 10.125 4.5ZM3.75 9.375C3.75 5.85418 6.60418 3 10.125 3C13.6458 3 16.5 5.85418 16.5 9.375C16.5 12.8958 13.6458 15.75 10.125 15.75C6.60418 15.75 3.75 12.8958 3.75 9.375Z" />
<path fill-rule="evenodd" clip-rule="evenodd" d="M10.1249 15.7489C8.70114 15.7489 7.29462 16.0607 6.00423 16.6625C4.71384 17.2642 3.5709 18.1413 2.65575 19.232C2.38951 19.5494 1.91644 19.5908 1.59913 19.3245C1.28181 19.0583 1.2404 18.5852 1.50664 18.2679C2.56259 17.0094 3.88136 15.9974 5.37027 15.303C6.85918 14.6087 8.4821 14.2489 10.1249 14.2489C11.7678 14.2489 13.3907 14.6087 14.8796 15.303C16.3685 15.9974 17.6873 17.0094 18.7432 18.2679C19.0095 18.5852 18.9681 19.0583 18.6508 19.3245C18.3334 19.5908 17.8604 19.5494 17.5941 19.232C16.679 18.1413 15.536 17.2642 14.2457 16.6625C12.9553 16.0607 11.5487 15.7489 10.1249 15.7489Z" />
</svg>
