<svg viewBox="0 0 24 24" xmlns="http://www.w3.org/2000/svg">
<path fill-rule="evenodd" clip-rule="evenodd" d="M12 3.42857C10.264 3.42857 8.59918 4.10586 7.37166 5.31145C6.14415 6.51704 5.45455 8.15217 5.45455 9.85714C5.45455 11.6529 6.20192 13.6436 7.4293 15.1822C8.65883 16.7235 10.2864 17.7143 12 17.7143C13.7136 17.7143 15.3412 16.7235 16.5707 15.1822C17.7981 13.6436 18.5455 11.6529 18.5455 9.85714C18.5455 8.15217 17.8558 6.51704 16.6283 5.31145C15.4008 4.10586 13.736 3.42857 12 3.42857ZM6.34315 4.3013C7.84344 2.8278 9.87827 2 12 2C14.1217 2 16.1566 2.8278 17.6569 4.3013C19.1571 5.7748 20 7.77329 20 9.85714C20 12.0078 19.1201 14.3028 17.7157 16.0633C16.3134 17.8211 14.3046 19.1428 12 19.1428C9.69544 19.1428 7.68663 17.8211 6.28433 16.0633C4.8799 14.3028 4 12.0078 4 9.85714C4 7.77329 4.84285 5.7748 6.34315 4.3013Z" />
<path fill-rule="evenodd" clip-rule="evenodd" d="M11.2883 17.6761C11.6612 17.8226 11.8426 18.2383 11.6934 18.6046L10.8924 20.5714H13.1076L12.3066 18.6046C12.1574 18.2383 12.3388 17.8226 12.7117 17.6761C13.0847 17.5296 13.5079 17.7077 13.6571 18.074L14.8571 21.0204C14.9467 21.2405 14.9193 21.4899 14.7841 21.6862C14.6488 21.8824 14.4231 22 14.1818 22H9.81819C9.57686 22 9.35125 21.8824 9.21595 21.6862C9.08066 21.4899 9.0533 21.2405 9.14293 21.0204L10.3429 18.074C10.4921 17.7077 10.9154 17.5296 11.2883 17.6761Z" />
<path fill-rule="evenodd" clip-rule="evenodd" d="M12.0098 5.51665C12.0758 5.12752 12.4505 4.86459 12.8467 4.92938C13.8898 5.09998 14.8527 5.58652 15.6005 6.32096C16.3483 7.0554 16.8436 8.00102 17.0173 9.02558C17.0833 9.41471 16.8156 9.78269 16.4194 9.84748C16.0232 9.91227 15.6485 9.64934 15.5825 9.26021C15.4587 8.52943 15.1053 7.85496 14.5719 7.33111C14.0386 6.80726 13.3518 6.46023 12.6078 6.33855C12.2116 6.27376 11.9438 5.90578 12.0098 5.51665Z" />
</svg>
