<svg viewBox="0 0 24 24" xmlns="http://www.w3.org/2000/svg">
<path fill-rule="evenodd" clip-rule="evenodd" d="M20.6063 16.4991C20.0494 15.5372 19.3856 13.7156 19.3856 10.5V9.83438C19.3847 5.68313 16.0519 2.28094 11.955 2.25H11.9025C9.90189 2.25281 8.02127 3.03469 6.60939 4.45125C5.19658 5.86781 4.42033 7.74937 4.42314 9.75V10.5C4.42314 13.7156 3.75939 15.5372 3.20158 16.5C3.07033 16.7259 3.00002 16.9838 3.00002 17.2444C2.99814 17.6447 3.15283 18.0225 3.43595 18.3066C3.71908 18.5906 4.09408 18.7481 4.49814 18.75H8.15345C8.15345 20.8181 9.83533 22.5 11.9035 22.5C13.9716 22.5 15.6535 20.8181 15.6535 18.75H19.3125C19.5741 18.75 19.8319 18.6797 20.0569 18.5494C20.4038 18.3488 20.6522 18.0253 20.7563 17.6391C20.8603 17.2519 20.8069 16.8469 20.6063 16.4991ZM11.9043 21C10.664 21 9.6543 19.9903 9.6543 18.75H14.1543C14.1543 19.9903 13.1446 21 11.9043 21Z" fill="#FF8066"/>
</svg>
