<svg viewBox="0 0 24 24" xmlns="http://www.w3.org/2000/svg">
<path d="M20.6063 16.4991C20.0494 15.5372 19.3856 13.7156 19.3856 10.5V9.83438C19.3847 5.68313 16.0519 2.28094 11.955 2.25H11.9025C9.90189 2.25281 8.02127 3.03469 6.60939 4.45125C5.19658 5.86781 4.42033 7.74937 4.42314 9.75V10.5C4.42314 13.7156 3.75939 15.5372 3.20158 16.5C3.07033 16.7259 3.00002 16.9838 3.00002 17.2444C2.99814 17.6447 3.15283 18.0225 3.43595 18.3066C3.71908 18.5906 4.09408 18.7481 4.49814 18.75H8.15345C8.15345 20.8181 9.83533 22.5 11.9035 22.5C13.9716 22.5 15.6535 20.8181 15.6535 18.75H19.3125C19.5741 18.75 19.8319 18.6797 20.0569 18.5494C20.4038 18.3487 20.6522 18.0253 20.7563 17.6391C20.8603 17.2519 20.8069 16.8478 20.6063 16.5V16.4991ZM11.9044 21C10.6641 21 9.65439 19.9903 9.65439 18.75H14.1544C14.1544 19.9903 13.1447 21 11.9044 21ZM14.9091 17.25C14.9091 17.25 14.9063 17.25 14.9044 17.25C14.9025 17.25 14.9016 17.25 14.8997 17.25H8.91377C8.91377 17.25 8.9072 17.25 8.90345 17.25C8.8997 17.25 8.89689 17.25 8.89314 17.25H4.50002C5.14877 16.1287 5.92314 14.0475 5.92314 10.4991V9.74906C5.92127 8.14781 6.54189 6.64219 7.67158 5.50969C8.80127 4.37625 10.305 3.75094 11.9063 3.74906H11.9456C15.2213 3.77437 17.8856 6.50344 17.8856 9.83344V10.4991C17.8856 14.0475 18.6591 16.1288 19.3106 17.2491H14.9091V17.25Z" />
</svg>
