<svg viewBox="0 0 24 24" xmlns="http://www.w3.org/2000/svg">
<path fill-rule="evenodd" clip-rule="evenodd" d="M9 3C8.74924 3 8.51506 3.12533 8.37596 3.33397L7.09861 5.25H4.5C3.90326 5.25 3.33097 5.48705 2.90901 5.90901C2.48705 6.33097 2.25 6.90326 2.25 7.5V18C2.25 18.5967 2.48705 19.169 2.90901 19.591C3.33097 20.0129 3.90326 20.25 4.5 20.25H19.5C20.0967 20.25 20.669 20.0129 21.091 19.591C21.5129 19.169 21.75 18.5967 21.75 18V7.5C21.75 6.90326 21.5129 6.33097 21.091 5.90901C20.669 5.48705 20.0967 5.25 19.5 5.25H16.9014L15.624 3.33397C15.4849 3.12533 15.2508 3 15 3H9ZM9.375 12.375C9.375 10.9253 10.5503 9.75 12 9.75C13.4497 9.75 14.625 10.9253 14.625 12.375C14.625 13.8247 13.4497 15 12 15C10.5503 15 9.375 13.8247 9.375 12.375ZM12 8.25C9.72183 8.25 7.875 10.0968 7.875 12.375C7.875 14.6532 9.72183 16.5 12 16.5C14.2782 16.5 16.125 14.6532 16.125 12.375C16.125 10.0968 14.2782 8.25 12 8.25Z" />
</svg>
