<svg viewBox="0 0 24 24" xmlns="http://www.w3.org/2000/svg">
<path d="M18.133 8.58487C17.9786 8.58487 17.8347 8.65566 17.7399 8.77601L17.7329 8.78663L17.7259 8.77601C17.6311 8.65566 17.4873 8.58487 17.3329 8.58487C17.0591 8.58487 16.8381 8.80079 16.8381 9.0698C16.8381 9.35651 17.01 9.61136 17.3048 9.84497C17.3785 9.90515 17.4592 9.96178 17.5434 10.0149C17.5925 10.0467 17.7154 10.1211 17.7154 10.1211C17.7294 10.1281 17.747 10.1281 17.761 10.1211C17.7575 10.1211 17.8838 10.0432 17.9329 10.0078C18.0207 9.94762 18.0979 9.89099 18.1751 9.83082C18.4663 9.59012 18.6418 9.33881 18.6418 9.07334C18.6418 8.80787 18.4207 8.58841 18.147 8.58841L18.133 8.58487ZM4.78036 5.66469C4.76633 5.51249 4.62947 5.39922 4.47857 5.41338L3.25034 5.53373C3.09944 5.54789 2.98715 5.68593 3.00119 5.83813C3.01522 5.98326 3.13454 6.08945 3.2749 6.08945C3.28543 6.08945 3.29245 6.08945 3.30298 6.08945L4.53121 5.9691C4.6821 5.95494 4.7944 5.8169 4.78036 5.66469ZM9.44763 5.22578C9.46167 5.37091 9.58098 5.47709 9.72135 5.47709C9.73188 5.47709 9.7389 5.47709 9.74943 5.47709L10.9777 5.35675C11.1286 5.34259 11.2408 5.20454 11.2268 5.05234C11.2128 4.90014 11.0759 4.78687 10.925 4.80103L9.69679 4.92138C9.54589 4.93553 9.43359 5.07358 9.44763 5.22578ZM8.44048 4.08603C8.49312 4.1285 8.55278 4.14974 8.61594 4.14974C8.69666 4.14974 8.77386 4.11434 8.83001 4.04709L9.61257 3.08786C9.71082 2.96751 9.69328 2.79407 9.57396 2.69496C9.45465 2.59585 9.2827 2.61355 9.18444 2.73389L8.40188 3.69313C8.30362 3.81348 8.32117 3.98692 8.44048 4.08603ZM4.04342 3.85241L5.11725 4.46476C5.15936 4.48954 5.20849 4.50016 5.25411 4.50016C5.34886 4.50016 5.4436 4.45061 5.49624 4.35858C5.56994 4.22407 5.52432 4.05417 5.39097 3.97984L4.31714 3.36749C4.18379 3.29315 4.01535 3.33917 3.94166 3.47367C3.86796 3.60818 3.91358 3.77808 4.04693 3.85241H4.04342ZM6.66131 3.54093C6.67534 3.68605 6.79466 3.79224 6.93503 3.79224C6.94556 3.79224 6.95257 3.79224 6.9631 3.79224C7.114 3.77808 7.22629 3.64003 7.21225 3.48783L7.09294 2.25251C7.07891 2.1003 6.94204 1.98704 6.79115 2.0012C6.64025 2.01535 6.52796 2.1534 6.54199 2.3056L6.66131 3.54093ZM15.8941 11.7918C16.0976 12.2802 16.2029 12.797 16.2029 13.328C16.2029 13.8589 16.0976 14.3792 15.8941 14.8641C15.6976 15.3349 15.4133 15.7561 15.0554 16.1207C14.6939 16.4817 14.2763 16.7685 13.8096 16.9667C13.3253 17.172 12.813 17.2782 12.2831 17.2782C11.7532 17.2782 11.2408 17.172 10.7566 16.9667C10.2898 16.7685 9.87225 16.4817 9.5108 16.1207C9.14935 15.7597 8.86861 15.3349 8.67209 14.8641C8.46856 14.3757 8.36328 13.8589 8.36328 13.328C8.36328 12.797 8.46856 12.2767 8.67209 11.7918C8.86861 11.321 9.15286 10.8998 9.5108 10.5352C9.86874 10.1706 10.2898 9.88745 10.7566 9.68923C11.2408 9.48393 11.7532 9.37775 12.2831 9.37775C12.813 9.37775 13.3253 9.48393 13.8096 9.68923C14.2763 9.88745 14.6939 10.1742 15.0554 10.5352C15.4168 10.8962 15.6976 11.321 15.8941 11.7918ZM15.6484 13.328C15.6484 12.4218 15.2975 11.5688 14.6623 10.9281C14.0272 10.2874 13.1814 9.93346 12.2831 9.93346C11.3847 9.93346 10.539 10.2874 9.90383 10.9281C9.26866 11.5688 8.91774 12.4218 8.91774 13.328C8.91774 14.2341 9.26866 15.0871 9.90383 15.7278C10.539 16.3685 11.3847 16.7224 12.2831 16.7224C13.1814 16.7224 14.0272 16.3685 14.6623 15.7278C15.2975 15.0871 15.6484 14.2341 15.6484 13.328ZM12.3533 10.9812C11.5567 10.9812 10.904 11.2396 10.4618 11.7316C10.0582 12.1776 9.84768 12.7935 9.84768 13.5085C9.84768 13.6607 9.97051 13.7881 10.1249 13.7881C10.2793 13.7881 10.4021 13.6642 10.4021 13.5085C10.4021 12.9315 10.5636 12.4466 10.8724 12.1032C11.2128 11.728 11.7111 11.5369 12.3568 11.5369C12.5077 11.5369 12.634 11.413 12.634 11.2573C12.634 11.1015 12.5112 10.9777 12.3568 10.9777L12.3533 10.9812ZM20.9965 12.8643C20.9965 12.9846 20.993 15.8305 20.635 17.2569C20.4069 18.1737 19.7262 18.8993 18.8594 19.1471C18.5962 19.2214 18.2031 19.2851 17.6522 19.3382H17.6382L17.2732 19.3524C17.1749 20.078 17.3504 20.701 17.8101 21.2531C17.9294 21.3983 17.9435 21.5965 17.8487 21.7664C17.7645 21.9115 17.6171 22 17.4557 22C17.4276 22 17.3995 22 17.375 21.9929C16.5994 21.8513 15.9362 21.554 15.3501 21.0797C14.8589 20.6833 14.4307 20.17 14.0482 19.5187C13.0797 19.54 12.3392 19.54 12.2445 19.54C12.1006 19.54 10.8127 19.54 9.37043 19.4904C7.44737 19.4267 6.18756 19.3134 5.62258 19.1506C4.7558 18.9028 4.07501 18.1772 3.84691 17.2605C3.48897 15.8375 3.48546 12.9881 3.48546 12.8678C3.48546 12.7475 3.48897 9.90161 3.84691 8.47514C4.07501 7.55838 4.7558 6.83276 5.62258 6.58499C5.65767 6.57437 5.59801 6.56375 5.59801 6.56375C5.58748 6.40093 5.56292 5.99388 5.59801 5.74256C5.6331 5.49479 5.78049 5.28949 5.98052 5.20454C6.20862 5.10897 6.89993 5.06296 7.114 5.0488C7.32806 5.0311 8.01938 4.98155 8.258 5.04526C8.46856 5.10189 8.64402 5.28595 8.71069 5.52311C8.78439 5.7815 8.81597 6.18148 8.81948 6.25935C8.81948 6.25935 9.10373 6.25227 9.36692 6.24519C10.8092 6.19917 12.0971 6.19563 12.241 6.19563C12.3849 6.19563 13.6727 6.19563 15.115 6.24519C17.0381 6.3089 18.2979 6.42217 18.8629 6.58499C19.7297 6.83276 20.4104 7.55838 20.6385 8.47514C20.9965 9.89807 21 12.7475 21 12.8678L20.9965 12.8643ZM6.13843 6.47526C6.63674 6.39739 7.3456 6.33722 8.26502 6.28767C8.25449 6.14254 8.22291 5.84167 8.17729 5.67177C8.15975 5.60806 8.12465 5.57974 8.11413 5.57974C8.01236 5.55143 7.53159 5.56912 7.1526 5.60098H7.14558C6.76308 5.62222 6.28933 5.67531 6.19107 5.71425C6.18054 5.71779 6.14896 5.74964 6.14194 5.8169C6.12089 5.9691 6.12791 6.25581 6.14194 6.47526H6.13843ZM20.4455 12.8643C20.4455 12.7475 20.442 9.96886 20.1016 8.60965C19.9192 7.88403 19.3858 7.31415 18.7085 7.11947C17.6943 6.82923 14.0307 6.75135 12.2375 6.75135C10.4443 6.75135 6.78062 6.82923 5.76646 7.11947C5.08917 7.31415 4.55577 7.88403 4.37329 8.60965C4.0329 9.96886 4.02939 12.7475 4.02939 12.8643C4.02939 12.9811 4.0329 15.7597 4.37329 17.1189C4.55577 17.8445 5.08917 18.4144 5.76646 18.6091C6.78062 18.8993 10.4443 18.9772 12.2375 18.9772C12.3498 18.9772 13.1148 18.9807 14.3605 18.9453L14.3781 18.9807C15.1045 20.3258 16.0099 21.0939 17.2171 21.3876C17.01 21.0939 16.8661 20.7753 16.7819 20.4461C16.6696 20.0001 16.6907 19.4373 16.8802 18.8356L17.6101 18.7825C18.1154 18.7329 18.4874 18.6728 18.712 18.6091C19.3893 18.4144 19.9227 17.8445 20.1051 17.1189C20.4455 15.7597 20.4491 12.9811 20.4491 12.8643H20.4455Z" stroke-width="0.5"/>
</svg>
