<svg viewBox="0 0 24 24" xmlns="http://www.w3.org/2000/svg">
<path fill-rule="evenodd" clip-rule="evenodd" d="M6.19497 5.20503C5.92161 4.93166 5.47839 4.93166 5.20503 5.20503C4.93166 5.47839 4.93166 5.92161 5.20503 6.19497L11.01 12L5.20503 17.805C4.93166 18.0784 4.93166 18.5216 5.20503 18.795C5.47839 19.0683 5.92161 19.0683 6.19497 18.795L12 12.99L17.805 18.795C18.0784 19.0683 18.5216 19.0683 18.795 18.795C19.0683 18.5216 19.0683 18.0784 18.795 17.805L12.99 12L18.795 6.19497C19.0683 5.92161 19.0683 5.47839 18.795 5.20503C18.5216 4.93166 18.0784 4.93166 17.805 5.20503L12 11.01L6.19497 5.20503Z" />
</svg>
