<svg viewBox="0 0 24 24" xmlns="http://www.w3.org/2000/svg">
<g filter="url(#filter0_d_1131_21976)">
<path fill-rule="evenodd" clip-rule="evenodd" d="M3 5.93878C3 4.83421 3.89543 3.93878 5 3.93878H19C20.1046 3.93878 21 4.83421 21 5.93878V18.3388V19.7119C21 20.5748 19.9805 21.0326 19.3356 20.4593L16.95 18.3388H5C3.89543 18.3388 3 17.4434 3 16.3388V5.93878ZM6.6 9.33878C6.6 8.84173 7.00294 8.43878 7.5 8.43878H16.5C16.9971 8.43878 17.4 8.84173 17.4 9.33878C17.4 9.83584 16.9971 10.2388 16.5 10.2388H7.5C7.00294 10.2388 6.6 9.83584 6.6 9.33878ZM7.5 12.0388C7.00294 12.0388 6.6 12.4417 6.6 12.9388C6.6 13.4358 7.00294 13.8388 7.5 13.8388H12C12.4971 13.8388 12.9 13.4358 12.9 12.9388C12.9 12.4417 12.4971 12.0388 12 12.0388H7.5Z" fill="white"/>
</g>
<defs>
<filter id="filter0_d_1131_21976" x="1" y="1.93878" width="22" height="20.7751" filterUnits="userSpaceOnUse" color-interpolation-filters="sRGB">
<feFlood flood-opacity="0" result="BackgroundImageFix"/>
<feColorMatrix in="SourceAlpha" type="matrix" values="0 0 0 0 0 0 0 0 0 0 0 0 0 0 0 0 0 0 127 0" result="hardAlpha"/>
<feOffset/>
<feGaussianBlur stdDeviation="1"/>
<feComposite in2="hardAlpha" operator="out"/>
<feColorMatrix type="matrix" values="0 0 0 0 0 0 0 0 0 0 0 0 0 0 0 0 0 0 0.3 0"/>
<feBlend mode="normal" in2="BackgroundImageFix" result="effect1_dropShadow_1131_21976"/>
<feBlend mode="normal" in="SourceGraphic" in2="effect1_dropShadow_1131_21976" result="shape"/>
</filter>
</defs>
</svg>
