<svg viewBox="0 0 24 24" xmlns="http://www.w3.org/2000/svg">
<path d="M20.5674 7.51464L16.473 3.42112C16.1948 3.14657 15.8242 2.99465 15.4352 3.00014C15.0444 3.00289 14.6775 3.15847 14.4066 3.43302L3.42372 14.4168C3.14918 14.6922 2.99909 15.0583 3 15.4454V19.5362C3 20.3434 3.65709 21.0005 4.46426 21.0005H8.55778C8.9394 21.0005 9.3137 20.8458 9.58551 20.5758L20.5793 9.58107C21.1458 9.00543 21.1385 8.07654 20.5674 7.51464ZM8.55412 19.5362H4.46426L4.4606 15.4509L12.5204 7.39566L16.6066 11.4819L8.55412 19.5362ZM17.6426 10.4477L13.5564 6.36153L15.4499 4.46898L19.5315 8.55883L17.6426 10.4477Z" />
</svg>
