<svg viewBox="0 0 40 40"  fill="none" xmlns="http://www.w3.org/2000/svg">
<circle cx="20" cy="20" r="20" fill="#F54F69"/>
<path fill-rule="evenodd" clip-rule="evenodd" d="M26.795 13.205C27.0683 13.4784 27.0683 13.9216 26.795 14.195L14.195 26.795C13.9216 27.0683 13.4784 27.0683 13.205 26.795C12.9317 26.5216 12.9317 26.0784 13.205 25.805L25.805 13.205C26.0784 12.9317 26.5216 12.9317 26.795 13.205Z" fill="white"/>
<path fill-rule="evenodd" clip-rule="evenodd" d="M13.205 13.205C13.4784 12.9317 13.9216 12.9317 14.195 13.205L26.795 25.805C27.0683 26.0784 27.0683 26.5216 26.795 26.795C26.5216 27.0683 26.0784 27.0683 25.805 26.795L13.205 14.195C12.9317 13.9216 12.9317 13.4784 13.205 13.205Z" fill="white"/>
<path fill-rule="evenodd" clip-rule="evenodd" d="M26.795 13.205C27.0683 13.4784 27.0683 13.9216 26.795 14.195L14.195 26.795C13.9216 27.0683 13.4784 27.0683 13.205 26.795C12.9317 26.5216 12.9317 26.0784 13.205 25.805L25.805 13.205C26.0784 12.9317 26.5216 12.9317 26.795 13.205Z" fill="none" stroke="white" stroke-width="0.8" stroke-linecap="round" stroke-linejoin="round"/>
<path fill-rule="evenodd" clip-rule="evenodd" d="M13.205 13.205C13.4784 12.9317 13.9216 12.9317 14.195 13.205L26.795 25.805C27.0683 26.0784 27.0683 26.5216 26.795 26.795C26.5216 27.0683 26.0784 27.0683 25.805 26.795L13.205 14.195C12.9317 13.9216 12.9317 13.4784 13.205 13.205Z" fill="none" stroke="white" stroke-width="0.8" stroke-linecap="round" stroke-linejoin="round"/>
</svg>
