<svg viewBox="0 0 24 24" xmlns="http://www.w3.org/2000/svg">
<path fill-rule="evenodd" clip-rule="evenodd" d="M12 9.68884C10.4322 9.68884 9.16127 10.9623 9.16127 12.5333C9.16127 14.1042 10.4322 15.3777 12 15.3777C13.5678 15.3777 14.8387 14.1042 14.8387 12.5333C14.8387 10.9623 13.5678 9.68884 12 9.68884ZM7.74192 12.5333C7.74192 10.1769 9.64832 8.26663 12 8.26663C14.3516 8.26663 16.258 10.1769 16.258 12.5333C16.258 14.8897 14.3516 16.7999 12 16.7999C9.64832 16.7999 7.74192 14.8897 7.74192 12.5333Z" />
<path fill-rule="evenodd" clip-rule="evenodd" d="M20.0961 11.5971C19.4557 11.2763 18.7494 11.1099 18.0334 11.1111C17.6415 11.1117 17.3232 10.7939 17.3225 10.4011C17.3219 10.0084 17.6391 9.6895 18.031 9.68885C18.9682 9.68728 19.8927 9.90515 20.7309 10.3251C21.5691 10.745 22.2977 11.3554 22.8587 12.1076C23.0934 12.4221 23.0291 12.8677 22.7151 13.1029C22.4012 13.338 21.9565 13.2736 21.7218 12.959C21.2932 12.3843 20.7365 11.918 20.0961 11.5971Z" />
<path fill-rule="evenodd" clip-rule="evenodd" d="M5.96659 11.1111C5.25062 11.1099 4.54427 11.2763 3.90389 11.5971C3.2635 11.918 2.7068 12.3843 2.27817 12.959C2.04353 13.2736 1.59881 13.338 1.28486 13.1029C0.970916 12.8677 0.906625 12.4221 1.14127 12.1076C1.70228 11.3554 2.43094 10.745 3.26913 10.3251C4.10732 9.90515 5.03184 9.68728 5.96896 9.68885C6.3609 9.6895 6.67811 10.0084 6.67745 10.4011C6.67679 10.7939 6.35853 11.1117 5.96659 11.1111Z" />
<path fill-rule="evenodd" clip-rule="evenodd" d="M12 16.8021C11.0678 16.8021 10.1544 17.0645 9.36376 17.5593C8.57312 18.0541 7.93706 18.7614 7.52804 19.6008C7.35607 19.9537 6.93114 20.1001 6.57894 19.9277C6.22674 19.7554 6.08065 19.3296 6.25262 18.9767C6.77829 17.898 7.59575 16.9889 8.61189 16.353C9.62802 15.7171 10.802 15.3799 12 15.3799C13.198 15.3799 14.372 15.7171 15.3881 16.353C16.4042 16.9889 17.2217 17.898 17.7474 18.9767C17.9194 19.3296 17.7733 19.7554 17.4211 19.9277C17.0689 20.1001 16.6439 19.9537 16.472 19.6008C16.0629 18.7614 15.4269 18.0541 14.6362 17.5593C13.8456 17.0645 12.9322 16.8021 12 16.8021Z" />
<path fill-rule="evenodd" clip-rule="evenodd" d="M6.49372 5.48905C6.10229 5.38849 5.69039 5.40163 5.30613 5.52692C4.92188 5.65222 4.58115 5.8845 4.32375 6.19663C4.06635 6.50876 3.90291 6.88784 3.85254 7.28959C3.80217 7.69133 3.86694 8.09914 4.03928 8.46537C4.21162 8.8316 4.48442 9.14112 4.82579 9.35777C5.16717 9.57442 5.56303 9.68925 5.96712 9.68884C6.35907 9.68844 6.67712 10.0065 6.67752 10.3992C6.67792 10.792 6.3605 11.1106 5.96856 11.111C5.29508 11.1117 4.63531 10.9204 4.06635 10.5593C3.49739 10.1982 3.04272 9.68232 2.75549 9.07194C2.46825 8.46156 2.36031 7.78187 2.44426 7.1123C2.52822 6.44272 2.80061 5.81092 3.2296 5.2907C3.6586 4.77049 4.22649 4.38335 4.86691 4.17452C5.50734 3.96569 6.19384 3.9438 6.84622 4.1114C7.4986 4.279 8.08991 4.62917 8.55105 5.121C9.0122 5.61282 9.32413 6.22599 9.45041 6.88886C9.5239 7.27463 9.27138 7.64705 8.88639 7.72069C8.50139 7.79432 8.12972 7.54129 8.05623 7.15553C7.98046 6.75781 7.7933 6.3899 7.51662 6.09481C7.23993 5.79971 6.88515 5.58961 6.49372 5.48905Z" />
<path fill-rule="evenodd" clip-rule="evenodd" d="M18.6939 5.52692C18.3096 5.40163 17.8977 5.38849 17.5063 5.48905C17.1148 5.58961 16.7601 5.79971 16.4834 6.09481C16.2067 6.3899 16.0195 6.75781 15.9438 7.15553C15.8703 7.54129 15.4986 7.79432 15.1136 7.72069C14.7286 7.64705 14.4761 7.27463 14.5496 6.88886C14.6759 6.22599 14.9878 5.61282 15.4489 5.121C15.9101 4.62917 16.5014 4.279 17.1538 4.1114C17.8061 3.9438 18.4927 3.96569 19.1331 4.17452C19.7735 4.38335 20.3414 4.77049 20.7704 5.2907C21.1994 5.81092 21.4718 6.44272 21.5557 7.1123C21.6397 7.78187 21.5317 8.46156 21.2445 9.07194C20.9573 9.68232 20.5026 10.1982 19.9336 10.5593C19.3647 10.9204 18.7049 11.1117 18.0314 11.111C17.6395 11.1106 17.3221 10.792 17.3225 10.3992C17.3229 10.0065 17.6409 9.68844 18.0329 9.68884C18.437 9.68925 18.8328 9.57442 19.1742 9.35777C19.5156 9.14112 19.7884 8.8316 19.9607 8.46537C20.1331 8.09914 20.1978 7.69133 20.1474 7.28959C20.0971 6.88784 19.9336 6.50876 19.6762 6.19663C19.4188 5.8845 19.0781 5.65222 18.6939 5.52692Z" />
</svg>
