<svg viewBox="0 0 24 24" xmlns="http://www.w3.org/2000/svg">
<path fill-rule="evenodd" clip-rule="evenodd" d="M4.42488 6H19.5749V6.75L19.5784 6.00001C19.9452 6.00173 20.2989 6.13698 20.5732 6.38047C20.8476 6.62396 21.0239 6.95902 21.0691 7.32304L21.0704 7.33292L22.4014 19.3312C22.425 19.5402 22.4044 19.7523 22.3409 19.9527C22.2774 20.1534 22.1724 20.3384 22.0327 20.4958C21.893 20.6532 21.7217 20.7794 21.5301 20.8663C21.3384 20.9531 21.1306 20.9987 20.9201 21L20.9155 21H3.07964C2.8692 20.9987 2.66138 20.9531 2.4697 20.8663C2.27802 20.7794 2.10676 20.6532 1.96706 20.4958C1.82736 20.3384 1.72233 20.1534 1.65882 19.9527C1.59541 19.7524 1.57478 19.5411 1.59827 19.3323L1.59839 19.3312L2.93055 7.32303C2.97583 6.95902 3.15219 6.62396 3.42655 6.38047C3.7009 6.13698 4.05454 6.00173 4.42136 6.00001L4.42488 6ZM19.5717 7.5H4.42805C4.4259 7.50009 4.42384 7.50092 4.42222 7.50235C4.42077 7.50365 4.41976 7.50535 4.41932 7.50723L3.08887 19.5H20.9109L19.5804 7.50723C19.58 7.50535 19.579 7.50365 19.5775 7.50235C19.5759 7.50092 19.5739 7.50009 19.5717 7.5Z" />
<path fill-rule="evenodd" clip-rule="evenodd" d="M11.9999 3.75C11.2042 3.75 10.4412 4.06607 9.87856 4.62868C9.31595 5.19129 8.99988 5.95435 8.99988 6.75V9.75C8.99988 10.1642 8.66409 10.5 8.24988 10.5C7.83566 10.5 7.49988 10.1642 7.49988 9.75V6.75C7.49988 5.55653 7.97398 4.41193 8.8179 3.56802C9.66181 2.72411 10.8064 2.25 11.9999 2.25C13.1934 2.25 14.3379 2.72411 15.1819 3.56802C16.0258 4.41193 16.4999 5.55653 16.4999 6.75V9.75C16.4999 10.1642 16.1641 10.5 15.7499 10.5C15.3357 10.5 14.9999 10.1642 14.9999 9.75V6.75C14.9999 5.95435 14.6838 5.19129 14.1212 4.62868C13.5586 4.06607 12.7955 3.75 11.9999 3.75Z" />
</svg>
