<svg viewBox="0 0 24 24" xmlns="http://www.w3.org/2000/svg">
<path d="M12 2.51276C11.6257 2.51276 11.265 2.65268 10.9886 2.90502L10.9875 2.90603L3.48935 9.71997L3.47879 9.72975C3.33057 9.86973 3.21187 10.0379 3.12966 10.2245C3.04745 10.4111 3.0034 10.6122 3.0001 10.816L3 10.8281V19.5C3 19.8978 3.15804 20.2794 3.43934 20.5607C3.72065 20.842 4.10218 21 4.5 21H9C9.39782 21 9.77936 20.842 10.0607 20.5607C10.342 20.2794 10.5 19.8978 10.5 19.5V15H13.5V19.5C13.5 19.8978 13.658 20.2794 13.9393 20.5607C14.2206 20.842 14.6022 21 15 21H19.5C19.8978 21 20.2794 20.842 20.5607 20.5607C20.842 20.2794 21 19.8978 21 19.5V10.8281L20.9999 10.816C20.9966 10.6122 20.9526 10.4111 20.8703 10.2245C20.7881 10.0379 20.6694 9.86973 20.5212 9.72975L20.5107 9.71997L13.0125 2.90603L13.0114 2.90502C12.735 2.65268 12.3743 2.51276 12 2.51276Z" fill="#FF8066"/>
</svg>
