<svg viewBox="0 0 24 24" xmlns="http://www.w3.org/2000/svg">
<path fill-rule="evenodd" clip-rule="evenodd" d="M18.7506 4.55H4.55V18.7507C4.55 19.1097 4.25899 19.4007 3.9 19.4007C3.54101 19.4007 3.25 19.1097 3.25 18.7507V4.4C3.25 3.76487 3.76487 3.25 4.4 3.25H18.7506C19.1096 3.25 19.4006 3.54101 19.4006 3.9C19.4006 4.25899 19.1096 4.55 18.7506 4.55ZM5.88049 7.11769C5.88049 6.43421 6.43456 5.88013 7.11805 5.88013H19.4936C20.1771 5.88013 20.7311 6.43421 20.7311 7.11769V15.7793V15.782V19.4933C20.7311 20.1768 20.1771 20.7309 19.4936 20.7309H7.11805C6.43456 20.7309 5.88049 20.1768 5.88049 19.4933V17.0182V7.11769ZM19.4936 7.11769V14.2868L17.2794 12.0726C17.1647 11.9566 17.0282 11.8645 16.8777 11.8015C16.7263 11.7381 16.5638 11.7054 16.3997 11.7054C16.2356 11.7054 16.0731 11.7381 15.9217 11.8015C15.7712 11.8645 15.6346 11.9567 15.5199 12.0727L12.0716 15.521L12.0683 15.5243L10.473 13.929C10.3582 13.813 10.2216 13.7208 10.0711 13.6578C9.91974 13.5944 9.75727 13.5618 9.59315 13.5618C9.42904 13.5618 9.26656 13.5944 9.11519 13.6578C8.96466 13.7208 8.8281 13.813 8.71335 13.929L7.11805 15.5243V7.11769H19.4936ZM7.11805 19.4933V17.2745L9.58983 14.8027L9.59314 14.7994L11.1884 16.3947C11.3032 16.5107 11.4398 16.6029 11.5903 16.6659C11.7417 16.7293 11.9041 16.7619 12.0683 16.7619C12.2324 16.7619 12.3948 16.7293 12.5462 16.6659C12.6967 16.6029 12.8333 16.5107 12.9481 16.3947L16.3964 12.9464L16.3997 12.943L19.4936 16.0369V19.4933H7.11805ZM12.0683 10.521C12.0683 11.0336 11.6527 11.4492 11.1401 11.4492C10.6275 11.4492 10.2119 11.0336 10.2119 10.521C10.2119 10.0084 10.6275 9.59282 11.1401 9.59282C11.6527 9.59282 12.0683 10.0084 12.0683 10.521Z" />
</svg>
