<svg viewBox="0 0 24 24" xmlns="http://www.w3.org/2000/svg">
<path fill-rule="evenodd" clip-rule="evenodd" d="M8.25 6C5.97183 6 4.125 7.84683 4.125 10.125C4.125 12.4032 5.97183 14.25 8.25 14.25C10.5282 14.25 12.375 12.4032 12.375 10.125C12.375 7.84683 10.5282 6 8.25 6ZM2.625 10.125C2.625 7.0184 5.1434 4.5 8.25 4.5C11.3566 4.5 13.875 7.0184 13.875 10.125C13.875 13.2316 11.3566 15.75 8.25 15.75C5.1434 15.75 2.625 13.2316 2.625 10.125Z" />
<path fill-rule="evenodd" clip-rule="evenodd" d="M15.8884 4.50001L15.8907 4.5C17.3825 4.5 18.8132 5.09264 19.8681 6.14753C20.923 7.20242 21.5157 8.63316 21.5157 10.125C21.5157 11.6168 20.923 13.0476 19.8681 14.1025C18.8132 15.1574 17.3825 15.75 15.8907 15.75C15.4765 15.75 15.1407 15.4142 15.1407 15C15.1407 14.5858 15.4765 14.25 15.8907 14.25C16.9847 14.25 18.0339 13.8154 18.8075 13.0418C19.5811 12.2682 20.0157 11.219 20.0157 10.125C20.0157 9.03099 19.5811 7.98178 18.8075 7.20819C18.0342 6.43487 16.9854 6.0003 15.8918 6C15.5112 6.00126 15.1324 6.05235 14.7651 6.15198C14.3653 6.2604 13.9534 6.02422 13.8449 5.62445C13.7365 5.22468 13.9727 4.8127 14.3725 4.70428C14.8667 4.57024 15.3763 4.50157 15.8884 4.50001Z" />
<path fill-rule="evenodd" clip-rule="evenodd" d="M8.25 15.75C7.04644 15.75 5.86061 16.0393 4.79257 16.5941C3.72453 17.149 2.8057 17.9527 2.1137 18.9374C1.87554 19.2763 1.40775 19.358 1.06884 19.1199C0.729942 18.8817 0.648271 18.4139 0.886427 18.075C1.71683 16.8933 2.81942 15.9288 4.10107 15.263C5.38272 14.5972 6.80572 14.25 8.25 14.25C9.69428 14.25 11.1174 14.5972 12.3991 15.263C13.6807 15.9288 14.7833 16.8933 15.6137 18.075C15.8519 18.4139 15.7702 18.8817 15.4313 19.1199C15.0924 19.358 14.6246 19.2763 14.3864 18.9374C13.6944 17.9527 12.7756 17.149 11.7076 16.5941C10.6395 16.0393 9.45356 15.75 8.25 15.75Z" />
<path fill-rule="evenodd" clip-rule="evenodd" d="M19.3486 16.5933C18.2806 16.0385 17.0942 15.7493 15.8907 15.75C15.4765 15.75 15.1407 15.4142 15.1407 15C15.1407 14.5858 15.4765 14.25 15.8907 14.25C17.3352 14.2491 18.7582 14.5963 20.0401 15.2622C21.322 15.9281 22.4246 16.893 23.2545 18.0754C23.4925 18.4144 23.4105 18.8821 23.0715 19.1201C22.7325 19.3581 22.2647 19.2762 22.0268 18.9371C21.3353 17.9521 20.4167 17.1481 19.3486 16.5933Z" />
</svg>
