<svg viewBox="0 0 24 24" xmlns="http://www.w3.org/2000/svg">
<path fill-rule="evenodd" clip-rule="evenodd" d="M3.5 4.91668C3.5 4.13427 4.13426 3.5 4.91667 3.5H19.0833C19.8657 3.5 20.5 4.13427 20.5 4.91668V19.0834C20.5 19.8659 19.8657 20.5001 19.0833 20.5001H4.91667C4.13426 20.5001 3.5 19.8659 3.5 19.0834V4.91668ZM19.0833 4.91668H4.91667V19.0834H19.0833V4.91668Z" />
<path fill-rule="evenodd" clip-rule="evenodd" d="M14.9945 10.2783C15.1678 10.2058 15.3538 10.1684 15.5417 10.1684C15.7295 10.1684 15.9155 10.2058 16.0888 10.2783C16.2611 10.3505 16.4174 10.456 16.5487 10.5887L20.2925 14.3325C20.5692 14.6092 20.5692 15.0577 20.2925 15.3343C20.0159 15.6109 19.5674 15.6109 19.2908 15.3343L15.5417 11.5851L15.5379 11.589L11.5905 15.5364C11.4591 15.6691 11.3028 15.7747 11.1305 15.8468C10.9572 15.9194 10.7712 15.9567 10.5833 15.9567C10.3955 15.9567 10.2095 15.9194 10.0362 15.8468C9.86387 15.7746 9.70753 15.6691 9.57616 15.5363L7.74998 13.7101L7.74619 13.714L4.7092 16.751C4.43258 17.0276 3.98409 17.0276 3.70747 16.751C3.43084 16.4743 3.43084 16.0258 3.70747 15.7492L6.74286 12.7138C6.87422 12.581 7.03055 12.4755 7.20286 12.4034C7.37614 12.3308 7.56213 12.2934 7.75 12.2934C7.93787 12.2934 8.12385 12.3308 8.29714 12.4034C8.46946 12.4755 8.62579 12.581 8.75716 12.7138L10.5833 14.54L10.5871 14.5362L14.5345 10.5888C14.6659 10.456 14.8222 10.3505 14.9945 10.2783Z" />
<path d="M9.52083 9.87504C10.1076 9.87504 10.5833 9.39934 10.5833 8.81254C10.5833 8.22573 10.1076 7.75003 9.52083 7.75003C8.93403 7.75003 8.45833 8.22573 8.45833 8.81254C8.45833 9.39934 8.93403 9.87504 9.52083 9.87504Z" />
</svg>
