<svg viewBox="0 0 24 24" xmlns="http://www.w3.org/2000/svg">
<path fill-rule="evenodd" clip-rule="evenodd" d="M7.45111 14.8867C7.58361 15.2807 7.37161 15.7076 6.9776 15.8401C5.70174 16.2691 5.02368 17.3401 4.66099 18.4293C4.51697 18.8618 4.42996 19.2781 4.37768 19.6224C4.72194 19.5701 5.13829 19.4831 5.57078 19.3391C6.65992 18.9764 7.73095 18.2983 8.16 17.0225C8.2925 16.6284 8.71933 16.4164 9.11334 16.5489C9.50736 16.6814 9.71936 17.1083 9.58686 17.5023C8.94333 19.4159 7.35174 20.3326 6.04639 20.7673C5.38698 20.9869 4.76965 21.0953 4.31906 21.1494C4.09268 21.1765 3.90552 21.1903 3.77256 21.1973C3.706 21.2008 3.65282 21.2026 3.61485 21.2036C3.59586 21.204 3.58066 21.2043 3.56947 21.2044L3.55573 21.2045L3.55117 21.2046L3.54947 21.2046C3.54917 21.2046 3.54817 21.2046 3.54817 20.4519C2.79549 20.4519 2.79549 20.4516 2.79549 20.4513L2.79549 20.4489L2.79551 20.4443L2.79564 20.4306C2.79577 20.4194 2.79603 20.4042 2.7965 20.3852C2.79744 20.3472 2.79926 20.2941 2.80276 20.2275C2.80975 20.0945 2.82353 19.9074 2.85068 19.681C2.90473 19.2304 3.01314 18.6131 3.23273 17.9537C3.66742 16.6483 4.58412 15.0567 6.49777 14.4132C6.89178 14.2807 7.31861 14.4927 7.45111 14.8867ZM3.54817 20.4519L2.79549 20.4513C2.79549 20.867 3.13248 21.2046 3.54817 21.2046V20.4519Z" />
<path fill-rule="evenodd" clip-rule="evenodd" d="M19.9465 4.05354C19.0728 3.92754 16.9223 3.88007 14.7214 6.08094L8.86524 11.9371L12.0629 15.1348L17.9191 9.27857C20.1199 7.0777 20.0725 4.9272 19.9465 4.05354ZM20.1647 2.56408C18.9632 2.39012 16.2848 2.38861 13.657 5.01648L7.26855 11.4049C7.12739 11.5461 7.04809 11.7375 7.04809 11.9371C7.04809 12.1368 7.12739 12.3282 7.26855 12.4694L11.5306 16.7315C11.8246 17.0254 12.3012 17.0254 12.5951 16.7315L18.9835 10.343C21.6114 7.71516 21.6099 5.0368 21.4359 3.83527C21.3919 3.5137 21.2438 3.21532 21.0143 2.98574C20.7847 2.75617 20.4863 2.6081 20.1647 2.56408Z" />
<path fill-rule="evenodd" clip-rule="evenodd" d="M17.3883 10.1213C17.804 10.1213 18.141 10.4583 18.141 10.874V16.9519L18.1409 16.9627C18.1353 17.358 17.9744 17.7352 17.693 18.0128L14.6555 21.0597C14.4627 21.2523 14.2212 21.389 13.9568 21.4551C13.6923 21.5212 13.415 21.5143 13.1542 21.4351C12.8934 21.3559 12.659 21.2074 12.476 21.0054C12.2932 20.8036 12.1685 20.5559 12.1153 20.2888C12.1153 20.2891 12.1152 20.2886 12.1153 20.2888L11.3251 16.3472C11.2434 15.9396 11.5075 15.543 11.9151 15.4613C12.3227 15.3795 12.7194 15.6437 12.8011 16.0513L13.5916 19.9947L16.6357 16.9412V10.874C16.6357 10.4583 16.9726 10.1213 17.3883 10.1213Z" />
<path fill-rule="evenodd" clip-rule="evenodd" d="M7.03738 5.85932L7.0481 5.85925H13.126C13.5417 5.85925 13.8787 6.19624 13.8787 6.61193C13.8787 7.02763 13.5417 7.36462 13.126 7.36462H7.05874L7.05266 7.37083L4.00537 10.4086L4.00654 10.4089L7.94873 11.1992C8.35632 11.2809 8.6205 11.6776 8.53878 12.0851C8.45707 12.4927 8.06042 12.7569 7.65283 12.6752L3.7118 11.8851C3.71203 11.8851 3.71158 11.8851 3.7118 11.8851C3.44475 11.8319 3.19646 11.7071 2.99465 11.5242C2.79267 11.3413 2.64416 11.1069 2.56496 10.8461C2.48576 10.5853 2.47885 10.3079 2.54495 10.0435C2.61105 9.77911 2.7477 9.53761 2.9403 9.34479L2.94143 9.34366L5.98723 6.30726C6.26483 6.0259 6.64202 5.86496 7.03738 5.85932Z" />
</svg>
