<svg viewBox="0 0 24 24" xmlns="http://www.w3.org/2000/svg">
<path fill-rule="evenodd" clip-rule="evenodd" d="M4.5 5C4.91421 5 5.25 5.33579 5.25 5.75V16.25C5.25 16.6642 4.91421 17 4.5 17C4.08579 17 3.75 16.6642 3.75 16.25V5.75C3.75 5.33579 4.08579 5 4.5 5Z" />
<path fill-rule="evenodd" clip-rule="evenodd" d="M19.5 5C19.9142 5 20.25 5.33579 20.25 5.75V16.25C20.25 16.6642 19.9142 17 19.5 17C19.0858 17 18.75 16.6642 18.75 16.25V5.75C18.75 5.33579 19.0858 5 19.5 5Z" />
<path fill-rule="evenodd" clip-rule="evenodd" d="M9 10.25C9.41421 10.25 9.75 10.5858 9.75 11V12.5C9.75 12.9142 9.41421 13.25 9 13.25C8.58579 13.25 8.25 12.9142 8.25 12.5V11C8.25 10.5858 8.58579 10.25 9 10.25Z" />
<path fill-rule="evenodd" clip-rule="evenodd" d="M12 9.5C12.4142 9.5 12.75 9.83579 12.75 10.25V12.5C12.75 12.9142 12.4142 13.25 12 13.25C11.5858 13.25 11.25 12.9142 11.25 12.5V10.25C11.25 9.83579 11.5858 9.5 12 9.5Z" />
<path fill-rule="evenodd" clip-rule="evenodd" d="M15 8.75C15.4142 8.75 15.75 9.08579 15.75 9.5V12.5C15.75 12.9142 15.4142 13.25 15 13.25C14.5858 13.25 14.25 12.9142 14.25 12.5V9.5C14.25 9.08579 14.5858 8.75 15 8.75Z" />
<path fill-rule="evenodd" clip-rule="evenodd" d="M2.25 3.5C2.25 2.67157 2.92157 2 3.75 2H20.25C21.0784 2 21.75 2.67157 21.75 3.5V5C21.75 5.82843 21.0784 6.5 20.25 6.5H3.75C2.92157 6.5 2.25 5.82843 2.25 5V3.5ZM20.25 3.5H3.75V5H20.25V3.5Z" />
<path fill-rule="evenodd" clip-rule="evenodd" d="M12 15.5C12.4142 15.5 12.75 15.8358 12.75 16.25V19.25C12.75 19.6642 12.4142 20 12 20C11.5858 20 11.25 19.6642 11.25 19.25V16.25C11.25 15.8358 11.5858 15.5 12 15.5Z" />
<path fill-rule="evenodd" clip-rule="evenodd" d="M12 20C11.5858 20 11.25 20.3358 11.25 20.75C11.25 21.1642 11.5858 21.5 12 21.5C12.4142 21.5 12.75 21.1642 12.75 20.75C12.75 20.3358 12.4142 20 12 20ZM9.75 20.75C9.75 19.5074 10.7574 18.5 12 18.5C13.2426 18.5 14.25 19.5074 14.25 20.75C14.25 21.9926 13.2426 23 12 23C10.7574 23 9.75 21.9926 9.75 20.75Z" />
<path fill-rule="evenodd" clip-rule="evenodd" d="M2.25 16.25C2.25 15.8358 2.58579 15.5 3 15.5H21C21.4142 15.5 21.75 15.8358 21.75 16.25C21.75 16.6642 21.4142 17 21 17H3C2.58579 17 2.25 16.6642 2.25 16.25Z" />
</svg>
