<svg viewBox="0 0 24 24" xmlns="http://www.w3.org/2000/svg">
<path d="M12.3741 7.1451C9.49015 7.1451 7.14417 9.49109 7.14417 12.375C7.14417 15.2589 9.49015 17.6049 12.3741 17.6049C15.258 17.6049 17.604 15.2589 17.604 12.375C17.604 9.49109 15.258 7.1451 12.3741 7.1451ZM12.3741 16.1106C10.3139 16.1106 8.63843 14.4352 8.63843 12.375C8.63843 10.3148 10.3139 8.63936 12.3741 8.63936C14.4343 8.63936 16.1097 10.3148 16.1097 12.375C16.1097 14.4352 14.4343 16.1106 12.3741 16.1106Z" />
<path d="M22.3482 14.467L20.9586 12.6169C20.9614 12.4516 20.9586 12.2769 20.9558 12.1369L22.3482 10.283C22.4864 10.0991 22.5322 9.86185 22.4724 9.63958C22.239 8.77384 21.8934 7.94079 21.4461 7.16378C21.3312 6.96486 21.1313 6.82944 20.9044 6.79675L18.6135 6.46988C18.5052 6.35688 18.3931 6.24575 18.2792 6.13555L17.9523 3.84466C17.9196 3.61772 17.7851 3.41787 17.5862 3.303C16.8092 2.85378 15.9752 2.50824 15.1086 2.27569C14.8863 2.21592 14.65 2.26169 14.466 2.3999L12.6225 3.78489C12.4572 3.77836 12.2919 3.77836 12.1256 3.78489L10.2821 2.40084C10.0981 2.26262 9.86091 2.21686 9.63864 2.27663C8.77291 2.51011 7.93986 2.85565 7.16285 3.303C6.96392 3.41787 6.82851 3.61772 6.79582 3.84466L6.46802 6.13928C6.35688 6.24762 6.24668 6.35782 6.13835 6.46895L3.84373 6.79675C3.61679 6.82944 3.41693 6.96392 3.30206 7.16285C2.85472 7.94079 2.50917 8.77478 2.27569 9.64144C2.21592 9.86371 2.26169 10.1 2.3999 10.284L3.78956 12.1341C3.78676 12.2994 3.78956 12.474 3.79236 12.6141L2.3999 14.467C2.26169 14.6509 2.21592 14.8882 2.27569 15.1104C2.50917 15.9762 2.85472 16.8092 3.30206 17.5862C3.41693 17.7851 3.61679 17.9206 3.84373 17.9532L6.13835 18.281C6.24668 18.3922 6.35688 18.5024 6.46802 18.6107L6.79582 20.9053C6.82851 21.1323 6.96299 21.3321 7.16191 21.447C7.93893 21.8962 8.77291 22.2418 9.63864 22.4743C9.70215 22.4911 9.76752 22.4995 9.83196 22.4995C9.99166 22.4995 10.1495 22.4482 10.2812 22.3501L12.1247 20.9651C12.29 20.9716 12.4563 20.9716 12.6206 20.9651L14.4642 22.3501C14.6481 22.4883 14.8854 22.5341 15.1076 22.4743C15.9734 22.2408 16.8064 21.8953 17.5834 21.4479C17.7823 21.3331 17.9178 21.1332 17.9504 20.9063L18.2782 18.6117C18.3913 18.5005 18.5108 18.3791 18.6061 18.282L20.9025 17.9542C21.1295 17.9215 21.3293 17.787 21.4442 17.5881C21.8934 16.8111 22.239 15.9771 22.4715 15.1104C22.5313 14.8882 22.4855 14.6519 22.3473 14.4679L22.3482 14.467ZM20.3235 16.5262L18.1428 16.8382C17.9775 16.8615 17.8253 16.94 17.7095 17.0604C17.5918 17.1828 17.2481 17.5367 17.0707 17.7002C16.9437 17.8169 16.8615 17.9738 16.8372 18.1438L16.5262 20.3244C16.0583 20.5691 15.569 20.7718 15.0656 20.9306L13.3005 19.6044C13.1529 19.4933 12.9699 19.4419 12.7859 19.4578C12.5132 19.4821 12.2377 19.4821 11.965 19.4578C11.781 19.4419 11.598 19.4942 11.4504 19.6044L9.68534 20.9306C9.18196 20.7727 8.69259 20.5701 8.22564 20.3254L7.91371 18.1447C7.88943 17.9775 7.81005 17.8234 7.6877 17.7076C7.4673 17.4994 7.25063 17.2827 7.04424 17.0642C6.92844 16.9418 6.77434 16.8615 6.60717 16.8382L4.42649 16.5272C4.18181 16.0593 3.97915 15.5699 3.82038 15.0665L5.14653 13.3014C5.2502 13.1632 5.30343 12.9923 5.29596 12.8195C5.28569 12.5935 5.27635 12.1611 5.29409 11.9659C5.30997 11.782 5.25767 11.5989 5.14747 11.4514L3.82132 9.68627C3.97915 9.18289 4.18181 8.69353 4.42649 8.22657L6.60717 7.91464C6.77434 7.89036 6.92844 7.81098 7.04424 7.68864C7.25157 7.46917 7.46824 7.25344 7.6877 7.04517C7.81005 6.92937 7.89036 6.77527 7.91371 6.6081L8.22564 4.42742C8.69353 4.18274 9.1829 3.98008 9.68627 3.82132L11.4514 5.14747C11.5989 5.2586 11.782 5.3109 11.9659 5.29409C12.2386 5.26981 12.5142 5.26981 12.7869 5.29409C12.9708 5.3109 13.1539 5.25767 13.3014 5.14747L15.0675 3.82132C15.5708 3.97915 16.0602 4.18181 16.5272 4.42649L16.8391 6.60717C16.8634 6.77808 16.9456 6.93404 17.0726 7.05078C17.293 7.25344 17.504 7.46543 17.7011 7.6793C17.8178 7.80631 17.9747 7.88943 18.1456 7.91371L20.3263 8.22564C20.571 8.69353 20.7737 9.18289 20.9324 9.68627L19.6063 11.4514C19.5026 11.5896 19.4494 11.7605 19.4568 11.9333C19.4671 12.1593 19.4765 12.5917 19.4587 12.7869C19.4428 12.9708 19.4951 13.1539 19.6053 13.3014L20.9315 15.0675C20.7737 15.5708 20.571 16.0602 20.3263 16.5272L20.3235 16.5262Z" />
</svg>
