<svg viewBox="0 0 24 24" xmlns="http://www.w3.org/2000/svg">
<path d="M17.6391 14.25C18.7256 14.25 19.6528 13.4747 19.8441 12.4069L20.9878 6.135C21.0281 5.91656 20.9681 5.69063 20.8256 5.52C20.6831 5.34938 20.4722 5.25 20.25 5.25H5.12344L4.66687 2.7375C4.54031 2.02688 3.92531 1.50656 3.19687 1.5H1.5C1.08562 1.5 0.75 1.83562 0.75 2.25C0.75 2.66438 1.08562 3 1.5 3L3.19031 3.00281L5.11312 13.5759C5.11687 13.6116 5.12344 13.6462 5.13188 13.6809L5.76469 17.1581C5.22 17.6391 4.875 18.3431 4.875 19.125C4.875 20.5725 6.0525 21.75 7.5 21.75C8.9475 21.75 10.125 20.5725 10.125 19.125C10.125 18.7228 10.0341 18.3412 9.87094 18H14.8781C14.7159 18.3412 14.6241 18.7228 14.6241 19.125C14.6241 20.5725 15.8016 21.75 17.2491 21.75C18.6966 21.75 19.8741 20.5725 19.8741 19.125C19.8741 17.6775 18.6966 16.5 17.2491 16.5H7.17L6.76031 14.25H17.6391ZM8.625 19.125C8.625 19.7456 8.12062 20.25 7.5 20.25C6.87937 20.25 6.375 19.7456 6.375 19.125C6.375 18.5044 6.87937 18 7.5 18C8.12062 18 8.625 18.5044 8.625 19.125ZM18.375 19.125C18.375 19.7456 17.8706 20.25 17.25 20.25C16.6294 20.25 16.125 19.7456 16.125 19.125C16.125 18.5044 16.6294 18 17.25 18C17.8706 18 18.375 18.5044 18.375 19.125ZM5.39625 6.75H19.3509L18.3684 12.1397C18.3047 12.4941 17.9991 12.75 17.6372 12.75H6.4875L5.39625 6.75Z" />
</svg>
