<svg viewBox="0 0 24 24" xmlns="http://www.w3.org/2000/svg">
<path d="M19.8441 12.4069C19.6528 13.4747 18.7256 14.25 17.6391 14.25H6.76031L7.17 16.5H17.2491C18.6966 16.5 19.8741 17.6775 19.8741 19.125C19.8741 20.5725 18.6966 21.75 17.2491 21.75C15.8016 21.75 14.6241 20.5725 14.6241 19.125C14.6241 18.7228 14.7159 18.3412 14.8781 18H9.87094C10.0341 18.3412 10.125 18.7228 10.125 19.125C10.125 20.5725 8.9475 21.75 7.5 21.75C6.0525 21.75 4.875 20.5725 4.875 19.125C4.875 18.3431 5.22 17.6391 5.76469 17.1581L5.13188 13.6809C5.12344 13.6462 5.11687 13.6116 5.11312 13.5759L3.19031 3.00281L1.5 3C1.08562 3 0.75 2.66438 0.75 2.25C0.75 1.83562 1.08562 1.5 1.5 1.5H3.19687C3.92531 1.50656 4.54031 2.02687 4.66687 2.7375L5.12344 5.25H20.25C20.4722 5.25 20.6831 5.34938 20.8256 5.52C20.9681 5.69063 21.0281 5.91656 20.9878 6.135L19.8441 12.4069Z" fill="#FF8066"/>
</svg>
