<svg viewBox="0 0 24 24" fill="none" xmlns="http://www.w3.org/2000/svg">
<path fill-rule="evenodd" clip-rule="evenodd" d="M11.2068 2.74554C11.4393 2.58573 11.7162 2.5 12.0001 2.5C12.2839 2.5 12.5608 2.58573 12.7933 2.74554C13.0226 2.90318 13.1977 3.12539 13.2956 3.38269L15.1589 7.9883L15.1644 8.00253C15.1662 8.00708 15.1692 8.01104 15.1732 8.01393C15.1771 8.01681 15.1819 8.0185 15.1868 8.01878L15.191 8.01902L20.1963 8.33546C21.4956 8.41827 21.9396 10.0147 20.994 10.7863L20.9934 10.7867L17.16 13.9251L17.1578 13.9269C17.1492 13.9339 17.1427 13.9431 17.1392 13.9536C17.1358 13.9637 17.1353 13.9746 17.1378 13.985L17.138 13.9859L18.3756 18.7617C18.6753 19.9228 17.398 20.9684 16.2869 20.2804L16.2852 20.2794L12.0095 17.6148C12.0068 17.6131 12.0033 17.6119 12.0001 17.6119C11.9968 17.6119 11.9937 17.6128 11.9909 17.6145L11.9899 17.6152L8.01242 20.0875L8.01179 20.0879C6.7929 20.8485 5.38508 19.6921 5.71783 18.4119L6.8621 13.9859L6.86229 13.9851C6.86477 13.9747 6.86428 13.9638 6.86087 13.9536C6.85736 13.9431 6.85093 13.9339 6.84231 13.9269L6.84008 13.9251L3.00666 10.7867L3.00612 10.7863C2.06053 10.0147 2.50421 8.41829 3.8035 8.33548L8.81328 8.01877C8.81822 8.01849 8.82296 8.01681 8.82694 8.01393C8.83091 8.01104 8.83394 8.00708 8.83566 8.00253L8.84123 7.9883L10.7045 3.38269C10.8024 3.12539 10.9775 2.90319 11.2068 2.74554ZM12.7375 16.4903L17.0111 19.1536C17.0188 19.1583 17.0239 19.1602 17.0252 19.1606C17.027 19.1602 17.0329 19.1586 17.0409 19.1526C17.0512 19.145 17.0578 19.1354 17.0607 19.1277C17.0621 19.1242 17.063 19.1203 17.0633 19.1156C17.0635 19.1111 17.0634 19.1027 17.06 19.0896L15.8206 14.3067C15.7563 14.0524 15.7665 13.7854 15.8501 13.5366C15.9335 13.2882 16.0865 13.068 16.2916 12.9011L16.2929 12.9001L20.1262 9.76179C20.1342 9.75532 20.1375 9.75068 20.139 9.74845C20.1405 9.74601 20.1419 9.74315 20.143 9.7392C20.1454 9.73021 20.1462 9.71472 20.1406 9.69682C20.1349 9.67898 20.1266 9.6703 20.1241 9.66826L20.1227 9.66736C20.1227 9.66736 20.1188 9.66566 20.1089 9.66501L15.108 9.34884L15.1056 9.3487C14.8382 9.33297 14.5813 9.24138 14.366 9.08503C14.1524 8.92998 13.9889 8.71788 13.895 8.47414L12.031 3.8669C12.0286 3.86088 12.0262 3.85483 12.024 3.84875C12.0222 3.84394 12.0189 3.83977 12.0147 3.83683C12.0104 3.83389 12.0053 3.83231 12.0001 3.83231C11.9948 3.83231 11.9897 3.83389 11.9855 3.83683C11.9812 3.83977 11.9779 3.84393 11.9761 3.84875C11.9739 3.85483 11.9715 3.86088 11.9691 3.8669L10.1051 8.47414C10.0112 8.71788 9.8477 8.92998 9.63415 9.08503C9.41882 9.24138 9.16187 9.33297 8.89454 9.3487L3.89145 9.66499C3.88157 9.66564 3.87741 9.66734 3.87741 9.66734L3.87598 9.66826C3.87352 9.6703 3.86517 9.67898 3.85955 9.69682C3.8539 9.71472 3.85475 9.73021 3.85716 9.7392C3.85822 9.74315 3.85957 9.74601 3.86115 9.74846C3.86258 9.75068 3.86594 9.75532 3.87388 9.76179L3.87498 9.76269L7.70726 12.9001L7.70859 12.9012C7.91365 13.068 8.06665 13.2883 8.15002 13.5366C8.23357 13.7854 8.24379 14.0524 8.1795 14.3067L8.17863 14.3101L7.03308 18.7412C7.00856 18.8353 7.04238 18.9083 7.10438 18.9546C7.1361 18.9782 7.16815 18.9884 7.19348 18.9901C7.21442 18.9916 7.24343 18.9886 7.28369 18.9635L11.2626 16.4903L11.2637 16.4896C11.4839 16.3524 11.7393 16.2796 12.0001 16.2796C12.2611 16.2796 12.5172 16.3528 12.7375 16.4903Z" fill="#FFB500"/>
<path d="M14.7148 8.72267L12.0001 3.39343L9.28541 8.72267L3.40356 9.16678V10.055L7.47561 13.6078L6.11826 18.937L7.02316 19.8253L12.0001 16.7165L16.9771 19.8253L17.882 19.3812L16.5246 13.6078L20.5967 10.055V9.16678L14.7148 8.72267Z" fill="#FFB500"/>
</svg>
