<svg viewBox="0 0 24 24" xmlns="http://www.w3.org/2000/svg">
<path fill-rule="evenodd" clip-rule="evenodd" d="M7.78569 4.05619C8.1596 3.9014 8.58888 4.0774 8.74451 4.44927L9.45034 6.13586C9.60597 6.50774 9.42902 6.93468 9.0551 7.08946C8.68119 7.24424 8.25191 7.06825 8.09628 6.69637L7.39045 5.00978C7.23482 4.63791 7.41177 4.21097 7.78569 4.05619Z" />
<path fill-rule="evenodd" clip-rule="evenodd" d="M1.8353 9.97396C1.99093 9.60208 2.42021 9.42609 2.79412 9.58087L4.48996 10.2829C4.86387 10.4376 5.04083 10.8646 4.8852 11.2365C4.72957 11.6083 4.30029 11.7843 3.92638 11.6295L2.23054 10.9276C1.85663 10.7728 1.67967 10.3458 1.8353 9.97396Z" />
<path fill-rule="evenodd" clip-rule="evenodd" d="M22.1644 9.97396C22.32 10.3458 22.143 10.7728 21.7691 10.9276L20.0733 11.6295C19.6994 11.7843 19.2701 11.6083 19.1145 11.2365C18.9588 10.8646 19.1358 10.4376 19.5097 10.2829L21.2055 9.58087C21.5795 9.42609 22.0087 9.60208 22.1644 9.97396Z" />
<path fill-rule="evenodd" clip-rule="evenodd" d="M16.2144 4.05619C16.5883 4.21097 16.7653 4.63791 16.6097 5.00978L15.9038 6.69637C15.7482 7.06825 15.3189 7.24424 14.945 7.08946C14.5711 6.93468 14.3941 6.50774 14.5498 6.13586L15.2556 4.44927C15.4112 4.0774 15.8405 3.9014 16.2144 4.05619Z" />
<path fill-rule="evenodd" clip-rule="evenodd" d="M1 15.624C1 15.2212 1.32832 14.8946 1.73333 14.8946H22.2667C22.6717 14.8946 23 15.2212 23 15.624C23 16.0268 22.6717 16.3533 22.2667 16.3533H1.73333C1.32832 16.3533 1 16.0268 1 15.624Z" />
<path fill-rule="evenodd" clip-rule="evenodd" d="M3.93333 19.2707C3.93333 18.8679 4.26166 18.5413 4.66667 18.5413H19.3333C19.7383 18.5413 20.0667 18.8679 20.0667 19.2707C20.0667 19.6735 19.7383 20 19.3333 20H4.66667C4.26166 20 3.93333 19.6735 3.93333 19.2707Z" />
<path fill-rule="evenodd" clip-rule="evenodd" d="M12 9.41572C11.2649 9.41572 10.5397 9.58481 9.88125 9.90978C9.22276 10.2347 8.64876 10.7068 8.20412 11.289C7.75949 11.8712 7.45628 12.5478 7.31819 13.2659C7.1801 13.984 7.21088 14.7241 7.40811 15.4284C7.51678 15.8164 7.28858 16.2186 6.89843 16.3266C6.50827 16.4347 6.10389 16.2078 5.99522 15.8197C5.7373 14.8987 5.69706 13.9309 5.87763 12.9919C6.05821 12.0528 6.45472 11.168 7.03616 10.4067C7.6176 9.64536 8.36822 9.02809 9.22933 8.60313C10.0904 8.17817 11.0387 7.95704 12 7.95704C12.9613 7.95704 13.9096 8.17817 14.7707 8.60313C15.6318 9.02809 16.3824 9.64536 16.9638 10.4067C17.5453 11.168 17.9418 12.0528 18.1224 12.9919C18.3029 13.9309 18.2627 14.8987 18.0048 15.8197C17.8961 16.2078 17.4917 16.4347 17.1016 16.3266C16.7114 16.2186 16.4832 15.8164 16.5919 15.4284C16.7891 14.7241 16.8199 13.984 16.6818 13.2659C16.5437 12.5478 16.2405 11.8712 15.7959 11.289C15.3512 10.7068 14.7772 10.2347 14.1187 9.90978C13.4603 9.58481 12.7351 9.41572 12 9.41572Z" />
</svg>
