<svg viewBox="0 0 24 24" xmlns="http://www.w3.org/2000/svg">
<path fill-rule="evenodd" clip-rule="evenodd" d="M3.25 6.14583C3.25 5.74313 3.57646 5.41667 3.97917 5.41667H20.0208C20.4235 5.41667 20.75 5.74313 20.75 6.14583C20.75 6.54854 20.4235 6.875 20.0208 6.875H3.97917C3.57646 6.875 3.25 6.54854 3.25 6.14583Z" />
<path fill-rule="evenodd" clip-rule="evenodd" d="M9.8125 9.79167C10.2152 9.79167 10.5417 10.1181 10.5417 10.5208V16.3542C10.5417 16.7569 10.2152 17.0833 9.8125 17.0833C9.40979 17.0833 9.08333 16.7569 9.08333 16.3542V10.5208C9.08333 10.1181 9.40979 9.79167 9.8125 9.79167Z" />
<path fill-rule="evenodd" clip-rule="evenodd" d="M14.1875 9.79167C14.5902 9.79167 14.9167 10.1181 14.9167 10.5208V16.3542C14.9167 16.7569 14.5902 17.0833 14.1875 17.0833C13.7848 17.0833 13.4583 16.7569 13.4583 16.3542V10.5208C13.4583 10.1181 13.7848 9.79167 14.1875 9.79167Z" />
<path fill-rule="evenodd" clip-rule="evenodd" d="M5.4375 5.41667C5.84021 5.41667 6.16667 5.74313 6.16667 6.14583V20H17.8333V6.14583C17.8333 5.74313 18.1598 5.41667 18.5625 5.41667C18.9652 5.41667 19.2917 5.74313 19.2917 6.14583V20C19.2917 20.3868 19.138 20.7577 18.8645 21.0312C18.591 21.3047 18.2201 21.4583 17.8333 21.4583H6.16667C5.77989 21.4583 5.40896 21.3047 5.13547 21.0312C4.86198 20.7577 4.70833 20.3868 4.70833 20V6.14583C4.70833 5.74313 5.03479 5.41667 5.4375 5.41667Z" />
<path fill-rule="evenodd" clip-rule="evenodd" d="M8.2657 3.1407C8.67594 2.73047 9.23234 2.5 9.8125 2.5H14.1875C14.7677 2.5 15.3241 2.73047 15.7343 3.1407C16.1445 3.55094 16.375 4.10734 16.375 4.6875V6.14583C16.375 6.54854 16.0485 6.875 15.6458 6.875C15.2431 6.875 14.9167 6.54854 14.9167 6.14583V4.6875C14.9167 4.49411 14.8398 4.30865 14.7031 4.1719C14.5664 4.03516 14.3809 3.95833 14.1875 3.95833H9.8125C9.61911 3.95833 9.43365 4.03516 9.2969 4.1719C9.16016 4.30865 9.08333 4.49411 9.08333 4.6875V6.14583C9.08333 6.54854 8.75687 6.875 8.35417 6.875C7.95146 6.875 7.625 6.54854 7.625 6.14583V4.6875C7.625 4.10734 7.85547 3.55094 8.2657 3.1407Z" />
</svg>
