<svg viewBox="0 0 24 24" xmlns="http://www.w3.org/2000/svg">
<path fill-rule="evenodd" clip-rule="evenodd" d="M2.25 5.25C2.25 4.42157 2.92157 3.75 3.75 3.75H20.25C21.0784 3.75 21.75 4.42157 21.75 5.25V18.75C21.75 19.5784 21.0784 20.25 20.25 20.25H3.75C2.92157 20.25 2.25 19.5784 2.25 18.75V5.25ZM20.25 5.25H3.75V18.75H20.25V5.25Z" />
<path fill-rule="evenodd" clip-rule="evenodd" d="M12 3.75C12.4142 3.75 12.75 4.08579 12.75 4.5V19.5C12.75 19.9142 12.4142 20.25 12 20.25C11.5858 20.25 11.25 19.9142 11.25 19.5V4.5C11.25 4.08579 11.5858 3.75 12 3.75Z" />
<path fill-rule="evenodd" clip-rule="evenodd" d="M2.25 7.5C2.25 7.08579 2.58579 6.75 3 6.75H21C21.4142 6.75 21.75 7.08579 21.75 7.5C21.75 7.91421 21.4142 8.25 21 8.25H3C2.58579 8.25 2.25 7.91421 2.25 7.5Z" />
<path fill-rule="evenodd" clip-rule="evenodd" d="M2.25 16.5C2.25 16.0858 2.58579 15.75 3 15.75H21C21.4142 15.75 21.75 16.0858 21.75 16.5C21.75 16.9142 21.4142 17.25 21 17.25H3C2.58579 17.25 2.25 16.9142 2.25 16.5Z" />
<path fill-rule="evenodd" clip-rule="evenodd" d="M7.5 3.75C7.91421 3.75 8.25 4.08579 8.25 4.5V7.5C8.25 7.91421 7.91421 8.25 7.5 8.25C7.08579 8.25 6.75 7.91421 6.75 7.5V4.5C6.75 4.08579 7.08579 3.75 7.5 3.75Z" />
<path fill-rule="evenodd" clip-rule="evenodd" d="M16.5 3.75C16.9142 3.75 17.25 4.08579 17.25 4.5V7.5C17.25 7.91421 16.9142 8.25 16.5 8.25C16.0858 8.25 15.75 7.91421 15.75 7.5V4.5C15.75 4.08579 16.0858 3.75 16.5 3.75Z" />
<path fill-rule="evenodd" clip-rule="evenodd" d="M7.5 15.75C7.91421 15.75 8.25 16.0858 8.25 16.5V19.5C8.25 19.9142 7.91421 20.25 7.5 20.25C7.08579 20.25 6.75 19.9142 6.75 19.5V16.5C6.75 16.0858 7.08579 15.75 7.5 15.75Z" />
<path fill-rule="evenodd" clip-rule="evenodd" d="M16.5 15.75C16.9142 15.75 17.25 16.0858 17.25 16.5V19.5C17.25 19.9142 16.9142 20.25 16.5 20.25C16.0858 20.25 15.75 19.9142 15.75 19.5V16.5C15.75 16.0858 16.0858 15.75 16.5 15.75Z" />
</svg>
